<?xml version="1.0" standalone="no"?>
<!DOCTYPE svg PUBLIC "-//W3C//DTD SVG 20010904//EN"
 "http://www.w3.org/TR/2001/REC-SVG-20010904/DTD/svg10.dtd">
<svg version="1.0" xmlns="http://www.w3.org/2000/svg"
 width="700.000000pt" height="700.000000pt" viewBox="0 0 700.000000 700.000000"
 preserveAspectRatio="xMidYMid meet">
<metadata>
Created by potrace 1.14, written by Peter Selinger 2001-2017
</metadata>
<g transform="translate(0.000000,700.000000) scale(0.100000,-0.100000)"
fill="#000000" stroke="none">
<path d="M3275 6994 c-869 -70 -1608 -400 -2213 -989 -594 -578 -945 -1296
-1044 -2140 -7 -62 -13 -220 -13 -365 0 -410 48 -716 171 -1093 283 -867 911
-1602 1729 -2022 379 -194 771 -311 1230 -367 134 -16 591 -16 730 0 956 112
1782 564 2373 1302 410 512 670 1145 744 1815 17 154 17 585 0 730 -85 722
-352 1347 -803 1885 -121 144 -350 368 -494 483 -507 406 -1120 663 -1772 742
-123 15 -533 27 -638 19z m-495 -2991 c218 -60 380 -274 380 -503 0 -231 -167
-446 -391 -505 -63 -17 -194 -19 -259 -4 -182 42 -341 203 -385 391 -80 341
202 670 550 640 28 -2 75 -11 105 -19z m2701 -6 c314 -114 446 -491 271 -773
l-31 -49 54 -55 c60 -61 69 -94 35 -125 -34 -31 -67 -22 -124 34 -28 28 -55
51 -58 51 -4 0 -29 -14 -55 -30 -193 -123 -470 -89 -638 78 -104 104 -155 229
-155 380 0 248 175 458 425 512 69 15 203 4 276 -23z m-4289 -384 l388 -388 0
351 c0 229 4 362 11 383 18 52 94 56 117 6 9 -19 12 -152 12 -469 0 -433 0
-444 -21 -470 -44 -56 -43 -57 -459 359 -212 212 -388 385 -392 385 -5 0 -8
-163 -8 -363 0 -406 0 -407 -65 -407 -66 0 -65 -9 -65 500 0 506 -1 500 63
500 29 0 71 -40 419 -387z m3053 359 c100 -48 169 -143 182 -250 18 -154 -91
-309 -242 -343 l-55 -12 135 -138 c112 -113 135 -142 135 -166 0 -36 -30 -65
-66 -65 -21 0 -65 38 -213 186 l-186 186 -127 0 -127 0 -3 -171 c-3 -155 -5
-172 -22 -185 -26 -19 -65 -18 -88 3 -17 15 -18 43 -18 484 0 412 2 469 16
483 13 14 56 16 317 16 l302 0 60 -28z m2029 6 c14 -20 16 -82 16 -482 0 -511
2 -496 -66 -496 -65 0 -64 -7 -64 500 0 509 -1 500 65 500 24 0 39 -7 49 -22z"/>
<path d="M2575 3888 c-209 -27 -366 -242 -327 -450 25 -133 102 -236 220 -291
62 -30 75 -32 172 -32 95 0 111 3 163 28 80 40 151 112 190 194 29 62 32 77
32 164 0 90 -2 99 -38 171 -78 159 -231 239 -412 216z"/>
<path d="M5233 3889 c-104 -20 -201 -85 -258 -173 -129 -197 -54 -466 160
-572 55 -27 69 -29 170 -29 100 0 115 2 168 28 31 16 57 32 57 36 0 4 -16 22
-35 41 -43 41 -48 90 -13 114 35 25 59 19 105 -26 l42 -42 33 70 c30 63 33 77
33 164 0 86 -3 101 -32 162 -56 119 -141 190 -268 223 -64 16 -97 17 -162 4z"/>
<path d="M3680 3685 l0 -185 229 0 c249 0 277 5 328 53 93 87 74 240 -37 297
-36 18 -58 20 -280 20 l-240 0 0 -185z"/>
</g>
</svg>
