<svg xmlns="http://www.w3.org/2000/svg" xmlns:xlink="http://www.w3.org/1999/xlink" width="335" height="49" viewBox="0 0 335 49"><defs><linearGradient id="a" y1="1" x2="1" y2="1" gradientUnits="objectBoundingBox"><stop offset="0" stop-color="#737373" stop-opacity="0"/><stop offset="1" stop-color="#737373"/></linearGradient><linearGradient id="b" x1="1" x2="0" xlink:href="#a"/></defs><g transform="translate(-20 -1734)"><g transform="translate(-284.279 1539.326)"><ellipse cx="24.5" cy="24.5" rx="24.5" ry="24.5" transform="translate(447.28 194.674)" fill="rgba(115,115,115,0.5)"/><g transform="translate(452.257 215.537)"><path d="M475.547,282.276a.459.459,0,0,0-.459.459v5.028l-5.353-5.353a.459.459,0,0,0-.784.325v6.137a.459.459,0,0,0,.919,0v-5.029l5.353,5.353a.459.459,0,0,0,.784-.325v-6.137a.459.459,0,0,0-.459-.459Z" transform="translate(-468.951 -282.117)" fill="#fff"/><path d="M512.969,281.583a3.687,3.687,0,1,0,3.687,3.687A3.687,3.687,0,0,0,512.969,281.583Zm0,6.455a2.768,2.768,0,1,1,2.768-2.768A2.768,2.768,0,0,1,512.969,288.038Z" transform="translate(-499.461 -281.583)" fill="#fff"/><path d="M628,282.276a.459.459,0,0,0-.459.459v6.137a.459.459,0,1,0,.919,0v-6.137A.459.459,0,0,0,628,282.276Z" transform="translate(-589.31 -282.117)" fill="#fff"/><path d="M557.041,284.478a2.228,2.228,0,0,0-2.225-2.225h-3.508a.459.459,0,0,0-.459.459v6.142a.459.459,0,1,0,.919,0V286.7h1.807l2.492,2.492a.459.459,0,0,0,.649-.649l-1.845-1.845A2.227,2.227,0,0,0,557.041,284.478Zm-2.225,1.307h-3.049v-2.613h3.049a1.307,1.307,0,1,1,0,2.613Z" transform="translate(-530.948 -282.099)" fill="#fff"/></g><path d="M593.337,287.3a3.7,3.7,0,1,0-.649.65l.644.644a.459.459,0,0,0,.65-.65Zm-2.908.51a2.777,2.777,0,1,1,2.252-1.165l-.418-.418a.459.459,0,1,0-.649.649l.418.418A2.751,2.751,0,0,1,590.429,287.81Z" transform="translate(-105.929 -65.818)" fill="#fff"/></g><rect width="117" height="1" transform="translate(20 1757)" fill="url(#a)"/><rect width="117" height="1" transform="translate(238 1757)" fill="url(#b)"/></g></svg>