<svg id="Layer_1" data-name="Layer 1" xmlns="http://www.w3.org/2000/svg" viewBox="0 0 1156.89 865.56"><defs><style>.cls-1,.cls-11,.cls-12,.cls-13,.cls-15,.cls-18,.cls-19,.cls-21,.cls-22,.cls-7{fill:none;}.cls-1{stroke:#ececec;stroke-width:5px;}.cls-1,.cls-10,.cls-11,.cls-12,.cls-13,.cls-14,.cls-15,.cls-18,.cls-19,.cls-20,.cls-21,.cls-22,.cls-7{stroke-linecap:round;}.cls-1,.cls-11,.cls-13,.cls-17,.cls-21{stroke-miterlimit:10;}.cls-2,.cls-3{isolation:isolate;}.cls-3{font-size:73.54px;fill:#292928;font-family:RobotoCondensed-Regular, Roboto Condensed;letter-spacing:0.05em;}.cls-4{letter-spacing:0.04em;}.cls-5{letter-spacing:0.05em;}.cls-6{letter-spacing:0.03em;}.cls-10,.cls-17,.cls-19,.cls-7{stroke:#62b039;}.cls-10,.cls-12,.cls-14,.cls-15,.cls-18,.cls-19,.cls-20,.cls-22,.cls-7{stroke-linejoin:round;}.cls-7{stroke-width:17px;}.cls-8{fill:#e9e6e2;}.cls-9{fill:#ececec;}.cls-10,.cls-14,.cls-16,.cls-17{fill:#62b039;}.cls-10,.cls-11,.cls-12,.cls-13,.cls-14,.cls-15,.cls-18,.cls-19,.cls-20,.cls-21,.cls-22{stroke-width:3px;}.cls-11,.cls-12{stroke:#616160;}.cls-13{stroke:#5fa539;}.cls-14,.cls-15{stroke:#292928;}.cls-18{stroke:#323432;}.cls-20{fill:#5fa539;}.cls-20,.cls-21,.cls-22{stroke:#1f1f1e;}</style></defs><line id="Line_21" data-name="Line 21" class="cls-1" x1="930.88" y1="161.34" x2="1141.83" y2="161.77"/><line id="Line_21-2" data-name="Line 21" class="cls-1" x1="932.88" y1="298.34" x2="1143.83" y2="298.77"/><line id="Line_21-3" data-name="Line 21" class="cls-1" x1="932.88" y1="436.34" x2="1143.83" y2="436.77"/><line id="Line_21-4" data-name="Line 21" class="cls-1" x1="932.88" y1="574.34" x2="1143.83" y2="574.77"/><line id="Line_21-5" data-name="Line 21" class="cls-1" x1="932.88" y1="712.34" x2="1143.83" y2="712.77"/><line id="Line_17" data-name="Line 17" class="cls-1" x1="931.37" y1="857.53" x2="931.37" y2="16.4"/><line id="Line_17-2" data-name="Line 17" class="cls-1" x1="9.92" y1="196.34" x2="930.88" y2="196.34"/><g id="_00:00-3" data-name=" 00:00-3" class="cls-2"><text class="cls-3" transform="translate(196.76 135.59)">P<tspan class="cls-4" x="44.43" y="0">r</tspan><tspan class="cls-5" x="69.76" y="0">og</tspan><tspan class="cls-6" x="150.26" y="0">r</tspan><tspan x="174.88" y="0">am 1</tspan></text><text class="cls-2" x="-171.12" y="-317.47"/></g><rect id="Rectangle_377" data-name="Rectangle 377" class="cls-7" x="8.5" y="8.5" width="1139.89" height="848.56"/><rect class="cls-8" x="65.94" y="53.27" width="106.8" height="106.8" rx="24.55"/><rect class="cls-9" x="71.75" y="231.23" width="100.94" height="100.94" rx="24.55"/><rect class="cls-9" x="188.75" y="231.23" width="136.13" height="100.94" rx="24.55"/><path class="cls-10" d="M309.19,416.17H288.78V404.62l-20.24,20.32,19.93,19.13v-12l20.72.11Z" transform="translate(-171.12 -317.47)"/><g id="Group_86" data-name="Group 86"><line id="Line_4" data-name="Line 4" class="cls-11" x1="114" y1="265.77" x2="129" y2="265.77"/><line id="Line_5" data-name="Line 5" class="cls-11" x1="102" y1="270.77" x2="140.37" y2="270.77"/><path id="Path_231" data-name="Path 231" class="cls-12" d="M279.12,589.23v30.2h27.42v-30.2" transform="translate(-171.12 -317.47)"/><line id="Line_6" data-name="Line 6" class="cls-13" x1="117" y1="277.77" x2="117" y2="294.66"/><line id="Line_7" data-name="Line 7" class="cls-13" x1="126" y1="277.77" x2="126" y2="294.66"/></g><rect class="cls-9" x="71.75" y="351.23" width="100.94" height="100.94" rx="24.55"/><rect class="cls-9" x="188.75" y="351.17" width="136.13" height="100.94" rx="24.55"/><rect class="cls-9" x="189.23" y="471.17" width="136.13" height="100.94" rx="24.55"/><rect class="cls-9" x="189.23" y="591.1" width="136.13" height="100.94" rx="24.55"/><rect class="cls-9" x="189.23" y="711.03" width="136.13" height="100.94" rx="24.55"/><g id="Group_86-2" data-name="Group 86"><line id="Line_4-2" data-name="Line 4" class="cls-11" x1="114" y1="385.77" x2="129" y2="385.77"/><line id="Line_5-2" data-name="Line 5" class="cls-11" x1="102" y1="390.77" x2="140.37" y2="390.77"/><path id="Path_231-2" data-name="Path 231" class="cls-12" d="M279.12,709.23v30.2h27.42v-30.2" transform="translate(-171.12 -317.47)"/><line id="Line_6-2" data-name="Line 6" class="cls-13" x1="117" y1="397.77" x2="117" y2="414.66"/><line id="Line_7-2" data-name="Line 7" class="cls-13" x1="126" y1="397.77" x2="126" y2="414.66"/></g><rect class="cls-9" x="71.75" y="471.23" width="100.94" height="100.94" rx="24.55"/><g id="Group_86-3" data-name="Group 86"><line id="Line_4-3" data-name="Line 4" class="cls-11" x1="114" y1="505.77" x2="129" y2="505.77"/><line id="Line_5-3" data-name="Line 5" class="cls-11" x1="102" y1="510.77" x2="140.37" y2="510.77"/><path id="Path_231-3" data-name="Path 231" class="cls-12" d="M279.12,829.23v30.2h27.42v-30.2" transform="translate(-171.12 -317.47)"/><line id="Line_6-3" data-name="Line 6" class="cls-13" x1="117" y1="517.77" x2="117" y2="534.66"/><line id="Line_7-3" data-name="Line 7" class="cls-13" x1="126" y1="517.77" x2="126" y2="534.66"/></g><rect class="cls-9" x="71.75" y="591.23" width="100.94" height="100.94" rx="24.55"/><g id="Group_86-4" data-name="Group 86"><line id="Line_4-4" data-name="Line 4" class="cls-11" x1="114" y1="625.77" x2="129" y2="625.77"/><line id="Line_5-4" data-name="Line 5" class="cls-11" x1="102" y1="630.77" x2="140.37" y2="630.77"/><path id="Path_231-4" data-name="Path 231" class="cls-12" d="M279.12,949.23v30.2h27.42v-30.2" transform="translate(-171.12 -317.47)"/><line id="Line_6-4" data-name="Line 6" class="cls-13" x1="117" y1="637.77" x2="117" y2="654.66"/><line id="Line_7-4" data-name="Line 7" class="cls-13" x1="126" y1="637.77" x2="126" y2="654.66"/></g><rect class="cls-9" x="71.75" y="711.23" width="100.94" height="100.94" rx="24.55"/><g id="Group_86-5" data-name="Group 86"><line id="Line_4-5" data-name="Line 4" class="cls-11" x1="114" y1="745.77" x2="129" y2="745.77"/><line id="Line_5-5" data-name="Line 5" class="cls-11" x1="102" y1="750.77" x2="140.37" y2="750.77"/><path id="Path_231-5" data-name="Path 231" class="cls-12" d="M279.12,1069.23v30.2h27.42v-30.2" transform="translate(-171.12 -317.47)"/><line id="Line_6-5" data-name="Line 6" class="cls-13" x1="117" y1="757.77" x2="117" y2="774.66"/><line id="Line_7-5" data-name="Line 7" class="cls-13" x1="126" y1="757.77" x2="126" y2="774.66"/></g><rect class="cls-9" x="359.75" y="231.23" width="100.94" height="100.94" rx="24.55"/><rect class="cls-9" x="476.75" y="231.23" width="136.13" height="100.94" rx="24.55"/><g id="Group_86-6" data-name="Group 86"><line id="Line_4-6" data-name="Line 4" class="cls-11" x1="402" y1="265.77" x2="417" y2="265.77"/><line id="Line_5-6" data-name="Line 5" class="cls-11" x1="390" y1="270.77" x2="428.37" y2="270.77"/><path id="Path_231-6" data-name="Path 231" class="cls-12" d="M567.12,589.23v30.2h27.42v-30.2" transform="translate(-171.12 -317.47)"/><line id="Line_6-6" data-name="Line 6" class="cls-13" x1="405" y1="277.77" x2="405" y2="294.66"/><line id="Line_7-6" data-name="Line 7" class="cls-13" x1="414" y1="277.77" x2="414" y2="294.66"/></g><rect class="cls-9" x="359.75" y="351.23" width="100.94" height="100.94" rx="24.55"/><rect class="cls-9" x="476.75" y="351.17" width="136.13" height="100.94" rx="24.55"/><rect class="cls-9" x="477.23" y="471.17" width="136.13" height="100.94" rx="24.55"/><rect class="cls-9" x="477.23" y="591.1" width="136.13" height="100.94" rx="24.55"/><rect class="cls-9" x="477.23" y="711.03" width="136.13" height="100.94" rx="24.55"/><g id="Group_86-7" data-name="Group 86"><line id="Line_4-7" data-name="Line 4" class="cls-11" x1="402" y1="385.77" x2="417" y2="385.77"/><line id="Line_5-7" data-name="Line 5" class="cls-11" x1="390" y1="390.77" x2="428.37" y2="390.77"/><path id="Path_231-7" data-name="Path 231" class="cls-12" d="M567.12,709.23v30.2h27.42v-30.2" transform="translate(-171.12 -317.47)"/><line id="Line_6-7" data-name="Line 6" class="cls-13" x1="405" y1="397.77" x2="405" y2="414.66"/><line id="Line_7-7" data-name="Line 7" class="cls-13" x1="414" y1="397.77" x2="414" y2="414.66"/></g><rect class="cls-9" x="359.75" y="471.23" width="100.94" height="100.94" rx="24.55"/><g id="Group_86-8" data-name="Group 86"><line id="Line_4-8" data-name="Line 4" class="cls-11" x1="402" y1="505.77" x2="417" y2="505.77"/><line id="Line_5-8" data-name="Line 5" class="cls-11" x1="390" y1="510.77" x2="428.37" y2="510.77"/><path id="Path_231-8" data-name="Path 231" class="cls-12" d="M567.12,829.23v30.2h27.42v-30.2" transform="translate(-171.12 -317.47)"/><line id="Line_6-8" data-name="Line 6" class="cls-13" x1="405" y1="517.77" x2="405" y2="534.66"/><line id="Line_7-8" data-name="Line 7" class="cls-13" x1="414" y1="517.77" x2="414" y2="534.66"/></g><rect class="cls-9" x="359.75" y="591.23" width="100.94" height="100.94" rx="24.55"/><g id="Group_86-9" data-name="Group 86"><line id="Line_4-9" data-name="Line 4" class="cls-11" x1="402" y1="625.77" x2="417" y2="625.77"/><line id="Line_5-9" data-name="Line 5" class="cls-11" x1="390" y1="630.77" x2="428.37" y2="630.77"/><path id="Path_231-9" data-name="Path 231" class="cls-12" d="M567.12,949.23v30.2h27.42v-30.2" transform="translate(-171.12 -317.47)"/><line id="Line_6-9" data-name="Line 6" class="cls-13" x1="405" y1="637.77" x2="405" y2="654.66"/><line id="Line_7-9" data-name="Line 7" class="cls-13" x1="414" y1="637.77" x2="414" y2="654.66"/></g><rect class="cls-9" x="359.75" y="711.23" width="100.94" height="100.94" rx="24.55"/><g id="Group_86-10" data-name="Group 86"><line id="Line_4-10" data-name="Line 4" class="cls-11" x1="402" y1="745.77" x2="417" y2="745.77"/><line id="Line_5-10" data-name="Line 5" class="cls-11" x1="390" y1="750.77" x2="428.37" y2="750.77"/><path id="Path_231-10" data-name="Path 231" class="cls-12" d="M567.12,1069.23v30.2h27.42v-30.2" transform="translate(-171.12 -317.47)"/><line id="Line_6-10" data-name="Line 6" class="cls-13" x1="405" y1="757.77" x2="405" y2="774.66"/><line id="Line_7-10" data-name="Line 7" class="cls-13" x1="414" y1="757.77" x2="414" y2="774.66"/></g><rect class="cls-9" x="643.75" y="231.23" width="100.94" height="100.94" rx="24.55"/><rect class="cls-9" x="760.75" y="231.23" width="136.13" height="100.94" rx="24.55"/><g id="Group_86-11" data-name="Group 86"><line id="Line_4-11" data-name="Line 4" class="cls-11" x1="686" y1="265.77" x2="701" y2="265.77"/><line id="Line_5-11" data-name="Line 5" class="cls-11" x1="674" y1="270.77" x2="712.37" y2="270.77"/><path id="Path_231-11" data-name="Path 231" class="cls-12" d="M851.12,589.23v30.2h27.42v-30.2" transform="translate(-171.12 -317.47)"/><line id="Line_6-11" data-name="Line 6" class="cls-13" x1="689" y1="277.77" x2="689" y2="294.66"/><line id="Line_7-11" data-name="Line 7" class="cls-13" x1="698" y1="277.77" x2="698" y2="294.66"/></g><rect class="cls-9" x="643.75" y="351.23" width="100.94" height="100.94" rx="24.55"/><rect class="cls-9" x="760.75" y="351.17" width="136.13" height="100.94" rx="24.55"/><rect class="cls-9" x="761.23" y="471.17" width="136.13" height="100.94" rx="24.55"/><rect class="cls-9" x="761.23" y="591.1" width="136.13" height="100.94" rx="24.55"/><rect class="cls-9" x="761.23" y="711.03" width="136.13" height="100.94" rx="24.55"/><g id="Group_86-12" data-name="Group 86"><line id="Line_4-12" data-name="Line 4" class="cls-11" x1="686" y1="385.77" x2="701" y2="385.77"/><line id="Line_5-12" data-name="Line 5" class="cls-11" x1="674" y1="390.77" x2="712.37" y2="390.77"/><path id="Path_231-12" data-name="Path 231" class="cls-12" d="M851.12,709.23v30.2h27.42v-30.2" transform="translate(-171.12 -317.47)"/><line id="Line_6-12" data-name="Line 6" class="cls-13" x1="689" y1="397.77" x2="689" y2="414.66"/><line id="Line_7-12" data-name="Line 7" class="cls-13" x1="698" y1="397.77" x2="698" y2="414.66"/></g><rect class="cls-9" x="643.75" y="471.23" width="100.94" height="100.94" rx="24.55"/><g id="Group_86-13" data-name="Group 86"><line id="Line_4-13" data-name="Line 4" class="cls-11" x1="686" y1="505.77" x2="701" y2="505.77"/><line id="Line_5-13" data-name="Line 5" class="cls-11" x1="674" y1="510.77" x2="712.37" y2="510.77"/><path id="Path_231-13" data-name="Path 231" class="cls-12" d="M851.12,829.23v30.2h27.42v-30.2" transform="translate(-171.12 -317.47)"/><line id="Line_6-13" data-name="Line 6" class="cls-13" x1="689" y1="517.77" x2="689" y2="534.66"/><line id="Line_7-13" data-name="Line 7" class="cls-13" x1="698" y1="517.77" x2="698" y2="534.66"/></g><rect class="cls-9" x="643.75" y="591.23" width="100.94" height="100.94" rx="24.55"/><g id="Group_86-14" data-name="Group 86"><line id="Line_4-14" data-name="Line 4" class="cls-11" x1="686" y1="625.77" x2="701" y2="625.77"/><line id="Line_5-14" data-name="Line 5" class="cls-11" x1="674" y1="630.77" x2="712.37" y2="630.77"/><path id="Path_231-14" data-name="Path 231" class="cls-12" d="M851.12,949.23v30.2h27.42v-30.2" transform="translate(-171.12 -317.47)"/><line id="Line_6-14" data-name="Line 6" class="cls-13" x1="689" y1="637.77" x2="689" y2="654.66"/><line id="Line_7-14" data-name="Line 7" class="cls-13" x1="698" y1="637.77" x2="698" y2="654.66"/></g><rect class="cls-9" x="643.75" y="711.23" width="100.94" height="100.94" rx="24.55"/><g id="Group_86-15" data-name="Group 86"><line id="Line_4-15" data-name="Line 4" class="cls-11" x1="686" y1="745.77" x2="701" y2="745.77"/><line id="Line_5-15" data-name="Line 5" class="cls-11" x1="674" y1="750.77" x2="712.37" y2="750.77"/><path id="Path_231-15" data-name="Path 231" class="cls-12" d="M851.12,1069.23v30.2h27.42v-30.2" transform="translate(-171.12 -317.47)"/><line id="Line_6-15" data-name="Line 6" class="cls-13" x1="689" y1="757.77" x2="689" y2="774.66"/><line id="Line_7-15" data-name="Line 7" class="cls-13" x1="698" y1="757.77" x2="698" y2="774.66"/></g><circle id="Ellipse_32" data-name="Ellipse 32" class="cls-14" cx="1036.35" cy="104.96" r="21.21"/><path id="Path_172" data-name="Path 172" class="cls-15" d="M1208.18,370.1a9.21,9.21,0,0,1,9.19,9.19v23.33a29.49,29.49,0,0,0-11.31-1.41,28.89,28.89,0,0,0-7.07,1.41V379.29A9.21,9.21,0,0,1,1208.18,370.1Z" transform="translate(-171.12 -317.47)"/><rect id="Rectangle_372" data-name="Rectangle 372" class="cls-16" x="1029.33" y="72.88" width="15.5" height="17.05"/><circle id="Ellipse_44" data-name="Ellipse 44" class="cls-15" cx="1035.83" cy="233.12" r="22.64"/><path id="Path_220" data-name="Path 220" class="cls-15" d="M1172.65,518.21a50.26,50.26,0,0,1,34.3-15,43,43,0,0,1,31.84,14.12l-16.63,16.49" transform="translate(-171.12 -317.47)"/><path id="Path_221" data-name="Path 221" class="cls-15" d="M1181,526a32.83,32.83,0,0,1,26-11.5,26.32,26.32,0,0,1,22.64,11.5" transform="translate(-171.12 -317.47)"/><path id="Path_222" data-name="Path 222" class="cls-15" d="M1239.79,581.88a50.26,50.26,0,0,1-34.31,15,43,43,0,0,1-31.84-14.12l16.63-16.48" transform="translate(-171.12 -317.47)"/><path id="Path_223" data-name="Path 223" class="cls-15" d="M1231.47,574.1a32.83,32.83,0,0,1-26,11.51,26.31,26.31,0,0,1-22.64-11.51" transform="translate(-171.12 -317.47)"/><circle id="Ellipse_45" data-name="Ellipse 45" class="cls-16" cx="1035.83" cy="233.12" r="8.49"/><path id="Path_202" data-name="Path 202" class="cls-15" d="M1208.58,641.86l-29.71,36.79a30.8,30.8,0,0,0-3.65,34.75A36.73,36.73,0,0,0,1208.58,735a39.5,39.5,0,0,0,34-19.56,33.25,33.25,0,0,0-2.83-36.78Z" transform="translate(-171.12 -317.47)"/><path id="Path_204" data-name="Path 204" class="cls-10" d="M1209.32,670.16l-15.57,19.28a16.14,16.14,0,0,0-1.91,18.21A19.27,19.27,0,0,0,1209.32,719a20.73,20.73,0,0,0,17.8-10.25,17.65,17.65,0,0,0,2.23-8.9,17.83,17.83,0,0,0-3.71-10.38Z" transform="translate(-171.12 -317.47)"/><path id="Path_194" data-name="Path 194" class="cls-17" d="M1207.5,780.34V824.2l29.3,30.42a42.93,42.93,0,0,0,11.58-19.1c4.83-16.88-2.52-31.07-4.09-33.95A47.79,47.79,0,0,0,1207.5,780.34Z" transform="translate(-171.12 -317.47)"/><circle id="Ellipse_39" data-name="Ellipse 39" class="cls-15" cx="1035.67" cy="506.03" r="43.15"/><polygon class="cls-18" points="991.52 630.17 1009.64 630.17 1035.38 604.95 1035.38 689.6 1009.38 662.03 991.52 662.33 991.52 630.17"/><path class="cls-18" d="M1230.5,933.5a43.26,43.26,0,0,1,13,30c.21,17.91-11.07,29.14-13,31" transform="translate(-171.12 -317.47)"/><path class="cls-19" d="M1221,943a29,29,0,0,1,0,41" transform="translate(-171.12 -317.47)"/><g id="Group_87" data-name="Group 87"><circle id="Ellipse_56" data-name="Ellipse 56" class="cls-20" cx="1032.08" cy="782.35" r="14"/><line id="Line_8" data-name="Line 8" class="cls-21" x1="1032.08" y1="768.35" x2="1032.08" y2="737.45"/><path id="Path_232" data-name="Path 232" class="cls-22" d="M1192.2,1062.82l11,11.57,11.54-11.57" transform="translate(-171.12 -317.47)"/><line id="Line_9" data-name="Line 9" class="cls-21" x1="1044.15" y1="775.32" x2="1070.92" y2="759.87"/><path id="Path_233" data-name="Path 233" class="cls-22" d="M1229.69,1071.76l-4.52,15.31,15.8,4.21" transform="translate(-171.12 -317.47)"/><line id="Line_10" data-name="Line 10" class="cls-21" x1="1032.35" y1="796.35" x2="1032.35" y2="827.25"/><path id="Path_234" data-name="Path 234" class="cls-22" d="M1214.47,1136.82l-11-11.58-11.54,11.58" transform="translate(-171.12 -317.47)"/><line id="Line_11" data-name="Line 11" class="cls-21" x1="1019.36" y1="789.32" x2="992.6" y2="804.78"/><path id="Path_235" data-name="Path 235" class="cls-22" d="M1176.06,1127.82l4.53-15.32-15.8-4.21" transform="translate(-171.12 -317.47)"/><line id="Line_12" data-name="Line 12" class="cls-21" x1="1019.36" y1="774.8" x2="992.6" y2="759.35"/><path id="Path_236" data-name="Path 236" class="cls-22" d="M1165.06,1090.29l15.53-3.73-4.26-15.79" transform="translate(-171.12 -317.47)"/><line id="Line_13" data-name="Line 13" class="cls-21" x1="1044.81" y1="789.83" x2="1071.58" y2="805.28"/><path id="Path_237" data-name="Path 237" class="cls-22" d="M1241.35,1109.27l-15.52,3.73,4.25,15.79" transform="translate(-171.12 -317.47)"/></g></svg>