
<svg id="Layer_3" data-name="Layer 3" xmlns="http://www.w3.org/2000/svg" viewBox="0 0 1157.33 865.88"><defs><style>.cls-1{fill:#e7ece6;}.cls-16,.cls-2{fill:#5da631;}.cls-10,.cls-14,.cls-2{stroke:#5da631;}.cls-10,.cls-11,.cls-12,.cls-13,.cls-14,.cls-15,.cls-16,.cls-17,.cls-19,.cls-2,.cls-20,.cls-26,.cls-5,.cls-6,.cls-7,.cls-8,.cls-9{stroke-linecap:round;}.cls-10,.cls-12,.cls-13,.cls-2,.cls-20,.cls-26,.cls-6,.cls-7,.cls-8,.cls-9{stroke-linejoin:round;}.cls-10,.cls-11,.cls-12,.cls-13,.cls-14,.cls-17,.cls-2,.cls-5,.cls-6,.cls-7,.cls-8,.cls-9{stroke-width:3px;}.cls-12,.cls-18,.cls-20,.cls-3,.cls-8{fill:#60b22f;}.cls-12,.cls-13,.cls-20,.cls-26,.cls-3,.cls-5{stroke:#60b22f;}.cls-11,.cls-14,.cls-15,.cls-17,.cls-3,.cls-5{stroke-miterlimit:10;}.cls-22,.cls-23,.cls-24,.cls-25,.cls-4{fill:#292928;}.cls-10,.cls-11,.cls-13,.cls-14,.cls-15,.cls-17,.cls-26,.cls-5,.cls-6,.cls-7,.cls-9{fill:none;}.cls-6{stroke:#e7ece6;}.cls-11,.cls-7{stroke:#737373;}.cls-17,.cls-8,.cls-9{stroke:#292928;}.cls-15{stroke:#ececec;stroke-width:5px;}.cls-16,.cls-19{stroke:#717070;}.cls-19{fill:#fff;}.cls-21,.cls-22,.cls-23,.cls-24,.cls-25{isolation:isolate;}.cls-22,.cls-23{font-size:53.76px;}.cls-22,.cls-23,.cls-24,.cls-25{font-family:RobotoCondensed-Regular, Roboto Condensed;}.cls-23{letter-spacing:0.16em;}.cls-24{font-size:33.96px;letter-spacing:0.16em;}.cls-25{font-size:73.57px;letter-spacing:0.16em;}.cls-26{stroke-width:17px;}</style></defs><g id="Group_59" data-name="Group 59"><rect id="Rectangle_374" data-name="Rectangle 374" class="cls-1" x="570.18" y="53.77" width="254.66" height="96.21" rx="16.98"/><rect id="Rectangle_375" data-name="Rectangle 375" class="cls-1" x="843.23" y="53.77" width="254.66" height="96.21" rx="16.98"/><rect id="Rectangle_376" data-name="Rectangle 376" class="cls-1" x="288.63" y="380.59" width="254.66" height="96.21" rx="16.98"/><path id="Path_193" data-name="Path 193" class="cls-2" d="M556.38,925.79l5.45-6,5.16,6Z" transform="translate(-219.65 -317.41)"/><path id="Path_194" data-name="Path 194" class="cls-3" d="M450.27,869.2v43.86l30.42,30.42a42.7,42.7,0,0,0,12-19.1c5-16.89-2.61-31.08-4.24-34A50,50,0,0,0,450.27,869.2Z" transform="translate(-219.65 -317.41)"/><rect id="Rectangle_378" data-name="Rectangle 378" class="cls-1" x="288.63" y="213.65" width="396.15" height="96.21" rx="16.98"/><rect id="Rectangle_379" data-name="Rectangle 379" class="cls-1" x="701.75" y="213.65" width="396.15" height="96.21" rx="16.98"/><rect id="Rectangle_380" data-name="Rectangle 380" class="cls-4" x="42.46" y="48.11" width="101.87" height="101.87" rx="16.98"/><rect id="Rectangle_381" data-name="Rectangle 381" class="cls-1" x="42.46" y="377.76" width="101.87" height="101.87" rx="16.98"/><rect id="Rectangle_382" data-name="Rectangle 382" class="cls-1" x="42.46" y="210.82" width="101.87" height="101.87" rx="16.98"/><line id="Line_30" data-name="Line 30" class="cls-5" x1="93.39" y1="78.53" x2="93.39" y2="102.58"/><path id="Path_195" data-name="Path 195" class="cls-6" d="M300.3,403.73a17.66,17.66,0,0,0-4.24,18.39,17.91,17.91,0,0,0,17,11.32c.81,0,9.25-.2,14.15-7.08,4.53-6.34,4.08-15.62-1.41-22.63" transform="translate(-219.65 -317.41)"/><line id="Line_31" data-name="Line 31" class="cls-5" x1="93.39" y1="242.65" x2="93.39" y2="266.7"/><path id="Path_196" data-name="Path 196" class="cls-7" d="M300.3,567.84a17.68,17.68,0,0,0-4.24,18.4,17.91,17.91,0,0,0,17,11.32c.81,0,9.25-.2,14.15-7.08,4.53-6.34,4.08-15.63-1.41-22.64" transform="translate(-219.65 -317.41)"/><line id="Line_32" data-name="Line 32" class="cls-5" x1="91.97" y1="409.6" x2="91.97" y2="433.65"/><path id="Path_197" data-name="Path 197" class="cls-7" d="M298.89,734.79a17.67,17.67,0,0,0-4.25,18.39,17.9,17.9,0,0,0,17,11.32c.8,0,9.24-.2,14.15-7.07,4.52-6.35,4.07-15.63-1.42-22.64" transform="translate(-219.65 -317.41)"/><rect id="Rectangle_383" data-name="Rectangle 383" class="cls-1" x="41.04" y="543.3" width="101.87" height="101.87" rx="16.98"/><line id="Line_33" data-name="Line 33" class="cls-5" x1="90.56" y1="575.13" x2="90.56" y2="599.18"/><path id="Path_198" data-name="Path 198" class="cls-7" d="M297.47,900.32a17.7,17.7,0,0,0-4.24,18.4,17.89,17.89,0,0,0,17,11.31c.81,0,9.25-.19,14.15-7.07,4.53-6.34,4.08-15.63-1.41-22.64" transform="translate(-219.65 -317.41)"/><circle id="Ellipse_38" data-name="Ellipse 38" class="cls-8" cx="229.21" cy="114.61" r="21.22"/><path id="Path_199" data-name="Path 199" class="cls-9" d="M449.56,379.68a9.22,9.22,0,0,1,9.2,9.19v23.35a29.38,29.38,0,0,0-11.32-1.42,28.9,28.9,0,0,0-7.07,1.42V388.87A9.21,9.21,0,0,1,449.56,379.68Z" transform="translate(-219.65 -317.41)"/><rect id="Rectangle_384" data-name="Rectangle 384" class="cls-10" x="288.63" y="52.36" width="263.15" height="94.79" rx="16.98"/><path id="Path_200" data-name="Path 200" class="cls-7" d="M544.36,399.48v24h33.1v-24" transform="translate(-219.65 -317.41)"/><path id="Path_201" data-name="Path 201" class="cls-7" d="M810.34,396v36h33.1V396" transform="translate(-219.65 -317.41)"/><line id="Line_34" data-name="Line 34" class="cls-5" x1="324.72" y1="114.61" x2="357.81" y2="114.61"/><line id="Line_35" data-name="Line 35" class="cls-11" x1="854.55" y1="103.29" x2="854.55" y2="117.65"/><line id="Line_36" data-name="Line 36" class="cls-11" x1="864.46" y1="96.22" x2="864.46" y2="117.65"/><line id="Line_37" data-name="Line 37" class="cls-5" x1="875.77" y1="89.85" x2="875.77" y2="117.65"/><line id="Line_38" data-name="Line 38" class="cls-11" x1="885.68" y1="82.78" x2="885.68" y2="117.65"/><path id="Path_202" data-name="Path 202" class="cls-9" d="M448.86,699.42l-29.72,36.79A30.82,30.82,0,0,0,415.49,771a36.73,36.73,0,0,0,33.37,21.59A39.5,39.5,0,0,0,482.81,773,33.25,33.25,0,0,0,480,736.21Z" transform="translate(-219.65 -317.41)"/><path id="Path_203" data-name="Path 203" class="cls-12" d="M576.1,739l-11.51,14.25a11.93,11.93,0,0,0-1.42,13.46,14.22,14.22,0,0,0,12.93,8.36,15.32,15.32,0,0,0,13.16-7.57A13,13,0,0,0,590.9,761a13.18,13.18,0,0,0-2.74-7.68Z" transform="translate(-219.65 -317.41)"/><path id="Path_204" data-name="Path 204" class="cls-12" d="M449.59,727.72,434,747a16.14,16.14,0,0,0-1.91,18.21,19.25,19.25,0,0,0,17.48,11.32,20.73,20.73,0,0,0,17.8-10.25,17.65,17.65,0,0,0,2.23-8.9A17.83,17.83,0,0,0,465.91,747Z" transform="translate(-219.65 -317.41)"/><rect id="Rectangle_385" data-name="Rectangle 385" class="cls-1" x="567.35" y="379.18" width="254.66" height="96.21" rx="16.98"/><rect id="Rectangle_386" data-name="Rectangle 386" class="cls-1" x="846.06" y="377.76" width="254.66" height="96.21" rx="16.98"/><rect id="Rectangle_387" data-name="Rectangle 387" class="cls-1" x="288.63" y="541.88" width="254.66" height="96.21" rx="16.98"/><rect id="Rectangle_388" data-name="Rectangle 388" class="cls-1" x="567.35" y="540.47" width="254.66" height="96.21" rx="16.98"/><rect id="Rectangle_389" data-name="Rectangle 389" class="cls-1" x="846.06" y="539.05" width="254.66" height="96.21" rx="16.98"/><line id="Line_39" data-name="Line 39" class="cls-11" x1="325.42" y1="403.23" x2="325.42" y2="424.67"/><line id="Line_40" data-name="Line 40" class="cls-11" x1="335.32" y1="400.4" x2="335.32" y2="426.99"/><line id="Line_41" data-name="Line 41" class="cls-11" x1="343.81" y1="407.47" x2="343.81" y2="421.62"/><path id="Path_205" data-name="Path 205" class="cls-7" d="M536.12,731.36l.45,28.9a12.83,12.83,0,0,0,4.25,7.07,13.15,13.15,0,0,0,9.9,2.83" transform="translate(-219.65 -317.41)"/><path id="Path_206" data-name="Path 206" class="cls-13" d="M839.27,727.91l-5,6.2a5.19,5.19,0,0,0-.62,5.86,6.18,6.18,0,0,0,5.63,3.63,6.65,6.65,0,0,0,5.72-3.29,5.63,5.63,0,0,0,.72-2.86,5.76,5.76,0,0,0-1.2-3.34Z" transform="translate(-219.65 -317.41)"/><path id="Path_207" data-name="Path 207" class="cls-13" d="M840.68,752l-5,6.2a5.19,5.19,0,0,0-.61,5.86,6.2,6.2,0,0,0,5.62,3.64,6.69,6.69,0,0,0,5.73-3.3,5.63,5.63,0,0,0-.48-6.2Z" transform="translate(-219.65 -317.41)"/><path id="Path_208" data-name="Path 208" class="cls-13" d="M823.7,740.64l-5,6.2a5.2,5.2,0,0,0-.62,5.86,6.2,6.2,0,0,0,5.62,3.64,6.68,6.68,0,0,0,5.73-3.3,5.6,5.6,0,0,0,.71-2.86,5.71,5.71,0,0,0-1.19-3.34Z" transform="translate(-219.65 -317.41)"/><path id="Path_209" data-name="Path 209" class="cls-7" d="M1086.62,728.43v35.15h33.1V728.43" transform="translate(-219.65 -317.41)"/><path id="Path_210" data-name="Path 210" class="cls-7" d="M1085.21,889.71v35.16h33.09V889.71" transform="translate(-219.65 -317.41)"/><line id="Line_42" data-name="Line 42" class="cls-11" x1="887.09" y1="435.77" x2="893.72" y2="435.77"/><line id="Line_43" data-name="Line 43" class="cls-11" x1="887.09" y1="428.7" x2="893.72" y2="428.7"/><line id="Line_44" data-name="Line 44" class="cls-14" x1="887.09" y1="421.62" x2="893.72" y2="421.62"/><line id="Line_45" data-name="Line 45" class="cls-15" x1="8.35" y1="181.11" x2="1148.35" y2="181.11"/><line id="Line_46" data-name="Line 46" class="cls-15" x1="8.35" y1="512.17" x2="1148.35" y2="512.17"/><line id="Line_47" data-name="Line 47" class="cls-15" x1="8.35" y1="345.22" x2="1148.35" y2="345.22"/><line id="Line_48" data-name="Line 48" class="cls-15" x1="8.35" y1="671.34" x2="1148.35" y2="671.34"/><line id="Line_49" data-name="Line 49" class="cls-15" x1="288.63" y1="671.34" x2="288.63" y2="857.59"/><line id="Line_50" data-name="Line 50" class="cls-15" x1="580.08" y1="673.58" x2="579.65" y2="857.59"/><line id="Line_51" data-name="Line 51" class="cls-15" x1="870.12" y1="671.34" x2="870.12" y2="856.84"/><circle id="Ellipse_39" data-name="Ellipse 39" class="cls-9" cx="229.92" cy="594.94" r="43.15"/><path id="Path_211" data-name="Path 211" class="cls-16" d="M541.52,960.45" transform="translate(-219.65 -317.41)"/><path id="Path_212" data-name="Path 212" class="cls-7" d="M545.06,890.42h32.37l-32.37,38,34,.2Z" transform="translate(-219.65 -317.41)"/><circle id="Ellipse_40" data-name="Ellipse 40" class="cls-7" cx="610.5" cy="592.11" r="16.27"/><line id="Line_52" data-name="Line 52" class="cls-5" x1="610.5" y1="592.11" x2="616.87" y2="585.74"/><path id="Path_213" data-name="Path 213" class="cls-13" d="M1109.57,904.57l-7.08,9.9-9.9-12.73" transform="translate(-219.65 -317.41)"/><line id="Line_53" data-name="Line 53" class="cls-17" x1="110.37" y1="758.35" x2="110.37" y2="738.74"/><path id="Path_215" data-name="Path 215" class="cls-9" d="M344.87,1056H314.45l16.06-21.85Z" transform="translate(-219.65 -317.41)"/><circle id="Ellipse_41" data-name="Ellipse 41" class="cls-18" cx="396.16" cy="745.61" r="7.07"/><circle id="Ellipse_42" data-name="Ellipse 42" class="cls-18" cx="396.16" cy="772.49" r="7.07"/><circle id="Ellipse_43" data-name="Ellipse 43" class="cls-18" cx="396.16" cy="799.38" r="7.07"/><line id="Line_54" data-name="Line 54" class="cls-17" x1="411.72" y1="745.61" x2="462.28" y2="745.61"/><line id="Line_55" data-name="Line 55" class="cls-17" x1="411.72" y1="772.49" x2="451.72" y2="772.49"/><line id="Line_56" data-name="Line 56" class="cls-17" x1="411.72" y1="799.38" x2="445.53" y2="799.38"/><line id="Line_57" data-name="Line 57" class="cls-17" x1="967.17" y1="715.69" x2="967.17" y2="735.5"/><path id="Path_217" data-name="Path 217" class="cls-9" d="M1172.6,1053.2H1203l-16,21.85Z" transform="translate(-219.65 -317.41)"/><path id="Path_218" data-name="Path 218" class="cls-19" d="M449.56,402.31" transform="translate(-219.65 -317.41)"/><path id="Path_219" data-name="Path 219" class="cls-19" d="M449.56,402.31" transform="translate(-219.65 -317.41)"/><circle id="Ellipse_44" data-name="Ellipse 44" class="cls-9" cx="227.79" cy="263.16" r="22.64"/><path id="Path_220" data-name="Path 220" class="cls-9" d="M413.13,548.21a50.26,50.26,0,0,1,34.31-15,43,43,0,0,1,31.83,14.12l-16.62,16.48" transform="translate(-219.65 -317.41)"/><path id="Path_221" data-name="Path 221" class="cls-9" d="M421.44,556a32.9,32.9,0,0,1,26-11.51A26.36,26.36,0,0,1,470.08,556" transform="translate(-219.65 -317.41)"/><path id="Path_222" data-name="Path 222" class="cls-9" d="M480.27,611.88a50.21,50.21,0,0,1-34.31,15,43,43,0,0,1-31.83-14.11l16.62-16.48" transform="translate(-219.65 -317.41)"/><path id="Path_223" data-name="Path 223" class="cls-9" d="M472,604.1a32.87,32.87,0,0,1-26,11.51,26.31,26.31,0,0,1-22.63-11.51" transform="translate(-219.65 -317.41)"/><circle id="Ellipse_45" data-name="Ellipse 45" class="cls-18" cx="227.79" cy="263.16" r="8.49"/><line id="Line_58" data-name="Line 58" class="cls-5" x1="321.88" y1="252.55" x2="358.82" y2="252.55"/><line id="Line_59" data-name="Line 59" class="cls-11" x1="321.88" y1="262.46" x2="348.76" y2="262.46"/><line id="Line_60" data-name="Line 60" class="cls-11" x1="321.88" y1="273.07" x2="340.27" y2="273.07"/><path id="Path_224" data-name="Path 224" class="cls-7" d="M973.75,569.26a16,16,0,0,0-17-5.66,16.52,16.52,0,1,0,17,26.88" transform="translate(-219.65 -317.41)"/><circle id="Ellipse_46" data-name="Ellipse 46" class="cls-13" cx="741.37" cy="261.75" r="7.07"/><line id="Line_61" data-name="Line 61" class="cls-5" x1="615.88" y1="91.27" x2="615.88" y2="108.2"/><path id="Path_225" data-name="Path 225" class="cls-20" d="M556.38,925.79H567l-5.16-6Z" transform="translate(-219.65 -317.41)"/><rect id="Rectangle_390" data-name="Rectangle 390" class="cls-18" x="221.91" y="84.19" width="15.95" height="15.56"/><g id="_0-4" data-name=" 0-4" class="cls-21"><text class="cls-22" transform="translate(384.84 117.44)">0</text><text class="cls-22" transform="translate(384.84 117.44)">0</text></g><g id="_0-5" data-name=" 0-5" class="cls-21"><text class="cls-22" transform="translate(384.84 281.56)">0</text><text class="cls-22" transform="translate(384.84 281.56)">0</text></g><g id="_0-6" data-name=" 0-6" class="cls-21"><text class="cls-22" transform="translate(793.72 281.56)">0</text><text class="cls-22" transform="translate(793.72 281.56)">0</text></g><g id="_0-7" data-name=" 0-7" class="cls-21"><text class="cls-22" transform="translate(657.89 117.44)">0</text><text class="cls-22" transform="translate(657.89 117.44)">0</text></g><g id="_0-8" data-name=" 0-8" class="cls-21"><text class="cls-22" transform="translate(657.89 451.33)">0</text><text class="cls-22" transform="translate(657.89 451.33)">0</text></g><g id="_0.0-2" data-name=" 0.0-2" class="cls-21"><text class="cls-23" transform="translate(932.37 451.33)">0.0</text><text class="cls-23" transform="translate(932.37 451.33)">0.0</text></g><g id="_00:00:00-3" data-name=" 00:00:00-3" class="cls-21"><text class="cls-24" transform="translate(374.93 604.13)">00:00:00</text><text class="cls-24" transform="translate(374.93 604.13)">00:00:00</text></g><g id="_00:00:00-4" data-name=" 00:00:00-4" class="cls-21"><text class="cls-24" transform="translate(928.12 602.72)">00:00:00</text><text class="cls-24" transform="translate(928.12 602.72)">00:00:00</text></g><g id="_00:00-2" data-name=" 00:00-2" class="cls-21"><text class="cls-24" transform="translate(669.21 602.72)">00:00</text><text class="cls-24" transform="translate(669.21 602.72)">00:00</text></g><g id="_00:00-3" data-name=" 00:00-3" class="cls-21"><text class="cls-25" transform="translate(623.94 793.72)">00:00</text><text class="cls-25" transform="translate(623.94 793.72)">00:00</text></g><g id="_0-9" data-name=" 0-9" class="cls-21"><text class="cls-22" transform="translate(912.56 117.44)">0</text><text class="cls-22" transform="translate(912.56 117.44)">0</text></g><rect id="Rectangle_377" data-name="Rectangle 377" class="cls-26" x="8.5" y="8.5" width="1140.33" height="848.88"/><path id="Path_192" data-name="Path 192" class="cls-18" d="M1191.82,1090l87.51-.28-43.45,44.9Z" transform="translate(-219.65 -317.41)"/><path class="cls-9" d="M313.32,1087.5l19,0,46.42,46.42,49-49L372,1029.14" transform="translate(-219.65 -317.41)"/><path class="cls-9" d="M1170.24,1088.19l19,0,46.41,46.41,49-49q-27.89-27.88-55.76-55.76" transform="translate(-219.65 -317.41)"/></g></svg>