<svg id="Layer_2" data-name="Layer 2" xmlns="http://www.w3.org/2000/svg" viewBox="0 0 1158.86 865.53"><defs><style>.cls-1{fill:#e7ece6;}.cls-13,.cls-2,.cls-3,.cls-6{fill:#60b22f;}.cls-2,.cls-3,.cls-4,.cls-8{stroke:#60b22f;}.cls-10,.cls-11,.cls-12,.cls-14,.cls-15,.cls-2,.cls-20,.cls-4,.cls-5,.cls-6,.cls-7,.cls-8,.cls-9{stroke-linecap:round;}.cls-2,.cls-20,.cls-5,.cls-6,.cls-7,.cls-8{stroke-linejoin:round;}.cls-10,.cls-14,.cls-2,.cls-4,.cls-5,.cls-6,.cls-7,.cls-8,.cls-9{stroke-width:3px;}.cls-10,.cls-11,.cls-14,.cls-3,.cls-4,.cls-9{stroke-miterlimit:10;}.cls-10,.cls-11,.cls-14,.cls-20,.cls-4,.cls-5,.cls-7,.cls-8,.cls-9{fill:none;}.cls-10,.cls-5{stroke:#737373;}.cls-14,.cls-6,.cls-7{stroke:#292928;}.cls-20,.cls-9{stroke:#5da631;}.cls-11{stroke:#ececec;stroke-width:5px;}.cls-12{fill:#5da631;}.cls-12,.cls-15{stroke:#717070;}.cls-15{fill:#fff;}.cls-16,.cls-17,.cls-18,.cls-19{isolation:isolate;}.cls-17,.cls-18{font-size:53.74px;}.cls-17,.cls-18,.cls-19{fill:#292928;font-family:RobotoCondensed-Regular, Roboto Condensed;}.cls-18{letter-spacing:0.16em;}.cls-19{font-size:33.94px;letter-spacing:0.16em;}.cls-20{stroke-width:17px;}</style></defs><g id="Group_58" data-name="Group 58"><rect id="Rectangle_361" data-name="Rectangle 361" class="cls-1" x="302.66" y="516.21" width="254.56" height="96.17" rx="16.97"/><rect id="Rectangle_362" data-name="Rectangle 362" class="cls-1" x="575.6" y="516.21" width="254.56" height="96.17" rx="16.97"/><rect id="Rectangle_363" data-name="Rectangle 363" class="cls-1" x="845.72" y="516.21" width="254.56" height="96.17" rx="16.97"/><path id="Path_167" data-name="Path 167" class="cls-2" d="M430.24,745.32l5.44-6,5.16,6Z" transform="translate(-93.64 -164.06)"/><path id="Path_168" data-name="Path 168" class="cls-3" d="M324.17,685.93v43.84l30.41,30.4a42.7,42.7,0,0,0,12-19.09c5-16.87-2.62-31.06-4.25-33.94A50,50,0,0,0,324.17,685.93Z" transform="translate(-93.64 -164.06)"/><rect id="Rectangle_364" data-name="Rectangle 364" class="cls-1" x="301.24" y="292.76" width="254.56" height="96.17" rx="16.97"/><rect id="Rectangle_365" data-name="Rectangle 365" class="cls-1" x="708.54" y="72.14" width="390.33" height="97.58" rx="16.97"/><rect id="Rectangle_366" data-name="Rectangle 366" class="cls-1" x="42.44" y="70.73" width="101.82" height="101.82" rx="16.97"/><rect id="Rectangle_367" data-name="Rectangle 367" class="cls-1" x="42.44" y="513.38" width="101.82" height="101.82" rx="16.97"/><rect id="Rectangle_368" data-name="Rectangle 368" class="cls-1" x="42.44" y="291.34" width="101.82" height="101.82" rx="16.97"/><line id="Line_3" data-name="Line 3" class="cls-4" x1="93.35" y1="101.13" x2="93.35" y2="125.17"/><path id="Path_169" data-name="Path 169" class="cls-5" d="M174.26,273A17.68,17.68,0,0,0,170,291.36a17.89,17.89,0,0,0,17,11.31c.8,0,9.24-.2,14.14-7.07,4.53-6.34,4.08-15.62-1.41-22.63" transform="translate(-93.64 -164.06)"/><line id="Line_4" data-name="Line 4" class="cls-4" x1="93.35" y1="323.16" x2="93.35" y2="347.21"/><path id="Path_170" data-name="Path 170" class="cls-5" d="M174.26,495A17.66,17.66,0,0,0,170,513.39a17.91,17.91,0,0,0,17,11.32c.8,0,9.24-.2,14.14-7.08,4.53-6.34,4.08-15.62-1.41-22.62" transform="translate(-93.64 -164.06)"/><line id="Line_5" data-name="Line 5" class="cls-4" x1="91.94" y1="545.2" x2="91.94" y2="569.24"/><path id="Path_171" data-name="Path 171" class="cls-5" d="M172.85,717a17.67,17.67,0,0,0-4.24,18.38,17.87,17.87,0,0,0,17,11.32c.8,0,9.24-.2,14.14-7.07,4.52-6.34,4.07-15.63-1.42-22.63" transform="translate(-93.64 -164.06)"/><circle id="Ellipse_32" data-name="Ellipse 32" class="cls-6" cx="229.12" cy="137.19" r="21.21"/><path id="Path_172" data-name="Path 172" class="cls-7" d="M323.46,248.93a9.23,9.23,0,0,1,9.2,9.2v23.33a29.16,29.16,0,0,0-18.39,0V258.13A9.22,9.22,0,0,1,323.46,248.93Z" transform="translate(-93.64 -164.06)"/><rect id="Rectangle_369" data-name="Rectangle 369" class="cls-8" x="301.24" y="72.14" width="390.33" height="97.58" rx="16.97"/><path id="Path_173" data-name="Path 173" class="cls-5" d="M418.22,268.73v24h33.09v-24" transform="translate(-93.64 -164.06)"/><line id="Line_6" data-name="Line 6" class="cls-9" x1="324.59" y1="137.19" x2="357.67" y2="137.19"/><line id="Line_7" data-name="Line 7" class="cls-10" x1="729.75" y1="123.05" x2="729.75" y2="137.4"/><line id="Line_8" data-name="Line 8" class="cls-10" x1="739.65" y1="115.98" x2="739.65" y2="137.4"/><line id="Line_9" data-name="Line 9" class="cls-4" x1="750.97" y1="109.62" x2="750.97" y2="137.4"/><line id="Line_10" data-name="Line 10" class="cls-10" x1="760.87" y1="102.55" x2="760.87" y2="137.4"/><path id="Path_174" data-name="Path 174" class="cls-7" d="M322.76,459.65l-29.7,36.77a30.81,30.81,0,0,0-3.66,34.74,36.74,36.74,0,0,0,33.36,21.58,39.5,39.5,0,0,0,33.94-19.55,33.25,33.25,0,0,0-2.83-36.77Z" transform="translate(-93.64 -164.06)"/><path id="Path_175" data-name="Path 175" class="cls-2" d="M450,497.84l-11.51,14.24A11.92,11.92,0,0,0,437,525.54,14.21,14.21,0,0,0,450,533.9a15.32,15.32,0,0,0,13.15-7.57,12.88,12.88,0,0,0-1.1-14.24Z" transform="translate(-93.64 -164.06)"/><path id="Path_176" data-name="Path 176" class="cls-2" d="M323.5,487.94l-15.57,19.27a16.15,16.15,0,0,0-1.92,18.2,19.28,19.28,0,0,0,17.49,11.32,20.72,20.72,0,0,0,17.79-10.25,17.42,17.42,0,0,0-1.49-19.27Z" transform="translate(-93.64 -164.06)"/><rect id="Rectangle_370" data-name="Rectangle 370" class="cls-1" x="574.19" y="292.76" width="254.56" height="96.17" rx="16.97"/><rect id="Rectangle_371" data-name="Rectangle 371" class="cls-1" x="844.3" y="292.76" width="254.56" height="96.17" rx="16.97"/><line id="Line_11" data-name="Line 11" class="cls-10" x1="325.29" y1="315.39" x2="325.29" y2="336.82"/><line id="Line_12" data-name="Line 12" class="cls-10" x1="335.19" y1="312.56" x2="335.19" y2="339.14"/><line id="Line_13" data-name="Line 13" class="cls-10" x1="343.67" y1="319.63" x2="343.67" y2="333.77"/><path id="Path_177" data-name="Path 177" class="cls-5" d="M410,490.17l.45,28.88a12.87,12.87,0,0,0,4.24,7.07,13.24,13.24,0,0,0,9.9,2.83" transform="translate(-93.64 -164.06)"/><path id="Path_178" data-name="Path 178" class="cls-8" d="M713,486.71l-5,6.2a5.2,5.2,0,0,0-.62,5.85A6.2,6.2,0,0,0,713,502.4a6.67,6.67,0,0,0,5.72-3.29,5.62,5.62,0,0,0,.71-2.86,5.71,5.71,0,0,0-1.19-3.34Z" transform="translate(-93.64 -164.06)"/><path id="Path_179" data-name="Path 179" class="cls-8" d="M714.42,510.75l-5,6.2a5.2,5.2,0,0,0-.62,5.86,6.17,6.17,0,0,0,5.62,3.63,6.66,6.66,0,0,0,5.72-3.29,5.61,5.61,0,0,0,.72-2.86,5.78,5.78,0,0,0-1.19-3.34Z" transform="translate(-93.64 -164.06)"/><path id="Path_180" data-name="Path 180" class="cls-8" d="M697.45,499.44l-5,6.2a5.18,5.18,0,0,0-.62,5.85,6.2,6.2,0,0,0,5.62,3.64,6.66,6.66,0,0,0,5.72-3.29,5.6,5.6,0,0,0-.47-6.2Z" transform="translate(-93.64 -164.06)"/><path id="Path_181" data-name="Path 181" class="cls-5" d="M960.26,487.23v35.14h33.08V487.23" transform="translate(-93.64 -164.06)"/><path id="Path_182" data-name="Path 182" class="cls-5" d="M958.85,707.85V743h33.08V707.85" transform="translate(-93.64 -164.06)"/><line id="Line_14" data-name="Line 14" class="cls-10" x1="886.73" y1="347.91" x2="893.36" y2="347.91"/><line id="Line_15" data-name="Line 15" class="cls-10" x1="886.73" y1="340.84" x2="893.36" y2="340.84"/><line id="Line_16" data-name="Line 16" class="cls-4" x1="886.73" y1="333.77" x2="893.36" y2="333.77"/><line id="Line_17" data-name="Line 17" class="cls-11" x1="8.44" y1="232.36" x2="1146.36" y2="232.36"/><line id="Line_18" data-name="Line 18" class="cls-11" x1="8.44" y1="451.57" x2="1146.36" y2="451.57"/><line id="Line_19" data-name="Line 19" class="cls-11" x1="18.44" y1="670.36" x2="1156.36" y2="670.36"/><line id="Line_20" data-name="Line 20" class="cls-11" x1="288.51" y1="671.06" x2="288.08" y2="862.94"/><line id="Line_21" data-name="Line 21" class="cls-11" x1="579.84" y1="671.06" x2="579.41" y2="862.94"/><line id="Line_22" data-name="Line 22" class="cls-11" x1="869.76" y1="671.06" x2="869.33" y2="862.94"/><circle id="Ellipse_33" data-name="Ellipse 33" class="cls-7" cx="229.83" cy="565" r="43.13"/><path id="Path_183" data-name="Path 183" class="cls-12" d="M415.39,806.84" transform="translate(-93.64 -164.06)"/><path id="Path_184" data-name="Path 184" class="cls-5" d="M418.92,708.55h32.36l-32.36,38,33.94.2Z" transform="translate(-93.64 -164.06)"/><circle id="Ellipse_34" data-name="Ellipse 34" class="cls-5" cx="610.25" cy="563.58" r="16.26"/><line id="Line_23" data-name="Line 23" class="cls-4" x1="610.25" y1="563.58" x2="616.62" y2="557.22"/><path id="Path_185" data-name="Path 185" class="cls-8" d="M983.2,722.7l-7.07,9.9-9.9-12.73" transform="translate(-93.64 -164.06)"/><path id="Path_187" data-name="Path 187" class="cls-7" d="M225.88,895.23h-30.4l16.05-21.84Z" transform="translate(-93.64 -164.06)"/><circle id="Ellipse_35" data-name="Ellipse 35" class="cls-13" cx="396" cy="735.41" r="7.07"/><circle id="Ellipse_36" data-name="Ellipse 36" class="cls-13" cx="396" cy="762.28" r="7.07"/><circle id="Ellipse_37" data-name="Ellipse 37" class="cls-13" cx="396" cy="789.15" r="7.07"/><line id="Line_25" data-name="Line 25" class="cls-14" x1="411.55" y1="735.41" x2="462.09" y2="735.41"/><line id="Line_26" data-name="Line 26" class="cls-14" x1="411.55" y1="762.28" x2="451.54" y2="762.28"/><line id="Line_27" data-name="Line 27" class="cls-14" x1="411.55" y1="789.15" x2="445.35" y2="789.15"/><line id="Line_28" data-name="Line 28" class="cls-14" x1="966.77" y1="711.33" x2="966.63" y2="728.22"/><path id="Path_189" data-name="Path 189" class="cls-7" d="M1046.2,892.48h30.4l-16,21.84Z" transform="translate(-93.64 -164.06)"/><path id="Path_190" data-name="Path 190" class="cls-15" d="M323.46,248.93" transform="translate(-93.64 -164.06)"/><path id="Path_191" data-name="Path 191" class="cls-15" d="M323.46,248.93" transform="translate(-93.64 -164.06)"/><line id="Line_29" data-name="Line 29" class="cls-14" x1="117.18" y1="731.95" x2="117.04" y2="748.84"/><g id="_0" data-name=" 0" class="cls-16"><text class="cls-17" transform="translate(390.34 137.2)">0</text></g><g id="_0-2" data-name=" 0-2" class="cls-16"><text class="cls-17" transform="translate(793.39 137.2)">0</text></g><g id="_0-3" data-name=" 0-3" class="cls-16"><text class="cls-17" transform="translate(660.46 362.06)">0</text></g><g id="_0.0" data-name=" 0.0" class="cls-16"><text class="cls-18" transform="translate(926.33 362.06)">0.0</text></g><g id="_00:00:00" data-name=" 00:00:00" class="cls-16"><text class="cls-19" transform="translate(374.78 577.02)">00:00:00</text></g><g id="_00:00:00-2" data-name=" 00:00:00-2" class="cls-16"><text class="cls-19" transform="translate(917.84 577.02)">00:00:00</text></g><g id="_00:00" data-name=" 00:00" class="cls-16"><text class="cls-19" transform="translate(671.67 577.02)">00:00</text></g><rect id="Rectangle_359" data-name="Rectangle 359" class="cls-20" x="8.5" y="8.5" width="1139.86" height="848.53"/></g><rect id="Rectangle_372" data-name="Rectangle 372" class="cls-13" x="222.08" y="106.75" width="15.5" height="17.05"/><path id="Path_192" data-name="Path 192" class="cls-13" d="M1071.43,930l87.52-.28-43.45,44.9Z" transform="translate(-93.64 -164.06)"/><path class="cls-7" d="M192.93,927.5l19,0,46.41,46.42,49-49-55.76-55.77" transform="translate(-93.64 -164.06)"/><path class="cls-7" d="M1049.86,928.19l19,0,46.42,46.41,49-49-55.76-55.76" transform="translate(-93.64 -164.06)"/></svg>