<svg id="knappanel" xmlns="http://www.w3.org/2000/svg" width="433.087" height="324" viewBox="0 0 433.087 324">
  <rect id="Rectangle_409" data-name="Rectangle 409" width="431.087" height="322" rx="5" transform="translate(1 1)" fill="#fff" stroke="#000" stroke-linejoin="round" stroke-miterlimit="10" stroke-width="2"/>
  <circle id="Ellipse_58" data-name="Ellipse 58" cx="34.501" cy="34.501" r="34.501" transform="translate(325.345 209.374)" fill="#292928" stroke="#000" stroke-linejoin="round" stroke-miterlimit="10" stroke-width="1"/>
  <circle id="Ellipse_59" data-name="Ellipse 59" cx="47.973" cy="47.973" r="47.973" transform="translate(28.598 68.028)" fill="#fff"/>
  <circle id="Ellipse_60" data-name="Ellipse 60" cx="47.973" cy="47.973" r="47.973" transform="translate(28.598 68.028)" fill="none" stroke="#292928" stroke-linejoin="round" stroke-miterlimit="10" stroke-width="2"/>
  <circle id="Ellipse_61" data-name="Ellipse 61" cx="32.527" cy="32.527" r="32.527" transform="translate(43.716 83.801)" fill="#fff" stroke="#292928" stroke-linejoin="round" stroke-miterlimit="10" stroke-width="2" style="isolation: isolate"/>
  <line id="Line_3" data-name="Line 3" y2="25.091" transform="translate(75.497 104.253)" fill="none" stroke="#292928" stroke-miterlimit="10" stroke-width="6" style="isolation: isolate"/>
  <circle id="Ellipse_62" data-name="Ellipse 62" cx="47.973" cy="47.973" r="47.973" transform="translate(169.885 67.37)" fill="#fff"/>
  <circle id="Ellipse_63" data-name="Ellipse 63" cx="47.973" cy="47.973" r="47.973" transform="translate(169.885 67.37)" fill="none" stroke="#292928" stroke-linejoin="round" stroke-miterlimit="10" stroke-width="2"/>
  <circle id="Ellipse_64" data-name="Ellipse 64" cx="31.873" cy="31.873" r="31.873" transform="translate(186.312 83.797)" fill="#292928" stroke="#292928" stroke-linejoin="round" stroke-miterlimit="10" stroke-width="1"/>
  <circle id="Ellipse_65" data-name="Ellipse 65" cx="16.758" cy="16.758" r="16.758" transform="translate(201.427 98.258)" fill="#fff"/>
  <circle id="Ellipse_66" data-name="Ellipse 66" cx="8.543" cy="8.543" r="8.543" transform="translate(209.973 106.801)" fill="#292928" stroke="#292928" stroke-linejoin="round" stroke-miterlimit="10" stroke-width="1"/>
  <circle id="Ellipse_67" data-name="Ellipse 67" cx="47.973" cy="47.973" r="47.973" transform="translate(309.855 66.712)" fill="#fff"/>
  <circle id="Ellipse_68" data-name="Ellipse 68" cx="47.973" cy="47.973" r="47.973" transform="translate(309.855 66.712)" fill="none" stroke="#292928" stroke-linejoin="round" stroke-miterlimit="10" stroke-width="2"/>
  <circle id="Ellipse_69" data-name="Ellipse 69" cx="32.527" cy="32.527" r="32.527" transform="translate(324.974 82.489)" fill="#fff" stroke="#292928" stroke-linejoin="round" stroke-miterlimit="10" stroke-width="2" style="isolation: isolate"/>
  <circle id="Ellipse_70" data-name="Ellipse 70" cx="14.784" cy="14.784" r="14.784" transform="translate(342.386 97.931)" fill="none" stroke="#292928" stroke-linejoin="round" stroke-miterlimit="10" stroke-width="2" style="isolation: isolate"/>
  <line id="Line_4" data-name="Line 4" x2="29.572" transform="translate(342.386 112.715)" fill="none" stroke="#292928" stroke-miterlimit="10" stroke-width="2" style="isolation: isolate"/>
  <line id="Line_5" data-name="Line 5" y2="14.755" transform="translate(357.17 112.744)" fill="none" stroke="#292928" stroke-miterlimit="10" stroke-width="2" style="isolation: isolate"/>
  <ellipse id="Ellipse_71" data-name="Ellipse 71" cx="46.984" cy="50.763" rx="46.984" ry="50.763" transform="translate(33.858 192.23)" fill="#292928"/>
  <ellipse id="Ellipse_72" data-name="Ellipse 72" cx="46.984" cy="50.763" rx="46.984" ry="50.763" transform="translate(33.858 192.23)" fill="none" stroke="#000" stroke-linejoin="round" stroke-miterlimit="10" stroke-width="1"/>
  <ellipse id="Ellipse_73" data-name="Ellipse 73" cx="40.261" cy="42.584" rx="40.261" ry="42.584" transform="translate(41.063 200.361)" fill="#292928"/>
  <ellipse id="Ellipse_74" data-name="Ellipse 74" cx="40.261" cy="42.584" rx="40.261" ry="42.584" transform="translate(41.063 200.361)" fill="none" stroke="#fff" stroke-linejoin="round" stroke-miterlimit="10" stroke-width="6"/>
  <path id="Path_239" data-name="Path 239" d="M138.1,654.963V638.58l9.656,16.339V638.58" transform="translate(-86.705 -403.218)" fill="none" stroke="#fff" stroke-linecap="round" stroke-linejoin="round" stroke-width="5"/>
  <path id="Path_240" data-name="Path 240" d="M224.24,653.963V637.58H228.9a6.083,6.083,0,0,1,2.279,1.551c1.1,1.253,1.989,3.308,0,5.26a13.581,13.581,0,0,1-2.279,1.378c-8.565.265-2.323.592-2.323.592l7.035,7.6" transform="translate(-140.887 -402.218)" fill="none" stroke="#fff" stroke-linecap="round" stroke-linejoin="round" stroke-width="5"/>
  <line id="Line_6" data-name="Line 6" y2="11.888" transform="translate(112.307 239.214)" fill="none" stroke="#fff" stroke-linecap="round" stroke-linejoin="round" stroke-width="5"/>
  <path id="Path_241" data-name="Path 241" d="M277.29,683.15l2.522,3.242h4.014" transform="translate(-174.731 -431.405)" fill="none" stroke="#fff" stroke-linecap="round" stroke-linejoin="round" stroke-width="5"/>
  <ellipse id="Ellipse_75" data-name="Ellipse 75" cx="6.242" cy="8.215" rx="6.242" ry="8.215" transform="translate(95.222 234.612)" fill="none" stroke="#fff" stroke-linecap="round" stroke-linejoin="round" stroke-width="5"/>
  <ellipse id="Ellipse_76" data-name="Ellipse 76" cx="6.242" cy="8.215" rx="6.242" ry="8.215" transform="translate(65.654 235.27)" fill="none" stroke="#fff" stroke-linecap="round" stroke-linejoin="round" stroke-width="5"/>
  <circle id="Ellipse_77" data-name="Ellipse 77" cx="0.985" cy="0.985" r="0.985" transform="translate(111.322 233.63)" fill="none" stroke="#fff" stroke-linecap="round" stroke-linejoin="round" stroke-width="3"/>
  <path id="Path_242" data-name="Path 242" d="M987,643.59s2.628,4.639,0,8.892" transform="translate(-623.272 -406.019)" fill="none" stroke="#fff" stroke-linecap="round" stroke-linejoin="round" stroke-width="3"/>
  <path id="Path_243" data-name="Path 243" d="M992.76,631.08s7.23,7.227,1.316,17.743" transform="translate(-626.915 -398.108)" fill="none" stroke="#fff" stroke-linecap="round" stroke-linejoin="round" stroke-width="3"/>
  <path id="Path_244" data-name="Path 244" d="M934.21,635.443v8.807h4.161l7.668,7.62-.658-26.94-6.572,10.513Z" transform="translate(-590.181 -394.586)" fill="none" stroke="#fff" stroke-linecap="round" stroke-linejoin="round" stroke-width="3"/>
  <path id="Path_245" data-name="Path 245" d="M1004.442,645.978s8.543-12.5-1.312-25.628" transform="translate(-633.473 -391.322)" fill="none" stroke="#fff" stroke-linecap="round" stroke-linejoin="round" stroke-width="3"/>
  <text id="START" transform="translate(47.609 51.666)" fill="#2b2b2b" font-size="18" font-family="Helvetica-Bold, Helvetica" font-weight="700"><tspan x="0" y="0">S</tspan><tspan y="0" letter-spacing="-0.05em">T</tspan><tspan y="0">A</tspan><tspan y="0" letter-spacing="-0.01em">R</tspan><tspan y="0">T</tspan></text>
  <text id="STOP" transform="translate(194.847 51.589)" fill="#2b2b2b" font-size="18" font-family="Helvetica-Bold, Helvetica" font-weight="700"><tspan x="0" y="0">S</tspan><tspan y="0" letter-spacing="-0.02em">T</tspan><tspan y="0">OP</tspan></text>
  <text id="SLOWMIX" transform="translate(315.696 51.589)" fill="#2b2b2b" font-size="18" font-family="Helvetica-Bold, Helvetica" font-weight="700"><tspan x="0" y="0">S</tspan><tspan y="0" letter-spacing="-0.01em">L</tspan><tspan y="0">OWMIX</tspan></text>
  <text id="BUZZER" transform="translate(323.82 194.324)" fill="#2b2b2b" font-size="18" font-family="Helvetica-Bold, Helvetica" font-weight="700"><tspan x="0" y="0">BUZZER</tspan></text>
</svg>
