<?xml version="1.0" encoding="utf-8"?>
<!-- Generator: Adobe Illustrator 25.1.0, SVG Export Plug-In . SVG Version: 6.00 Build 0)  -->
<svg version="1.1" id="Layer_1" xmlns="http://www.w3.org/2000/svg" xmlns:xlink="http://www.w3.org/1999/xlink" x="0px" y="0px"
	 viewBox="0 0 500 500" style="enable-background:new 0 0 500 500;" xml:space="preserve">
<style type="text/css">
	.st0{fill:#5EB91D;}
	.st1{fill:#FFFFFF;}
</style>
<g id="Group_479" transform="translate(-447.28 -194.674)">
	<ellipse id="Ellipse_44" class="st0" cx="697.3" cy="444.7" rx="250" ry="250"/>
	<g id="Group_231" transform="translate(497.958 407.128)">
		<path id="Path_857" class="st1" d="M67.2,1.6c-2.6,0-4.7,2.1-4.7,4.7l0,0v51.2L8,3C6.2,1.2,3.2,1.2,1.4,3C0.5,3.9,0,5.1,0,6.3
			v62.5c0,2.6,2.1,4.7,4.7,4.7s4.7-2.1,4.7-4.7V17.6l54.5,54.5c1.8,1.8,4.8,1.8,6.6,0c0.9-0.9,1.4-2.1,1.4-3.3V6.3
			C71.8,3.7,69.8,1.6,67.2,1.6z"/>
		<path id="Path_858" class="st1" d="M137.6,0C116.8,0,100,16.8,100,37.5s16.8,37.5,37.5,37.5c20.7,0,37.5-16.8,37.5-37.5
			C175.1,16.8,158.3,0,137.6,0z M137.6,65.7c-15.6,0-28.2-12.6-28.2-28.2c0-15.6,12.6-28.2,28.2-28.2c15.6,0,28.2,12.6,28.2,28.2
			C165.7,53.1,153.1,65.7,137.6,65.7z"/>
		<path id="Path_859" class="st1" d="M394,1.6c-2.6,0-4.7,2.1-4.7,4.7c0,0,0,0,0,0v62.5c0,2.6,2.1,4.7,4.7,4.7s4.7-2.1,4.7-4.7V6.3
			C398.6,3.7,396.6,1.6,394,1.6L394,1.6z"/>
		<path id="Path_860" class="st1" d="M265.7,24.2c0-12.5-10.2-22.6-22.7-22.7h-35.7c-2.6,0-4.7,2.1-4.7,4.7c0,0,0,0,0,0v62.6
			c0,2.6,2.1,4.7,4.7,4.7s4.7-2.1,4.7-4.7V46.9h18.4l25.4,25.4c1.8,1.8,4.8,1.8,6.6-0.1c1.8-1.8,1.8-4.7,0-6.6l-18.8-18.8
			C255.9,46.6,265.7,36.5,265.7,24.2z M243,37.5h-31V10.9h31c7.3-0.1,13.4,5.8,13.4,13.2c0.1,7.3-5.8,13.4-13.2,13.4
			C243.2,37.5,243.1,37.5,243,37.5L243,37.5z"/>
	</g>
	<path id="Path_861" class="st1" d="M855.9,467.7c12.8-16.4,9.8-40.1-6.6-52.9c-16.4-12.8-40.1-9.8-52.9,6.6
		c-12.8,16.4-9.8,40.1,6.6,52.9c13.6,10.6,32.6,10.6,46.2,0l6.6,6.6c1.8,1.8,4.8,1.8,6.6-0.1c1.8-1.8,1.8-4.7,0-6.6L855.9,467.7z
		 M826.3,472.9c-15.6,0.1-28.3-12.6-28.4-28.2s12.6-28.3,28.2-28.4s28.3,12.6,28.4,28.2c0,5.9-1.8,11.7-5.3,16.5l-4.3-4.3
		c-1.8-1.8-4.8-1.8-6.6,0.1c-1.8,1.8-1.8,4.7,0,6.6l4.3,4.3C837.9,471,832.2,472.9,826.3,472.9z"/>
</g>
</svg>
