<svg xmlns="http://www.w3.org/2000/svg" viewBox="0 0 85.96 85.2"><defs><style>.cls-1{fill:none;}</style></defs><g id="Layer_2" data-name="Layer 2"><g id="Layer_1-2" data-name="Layer 1"><rect class="cls-1" width="85.96" height="85.2"/><circle cx="14.45" cy="71" r="2.37"/><rect x="69.65" y="68.63" width="4.73" height="4.73"/><polygon points="43.22 68.63 41.85 71 40.49 73.37 43.22 73.37 45.95 73.37 44.59 71 43.22 68.63"/><rect x="40.99" y="40.23" width="4.73" height="4.73"/><circle cx="71.76" cy="42.6" r="2.37"/><polygon points="14.57 40.23 13.2 42.6 11.83 44.97 14.57 44.97 17.3 44.97 15.93 42.6 14.57 40.23"/><rect x="12.34" y="11.83" width="4.73" height="4.73"/><circle cx="43.11" cy="14.2" r="2.37"/><polygon points="71.87 11.83 70.51 14.2 69.14 16.57 71.87 16.57 74.61 16.57 73.24 14.2 71.87 11.83"/></g></g></svg>