<svg xmlns="http://www.w3.org/2000/svg" viewBox="0 0 125 291.67"><defs><style>.cls-1{fill:none;}</style></defs><g id="Layer_2" data-name="Layer 2"><g id="Layer_1-2" data-name="Layer 1"><rect class="cls-1" y="166.67" width="125" height="125"/><rect x="59.74" y="225.11" width="6.96" height="6.96"/><circle cx="104.99" cy="228.59" r="3.48"/><polygon points="20.88 225.11 18.87 228.59 16.86 232.07 20.88 232.07 24.89 232.07 22.89 228.59 20.88 225.11"/><rect x="101.88" y="266.88" width="6.96" height="6.96"/><polygon points="63.01 266.88 61 270.36 58.99 273.84 63.01 273.84 67.03 273.84 65.02 270.36 63.01 266.88"/><circle cx="20.71" cy="270.36" r="3.48"/><rect x="17.6" y="183.35" width="6.96" height="6.96"/><circle cx="62.85" cy="186.83" r="3.48"/><polygon points="105.15 183.35 103.14 186.83 101.13 190.31 105.15 190.31 109.17 190.31 107.16 186.83 105.15 183.35"/><rect class="cls-1" y="41.67" width="125" height="125"/><rect x="59.74" y="100.11" width="6.96" height="6.96"/><circle cx="104.99" cy="103.59" r="3.48"/><polygon points="20.88 100.11 18.87 103.59 16.86 107.08 20.88 107.08 24.89 107.08 22.89 103.59 20.88 100.11"/><rect x="101.88" y="141.88" width="6.96" height="6.96"/><polygon points="63.01 141.88 61 145.36 58.99 148.84 63.01 148.84 67.03 148.84 65.02 145.36 63.01 141.88"/><circle cx="20.71" cy="145.36" r="3.48"/><rect x="17.6" y="58.35" width="6.96" height="6.96"/><circle cx="62.85" cy="61.83" r="3.48"/><polygon points="105.15 58.35 103.14 61.83 101.13 65.31 105.15 65.31 109.17 65.31 107.16 61.83 105.15 58.35"/><rect class="cls-1" width="125" height="41.67"/><rect x="101.88" y="16.88" width="6.96" height="6.96"/><polygon points="63.01 16.88 61 20.36 58.99 23.84 63.01 23.84 67.03 23.84 65.02 20.36 63.01 16.88"/><circle cx="20.71" cy="20.36" r="3.48"/></g></g></svg>