<svg xmlns="http://www.w3.org/2000/svg" viewBox="0 0 380 380"><defs><style>.cls-1,.cls-3,.cls-4{fill:none;}.cls-2,.cls-6{fill:#fff;}.cls-2,.cls-3,.cls-4,.cls-5{stroke:#292928;stroke-linecap:round;stroke-linejoin:round;}.cls-2,.cls-3,.cls-5{stroke-width:1.5px;}.cls-4{stroke-width:1.5px;}.cls-5,.cls-7{fill:#292928;}</style></defs><g id="Layer_2" data-name="Layer 2"><g id="Layer_1-2" data-name="Layer 1"><rect id="Rectangle_354" data-name="Rectangle 354" class="cls-1" width="380" height="380"/><g id="icon_kipgryder" data-name="icon kipgryder"><g id="Group_363" data-name="Group 363"><g id="Group_345" data-name="Group 345"><path id="Path_1171" data-name="Path 1171" class="cls-2" d="M233.49,244.47V351.63l10.31-5.95V232.74Z"/><path id="Path_1172" data-name="Path 1172" class="cls-2" d="M326.28,179.27V298.05l10.31-5.95V173.31Z"/><path id="Path_1173" data-name="Path 1173" class="cls-2" d="M233.49,244.47l-10.31-5.95V345.68l10.31,5.95Z"/><path id="Path_1174" data-name="Path 1174" class="cls-2" d="M197.52,307.3v23.81l10.31-5.95V313.27Z"/><path id="Path_1175" data-name="Path 1175" class="cls-2" d="M197.52,331.11l-10.31-5.95V218L197.52,224Z"/><path id="Path_1176" data-name="Path 1176" class="cls-2" d="M74.22,152.38V259.54l10.31-6V140.11Z"/><path id="Path_1177" data-name="Path 1177" class="cls-2" d="M74.22,259.54l-10.31-6V146.43l10.31,5.95Z"/><path id="Path_1178" data-name="Path 1178" class="cls-2" d="M53.72,223.46v23.81l10.31-6v-11.7Z"/><path id="Path_1179" data-name="Path 1179" class="cls-2" d="M53.72,247.27l-10.31-6V134.16l10.31,6Z"/><path id="Path_1180" data-name="Path 1180" class="cls-2" d="M326.28,298.05,316,292.1V197l10.31-17.7Z"/></g><path id="Path_1181" data-name="Path 1181" class="cls-2" d="M243.8,232.74v89.12l82.48-47.62v-95"/><path id="Path_1182" data-name="Path 1182" class="cls-2" d="M197.52,224V307.3l25.66,14.56V238.52Z"/><path id="Path_1183" data-name="Path 1183" class="cls-2" d="M53.72,140.11v83.35l10.19,6.31V146.43Z"/><path id="Path_1186" data-name="Path 1186" class="cls-2" d="M336.59,161.41,254.23,209l-20.74,23.75v11.76l20.63-23.78,82.47-47.38Z"/><path id="Path_1187" data-name="Path 1187" class="cls-2" d="M233.49,232.71,187.21,206.1V218l46.28,26.46Z"/><path id="Path_1188" data-name="Path 1188" class="cls-2" d="M177.11,69.18,94.75,116.73,74,140.48v11.76l20.64-23.78,82.46-47.37Z"/><path id="Path_1189" data-name="Path 1189" class="cls-2" d="M74,140.48l-30.6-18.23v11.9L74,152.24Z"/><path id="Path_1190" data-name="Path 1190" class="cls-2" d="M43.41,122.25,64.15,98.51l82.73-47.9,30.23,18.57L94.75,116.73,74,140.48Z"/><path id="Path_1191" data-name="Path 1191" class="cls-2" d="M208,182.35l-41.4,11.75L95,152.2l14-38.89,41.63-23.59,58.23-3.28,60.32,36.62L258.9,152.24Z"/><path id="Path_1192" data-name="Path 1192" class="cls-2" d="M166.55,194.1v95.28L95,247.44V152.2Z"/><path id="Path_1193" data-name="Path 1193" class="cls-2" d="M187.21,279.92l-20.67,9.45V194.1L208,182.35,187.21,206.1Z"/><line id="Line_75" data-name="Line 75" class="cls-3" x1="269.18" y1="123.05" x2="269.18" y2="146.43"/><g id="Group_348" data-name="Group 348"><g id="Group_346" data-name="Group 346"><ellipse id="Ellipse_45" data-name="Ellipse 45" class="cls-4" cx="182.45" cy="137.62" rx="33.06" ry="57.08" transform="translate(44.29 319.65) rotate(-89.83)"/></g><g id="Group_347" data-name="Group 347"><ellipse id="Ellipse_46" data-name="Ellipse 46" class="cls-4" cx="182.44" cy="137.13" rx="2.76" ry="4.77" transform="translate(44.77 319.16) rotate(-89.83)"/></g><line id="Line_76" data-name="Line 76" class="cls-3" x1="187.21" y1="137.13" x2="187.21" y2="170.25"/><line id="Line_77" data-name="Line 77" class="cls-3" x1="177.67" y1="137.13" x2="177.67" y2="170.25"/></g><path id="Path_1194" data-name="Path 1194" class="cls-2" d="M187.21,206.1,208,182.35l82.73-47.9,45.91,27L254.23,209l-20.74,23.75Z"/><path id="Path_1195" data-name="Path 1195" class="cls-5" d="M203.27,203.7,217,187.57l25.53,14.73L228.8,218.44Z"/><g id="Group_359" data-name="Group 359"><g id="Group_358" data-name="Group 358"><g id="Group_349" data-name="Group 349"><path id="Path_1196" data-name="Path 1196" class="cls-6" d="M321.52,151.3l-4.62-3.14L249.53,32l1.8-1Z"/></g><g id="Group_350" data-name="Group 350"><path id="Path_1197" data-name="Path 1197" class="cls-7" d="M323.49,152.82l-6.24-2.2a.88.88,0,0,1-.73,0,1.3,1.3,0,0,1-.64-.56L275,79.56l-3.57-6.17L253.57,42.6,250,36.44l-2.62-4.53a1.22,1.22,0,0,1-.18-.83.85.85,0,0,1,.41-.61l3.41-2a.87.87,0,0,1,.74,0,1.3,1.3,0,0,1,.64.56L324.8,153.24C324.93,153.49,323.7,152.7,323.49,152.82Zm-6.39-4.26,4.42,2.74L251.32,30.92l-1.8,1,67.57,116.6"/></g><g id="Group_351" data-name="Group 351"><path id="Path_1198" data-name="Path 1198" class="cls-7" d="M256.55,82A64.74,64.74,0,0,0,238.7,51.24l1.7-1A67.55,67.55,0,0,1,258.25,81Z"/></g><g id="Group_352" data-name="Group 352"><path id="Path_1199" data-name="Path 1199" class="cls-6" d="M273.83,77.59l-71,41.27-1.28-2.21,71-41.27Z"/></g><g id="Group_353" data-name="Group 353"><path id="Path_1200" data-name="Path 1200" class="cls-6" d="M252.4,40.62l-71,41.27-1.28-2.21,71-41.27Z"/></g><g id="Group_354" data-name="Group 354"><path id="Path_1201" data-name="Path 1201" class="cls-7" d="M273.83,77.59l1.15,2-15.26,8.87-1.82,1-54.74,31.81a.89.89,0,0,1-.73,0,1.32,1.32,0,0,1-.64-.57l-2.43-4.19a1.31,1.31,0,0,1-.17-.84.89.89,0,0,1,.4-.61l57-33.11,1.71-1,13.15-7.64,1.15,2-71,41.27,1.28,2.21Z"/></g><g id="Group_355" data-name="Group 355"><path id="Path_1202" data-name="Path 1202" class="cls-7" d="M259.72,88.43c2.63,19.34-4.35,37.7-19.57,46.55-21.53,12.51-51.42,1.22-66.75-25.21s-10.3-58,11.24-70.53c15.22-8.85,34.61-5.81,50.08,6.07l-1.81,1A54.27,54.27,0,0,0,220,39.29c-11.58-4.37-23.9-4.07-34.23,1.93S169.1,57.78,167.14,70a61.89,61.89,0,0,0,37.63,64.91C216.35,139.29,228.66,139,239,133s16.7-16.56,18.65-28.8a54.09,54.09,0,0,0,.26-14.71Z"/></g><g id="Group_356" data-name="Group 356"><path id="Path_1203" data-name="Path 1203" class="cls-6" d="M249.78,65.38A63.69,63.69,0,0,1,256.55,82l-57,33.1a.89.89,0,0,0-.41.61,1.44,1.44,0,0,0,.17.84l2.43,4.19a1.42,1.42,0,0,0,.64.57.91.91,0,0,0,.74,0L257.9,89.48a54.57,54.57,0,0,1-.26,14.72C255.69,116.43,249.32,127,239,133s-22.64,6.3-34.22,1.92A61.87,61.87,0,0,1,167.14,70c2-12.23,8.31-22.79,18.64-28.79s22.65-6.3,34.23-1.93a54.27,54.27,0,0,1,12.89,7.07L178.16,78.17a.89.89,0,0,0-.41.61,1.37,1.37,0,0,0,.18.84l2.43,4.19a1.32,1.32,0,0,0,.64.57.89.89,0,0,0,.73,0l57-33.1A63.61,63.61,0,0,1,249.78,65.38Z"/></g><g id="Group_357" data-name="Group 357"><path id="Path_1204" data-name="Path 1204" class="cls-7" d="M252.4,40.62l1.15,2L240.4,50.24l-1.71,1-57,33.11a.85.85,0,0,1-.73,0,1.27,1.27,0,0,1-.64-.57l-2.43-4.19a1.34,1.34,0,0,1-.18-.83.85.85,0,0,1,.41-.61L232.9,46.36l1.82-1L250,36.44l1.14,2-71,41.27,1.28,2.21Z"/></g></g></g><g id="Group_360" data-name="Group 360"><ellipse id="Ellipse_47" data-name="Ellipse 47" class="cls-4" cx="113.8" cy="79.53" rx="1.78" ry="3.07" transform="translate(33.93 193.09) rotate(-89.83)"/></g><g id="Group_361" data-name="Group 361"><path id="Path_1205" data-name="Path 1205" class="cls-3" d="M116.87,94.63a1.51,1.51,0,0,1-.89,1.31,4.81,4.81,0,0,1-4.34,0,1.53,1.53,0,0,1-.9-1.26"/></g><line id="Line_78" data-name="Line 78" class="cls-3" x1="110.73" y1="79.53" x2="110.73" y2="94.63"/><line id="Line_79" data-name="Line 79" class="cls-3" x1="116.87" y1="88.09" x2="116.87" y2="94.63"/><path id="Path_1206" data-name="Path 1206" class="cls-2" d="M116,80.79l9.24,5.64-3.14,4.76-5.21-3.1"/><g id="Group_362" data-name="Group 362"><path id="Path_1207" data-name="Path 1207" class="cls-2" d="M123.61,86.44c1.13-.65,2-.13,2,1.16a4.46,4.46,0,0,1-2,3.51c-1.13.65-2,.13-2-1.16A4.47,4.47,0,0,1,123.61,86.44Z"/></g></g><path id="Path_1208" data-name="Path 1208" class="cls-2" d="M243.8,232.74l10.32-12.06,72.17-41.42"/><path id="Path_1209" data-name="Path 1209" class="cls-2" d="M84.53,229.67l10.44-6V152.2l10.47-29.95-10.79,6.2L84.53,140.11Z"/></g></g></g></svg>