<svg xmlns="http://www.w3.org/2000/svg" viewBox="0 0 400 390"><defs><style>.cls-1{fill:#ececec;}.cls-2,.cls-4,.cls-6{fill:none;}.cls-3{fill:#fff;}.cls-3,.cls-4,.cls-5{stroke:#292928;}.cls-3,.cls-4,.cls-5,.cls-6{stroke-linecap:round;stroke-linejoin:round;stroke-width:1.5px;}.cls-5{fill:#292928;}.cls-6{stroke:#fff;}</style></defs><g id="Layer_2" data-name="Layer 2"><g id="Layer_1-2" data-name="Layer 1"><ellipse id="Ellipse_55" data-name="Ellipse 55" class="cls-1" cx="200" cy="285" rx="200" ry="105"/><rect id="Rectangle_354" data-name="Rectangle 354" class="cls-2" x="10" width="380" height="380"/><g id="icon_kipstegere" data-name="icon kipstegere"><path id="Path_1210" data-name="Path 1210" class="cls-3" d="M212.82,271.75V378.9L223.13,373V265.75Z"/><path id="Path_1211" data-name="Path 1211" class="cls-3" d="M295.19,224.81v106.8l10.31-5.95V218.86Z"/><path id="Path_1212" data-name="Path 1212" class="cls-3" d="M212.82,271.75l-10.31-5.95V373l10.31,5.95Z"/><path id="Path_1213" data-name="Path 1213" class="cls-3" d="M99.6,289.54v23.81l10.31-6V295.5Z"/><path id="Path_1214" data-name="Path 1214" class="cls-3" d="M99.6,313.35l-10.31-6V200.24l10.31,5.95Z"/><path id="Path_1215" data-name="Path 1215" class="cls-3" d="M295.19,331.6l-10.31-6V230.53l10.31-5.72Z"/><path id="Path_1216" data-name="Path 1216" class="cls-3" d="M223.13,265.76v83.38l72.06-41.35v-83Z"/><path id="Path_1217" data-name="Path 1217" class="cls-3" d="M99.6,206.2v83.34l102.9,59.6V265.79Z"/><path id="Path_1218" data-name="Path 1218" class="cls-3" d="M58.34,194.42l164.79,95.16L336.59,224.5V200.69L223.13,265.76,58.34,170.61Z"/><path id="Path_1219" data-name="Path 1219" class="cls-3" d="M58.34,170.61l164.79,95.16,113.46-65.08L171.64,105.45Z"/><path id="Path_1220" data-name="Path 1220" class="cls-3" d="M78.84,170.68l144.44,83.26,93.5-53.58L172.34,117Z"/><line id="Line_80" data-name="Line 80" class="cls-4" x1="172.34" y1="116.95" x2="172.34" y2="142.17"/><path id="Path_1221" data-name="Path 1221" class="cls-3" d="M295.14,212.48l-122.8-70.31L99,182.31"/><path id="Path_1222" data-name="Path 1222" class="cls-3" d="M131.75,201.37l4.6,9.28,20.37,11.85,16.2,2.6Z"/><g id="Group_365" data-name="Group 365"><path id="Path_1223" data-name="Path 1223" class="cls-5" d="M178,245.72l-21.46-12.4V245.2L178,257.6Z"/><path id="Path_1224" data-name="Path 1224" class="cls-6" d="M164.54,242.82v.1a2,2,0,0,1-2,2,2.05,2.05,0,0,1-1-.27h0A3,3,0,0,1,160,242h0a2,2,0,0,1,2-2,2,2,0,0,1,1,.27l.08.05A2.86,2.86,0,0,1,164.54,242.82Z"/><path id="Path_1225" data-name="Path 1225" class="cls-6" d="M173.9,248.24v.1a2,2,0,0,1-3,1.73h0a3,3,0,0,1-1.52-2.63h0a2,2,0,0,1,2-2,2,2,0,0,1,1,.27l.09,0A2.86,2.86,0,0,1,173.9,248.24Z"/></g><g id="Group_366" data-name="Group 366"><path id="Path_1226" data-name="Path 1226" class="cls-5" d="M209,263.78l-21.46-12.39v11.88L209,275.66Z"/><path id="Path_1227" data-name="Path 1227" class="cls-6" d="M195.46,260.89v.1a2,2,0,0,1-2,2,2.12,2.12,0,0,1-1-.27h0a3.06,3.06,0,0,1-1.52-2.64h0a2,2,0,0,1,2-2,2,2,0,0,1,1,.27l.09.05a2.86,2.86,0,0,1,1.44,2.48Z"/><path id="Path_1228" data-name="Path 1228" class="cls-6" d="M204.83,266.31v.1a2,2,0,0,1-2,2,2,2,0,0,1-1-.27h0a3,3,0,0,1-1.53-2.63h0a2,2,0,0,1,2-2,2.13,2.13,0,0,1,1,.27l.08.05A2.88,2.88,0,0,1,204.83,266.31Z"/></g><g id="Group_367" data-name="Group 367"><path id="Path_1229" data-name="Path 1229" class="cls-5" d="M94.29,197.59,72.83,185.2v11.88l21.46,12.39Z"/><path id="Path_1230" data-name="Path 1230" class="cls-6" d="M80.8,194.7v.1a2,2,0,0,1-3,1.73h0a3,3,0,0,1-1.52-2.63h0a2,2,0,0,1,3-1.74l.08.05A2.88,2.88,0,0,1,80.8,194.7Z"/><path id="Path_1231" data-name="Path 1231" class="cls-6" d="M90.17,200.12v.1a2,2,0,0,1-2,2,2,2,0,0,1-1-.27h0a3,3,0,0,1-1.53-2.63h0a2,2,0,0,1,3-1.74l.08,0a2.86,2.86,0,0,1,1.44,2.48Z"/></g><g id="Group_368" data-name="Group 368"><path id="Path_1232" data-name="Path 1232" class="cls-5" d="M125.21,215.66l-21.46-12.39v11.88l21.46,12.39Z"/><path id="Path_1233" data-name="Path 1233" class="cls-6" d="M111.72,212.76v.1a2,2,0,0,1-2,2,2.05,2.05,0,0,1-1-.27h0a3.05,3.05,0,0,1-1.53-2.64h0a2,2,0,0,1,2-2,2,2,0,0,1,1,.27l.09.05A2.86,2.86,0,0,1,111.72,212.76Z"/><path id="Path_1234" data-name="Path 1234" class="cls-6" d="M121.09,218.18v.1a2,2,0,0,1-3,1.73h0a3.06,3.06,0,0,1-1.53-2.63h0a2,2,0,0,1,2-2,1.92,1.92,0,0,1,1,.27l.09,0A2.85,2.85,0,0,1,121.09,218.18Z"/></g><path id="Path_1235" data-name="Path 1235" class="cls-3" d="M144.68,230.7v.18a3.48,3.48,0,0,1-3.48,3.47,3.38,3.38,0,0,1-1.73-.47h0a5.25,5.25,0,0,1-2.64-4.56h0a3.48,3.48,0,0,1,3.48-3.48,3.41,3.41,0,0,1,1.73.47l.16.08A5,5,0,0,1,144.68,230.7Z"/><line id="Line_81" data-name="Line 81" class="cls-4" x1="223.13" y1="265.77" x2="223.13" y2="289.58"/><path id="Path_1236" data-name="Path 1236" class="cls-3" d="M275,164.76V152.43l-41.49-24v12.3Z"/><path id="Path_1237" data-name="Path 1237" class="cls-3" d="M278.9,167V150.41l-3.87,2v12.33Z"/><path id="Path_1238" data-name="Path 1238" class="cls-3" d="M336.59,188.54,305.5,99,141,4.2,171.64,93Z"/><path id="Path_1239" data-name="Path 1239" class="cls-3" d="M141,4.2l4.67-3.1,165,95.23,31,89.28-5.07,2.93L305.5,99Z"/><line id="Line_82" data-name="Line 82" class="cls-4" x1="305.5" y1="99.01" x2="310.7" y2="96.33"/></g></g></g></svg>