<svg xmlns="http://www.w3.org/2000/svg" viewBox="0 0 400 390"><defs><style>.cls-1{fill:#ececec;}.cls-2,.cls-4,.cls-6{fill:none;}.cls-3,.cls-7{fill:#fff;}.cls-3,.cls-4,.cls-5{stroke:#292928;}.cls-3,.cls-4,.cls-5,.cls-6{stroke-linecap:round;stroke-linejoin:round;stroke-width:1.5px;}.cls-5,.cls-8{fill:#292928;}.cls-6{stroke:#fff;}</style></defs><g id="Layer_2" data-name="Layer 2"><g id="Layer_1-2" data-name="Layer 1"><ellipse id="Ellipse_55" data-name="Ellipse 55" class="cls-1" cx="200" cy="285" rx="200" ry="105"/><rect id="Rectangle_354" data-name="Rectangle 354" class="cls-2" x="10" width="380" height="380"/><g id="icon_kogeborde" data-name="icon kogeborde"><path id="Path_1075" data-name="Path 1075" class="cls-3" d="M66,148.84v90.73l11.22-6.48V155.32Z"/><path id="Path_1076" data-name="Path 1076" class="cls-3" d="M223.14,304.38,65.69,213.86l11.52-6.7V194.21l33.68-19.45,112.25,64.81Z"/><path id="Path_1077" data-name="Path 1077" class="cls-3" d="M234.37,220.13V336.79l11.22-6.47V213.65Z"/><path id="Path_1077-2" data-name="Path 1077-2" class="cls-3" d="M234.37,220.11v116.7l-11.23-6.48V213.63Z"/><path id="Path_1078" data-name="Path 1078" class="cls-3" d="M335.39,173.8V278.46L346.61,272V167.32Z"/><path id="Path_1079" data-name="Path 1079" class="cls-4" d="M234.37,336.79l-11.23-6.47V213.65l11.23,6.48"/><path id="Path_1080" data-name="Path 1080" class="cls-3" d="M335.39,278.46,324.16,272V180.26l11.23-6.46Z"/><path id="Path_1081" data-name="Path 1081" class="cls-3" d="M66,239.57l-11.23-6.48V116.43L66,122.91Z"/><path id="Path_1082" data-name="Path 1082" class="cls-3" d="M223.14,213.65,66,122.91v34.23l157.15,90.74Z"/><path id="Path_1083" data-name="Path 1083" class="cls-3" d="M234.32,232.69,43.48,122.51a39.42,39.42,0,0,1,14.69-17.44L165.69,43.19,356.51,153.37,249,215.26A33.86,33.86,0,0,0,234.32,232.69Z"/><path id="Path_1084" data-name="Path 1084" class="cls-3" d="M356.52,153.37,249,215.25a33.85,33.85,0,0,0-14.69,17.44l122.21-71.1Z"/><g id="Group_262" data-name="Group 262"><path id="Path_1085" data-name="Path 1085" class="cls-3" d="M167.1,55.65c1.08.36,50.34,29.41,50.34,29.41l-99,57.21L67.93,113.76Z"/><path id="Path_1086" data-name="Path 1086" class="cls-3" d="M121.85,89.6,80.48,113l38,21.48,40.6-23.74Z"/><path id="Path_1087" data-name="Path 1087" class="cls-3" d="M166.65,63.5,125.28,86.92l38,21.48L203.9,84.66Z"/><path id="Path_1088" data-name="Path 1088" class="cls-3" d="M283.89,122.93c1.09.37,50.34,29.42,50.34,29.42l-99,57.21-50.48-28.51Z"/><path id="Path_1089" data-name="Path 1089" class="cls-3" d="M225.56,89.06c1.09.36,50.34,29.41,50.34,29.41l-99,57.22L126.4,147.18Z"/><path id="Path_1090" data-name="Path 1090" class="cls-3" d="M238.65,156.89l-41.37,23.42,38,21.48,40.59-23.74Z"/><path id="Path_1091" data-name="Path 1091" class="cls-3" d="M283.45,130.79l-41.37,23.42,38,21.48,40.58-23.75Z"/><path id="Path_1092" data-name="Path 1092" class="cls-3" d="M180.17,123.47l-41.36,23.42,38,21.49,40.59-23.74Z"/><path id="Path_1093" data-name="Path 1093" class="cls-3" d="M225,97.37l-41.37,23.42,38,21.49,40.59-23.75Z"/></g><path id="Path_1094" data-name="Path 1094" class="cls-3" d="M245.58,304.38l89.8-51.85-11.23-6.81V220L301.7,207.17l-56.12,32.4Z"/><path id="Path_1095" data-name="Path 1095" class="cls-3" d="M245.58,247.88,335.38,196V173.8l-89.8,52.34Z"/><g id="Group_263" data-name="Group 263"><path id="Path_1096" data-name="Path 1096" class="cls-5" d="M97.84,153.9,74.47,140.4v12.94l23.37,13.49Z"/><path id="Path_1097" data-name="Path 1097" class="cls-6" d="M83.15,150.75v.11A2.18,2.18,0,0,1,81,153a2.11,2.11,0,0,1-1.09-.3h0a3.31,3.31,0,0,1-1.66-2.86h0A2.18,2.18,0,0,1,81.49,148l.1,0A3.14,3.14,0,0,1,83.15,150.75Z"/><path id="Path_1098" data-name="Path 1098" class="cls-6" d="M93.35,156.64v.11a2.18,2.18,0,0,1-3.27,1.89h0a3.3,3.3,0,0,1-1.66-2.87h0a2.18,2.18,0,0,1,3.27-1.89l.09.06A3.13,3.13,0,0,1,93.35,156.64Z"/></g><g id="Group_264" data-name="Group 264"><path id="Path_1099" data-name="Path 1099" class="cls-5" d="M153.66,186.21l-23.37-13.49v12.94l23.37,13.49Z"/><path id="Path_1100" data-name="Path 1100" class="cls-6" d="M139,183.06v.11a2.18,2.18,0,0,1-2.18,2.19,2.11,2.11,0,0,1-1.09-.3h0A3.31,3.31,0,0,1,134,182.2h0a2.18,2.18,0,0,1,3.27-1.89l.1.05a3.14,3.14,0,0,1,1.56,2.7Z"/><path id="Path_1101" data-name="Path 1101" class="cls-6" d="M149.17,189v.11A2.18,2.18,0,0,1,145.9,191h0a3.33,3.33,0,0,1-1.66-2.87h0a2.18,2.18,0,0,1,3.27-1.89l.1.05a3.14,3.14,0,0,1,1.56,2.7Z"/></g><g id="Group_265" data-name="Group 265"><path id="Path_1102" data-name="Path 1102" class="cls-5" d="M212.52,220.57l-23.37-13.49V220l23.37,13.5Z"/><path id="Path_1103" data-name="Path 1103" class="cls-6" d="M197.84,217.42v.11a2.18,2.18,0,0,1-3.27,1.89h0a3.29,3.29,0,0,1-1.66-2.86h0a2.18,2.18,0,0,1,2.18-2.19,2.11,2.11,0,0,1,1.09.3l.09.05A3.13,3.13,0,0,1,197.84,217.42Z"/><path id="Path_1104" data-name="Path 1104" class="cls-6" d="M208,223.32v.11a2.18,2.18,0,0,1-3.27,1.89h0a3.31,3.31,0,0,1-1.66-2.87h0a2.18,2.18,0,0,1,3.27-1.89l.09.06a3.1,3.1,0,0,1,1.57,2.7Z"/></g><g id="Group_278" data-name="Group 278"><g id="Group_266" data-name="Group 266"><path id="Path_1105" data-name="Path 1105" class="cls-7" d="M103.78,112.93l-6.92-4,21.67,2.92-1.87,1.08A16.72,16.72,0,0,0,103.78,112.93Z"/></g><g id="Group_275" data-name="Group 275"><g id="Group_267" data-name="Group 267"><path id="Path_1106" data-name="Path 1106" class="cls-7" d="M127.24,100.53a14,14,0,0,0-4.07,1.13L117,98.07Z"/></g><g id="Group_268" data-name="Group 268"><path id="Path_1107" data-name="Path 1107" class="cls-8" d="M137,102.14c.49.28.5.73,0,1a1.89,1.89,0,0,1-1.76,0,11.54,11.54,0,0,0-5.62-1.34,11.38,11.38,0,0,0-5.6,1.34,1.91,1.91,0,0,1-1.77,0l-9.17-5.29a.54.54,0,0,1,0-1,2,2,0,0,1,1.76,0L117,98.07l6.21,3.58a14.33,14.33,0,0,1,4.06-1.12A16,16,0,0,1,137,102.14Z"/></g><g id="Group_269" data-name="Group 269"><path id="Path_1108" data-name="Path 1108" class="cls-7" d="M130,106.2c.2.11.2.3,0,.42a.83.83,0,0,1-.72,0c-.2-.12-.2-.3,0-.42l-.89-.51.89.51A.76.76,0,0,1,130,106.2Z"/></g><g id="Group_270" data-name="Group 270"><path id="Path_1109" data-name="Path 1109" class="cls-8" d="M131.76,105.18c1.17.68,1.19,1.78,0,2.46a4.68,4.68,0,0,1-4.25,0,1.3,1.3,0,0,1-.82-1.65,1.26,1.26,0,0,1,.81-.81l.88.51.89.51a.22.22,0,0,0-.14.28.2.2,0,0,0,.14.13.75.75,0,0,0,.71,0c.2-.11.2-.29,0-.41a.83.83,0,0,0-.72,0l-.89-.51-.88-.51A4.68,4.68,0,0,1,131.76,105.18Z"/></g><g id="Group_271" data-name="Group 271"><path id="Path_1110" data-name="Path 1110" class="cls-7" d="M136.11,111.17l6.9,4-21.64-2.92,1.85-1.07a16.79,16.79,0,0,0,12.89,0Z"/></g><g id="Group_272" data-name="Group 272"><path id="Path_1111" data-name="Path 1111" class="cls-8" d="M146.21,115a.53.53,0,0,1,.34.67.55.55,0,0,1-.34.34,2,2,0,0,1-1.77,0l-1.43-.83-6.9-4a16.84,16.84,0,0,1-12.89,0l-1.85,1.07-3.77,2.2a2,2,0,0,1-1.76,0,12.41,12.41,0,0,0-11.23,0,1.86,1.86,0,0,1-.87.21,1.79,1.79,0,0,1-.88-.21l-9.17-5.3a.54.54,0,0,1-.34-.68.52.52,0,0,1,.34-.34,1.93,1.93,0,0,1,1.75,0l1.41.82,6.92,4a16.75,16.75,0,0,1,12.89,0l1.86-1.08,3.77-2.19a2,2,0,0,1,1.76,0,12.29,12.29,0,0,0,11.23,0,1.93,1.93,0,0,1,1.75,0Z"/></g><g id="Group_273" data-name="Group 273"><path id="Path_1112" data-name="Path 1112" class="cls-7" d="M122.94,126l-10.28-2.45a14.53,14.53,0,0,0,4.07-1.14Z"/></g><g id="Group_274" data-name="Group 274"><path id="Path_1113" data-name="Path 1113" class="cls-8" d="M126.81,126.23a.53.53,0,0,1,.34.67.5.5,0,0,1-.34.34,1.93,1.93,0,0,1-1.75,0L122.94,126l-6.22-3.59a14.34,14.34,0,0,1-4.07,1.14,16,16,0,0,1-9.76-1.62.53.53,0,0,1-.33-.68.52.52,0,0,1,.33-.33,2,2,0,0,1,1.77,0,12.33,12.33,0,0,0,11.22,0,1.89,1.89,0,0,1,1.76,0Z"/></g></g><g id="Group_276" data-name="Group 276"><path id="Path_1114" data-name="Path 1114" class="cls-7" d="M110.61,117.47c.2.12.2.3,0,.42l.88.51-.88-.51a.83.83,0,0,1-.72,0c-.2-.12-.2-.3,0-.42a.83.83,0,0,1,.72,0Z"/></g><g id="Group_277" data-name="Group 277"><path id="Path_1115" data-name="Path 1115" class="cls-8" d="M112.37,116.45a1.29,1.29,0,0,1,.82,1.64,1.27,1.27,0,0,1-.81.82,4.68,4.68,0,0,1-4.25,0,1.3,1.3,0,0,1,0-2.46A4.68,4.68,0,0,1,112.37,116.45Zm-2.48,1.44a.83.83,0,0,0,.72,0c.2-.12.2-.3,0-.42a.83.83,0,0,0-.72,0,.23.23,0,0,0-.14.28.27.27,0,0,0,.14.14"/></g></g><g id="Group_291" data-name="Group 291"><g id="Group_279" data-name="Group 279"><path id="Path_1116" data-name="Path 1116" class="cls-7" d="M162.1,146.8l-6.92-4,21.67,2.92L175,146.81A16.7,16.7,0,0,0,162.1,146.8Z"/></g><g id="Group_288" data-name="Group 288"><g id="Group_280" data-name="Group 280"><path id="Path_1117" data-name="Path 1117" class="cls-7" d="M185.56,134.4a14.35,14.35,0,0,0-4.06,1.13l-6.22-3.59Z"/></g><g id="Group_281" data-name="Group 281"><path id="Path_1118" data-name="Path 1118" class="cls-8" d="M195.31,136a.54.54,0,0,1,0,1,1.93,1.93,0,0,1-1.75,0,11.46,11.46,0,0,0-5.62-1.34,11.31,11.31,0,0,0-5.61,1.34,2,2,0,0,1-1.76,0l-9.17-5.3a.54.54,0,0,1-.34-.69.53.53,0,0,1,.34-.33,1.93,1.93,0,0,1,1.75,0l2.12,1.22,6.21,3.59a14.85,14.85,0,0,1,4.07-1.13A16.09,16.09,0,0,1,195.31,136Z"/></g><g id="Group_282" data-name="Group 282"><path id="Path_1119" data-name="Path 1119" class="cls-7" d="M188.34,140.07c.2.12.2.3,0,.42a.77.77,0,0,1-.72,0c-.2-.12-.2-.3,0-.42l-.89-.51.89.51A.83.83,0,0,1,188.34,140.07Z"/></g><g id="Group_283" data-name="Group 283"><path id="Path_1120" data-name="Path 1120" class="cls-8" d="M190.1,139.05c1.16.69,1.18,1.78,0,2.46a4.68,4.68,0,0,1-4.25,0,1.3,1.3,0,0,1,0-2.46l.88.51.89.51a.23.23,0,0,0-.14.28.22.22,0,0,0,.14.14.76.76,0,0,0,.72,0,.22.22,0,0,0,0-.42.83.83,0,0,0-.72,0l-.89-.51-.88-.51a4.68,4.68,0,0,1,4.25,0Z"/></g><g id="Group_284" data-name="Group 284"><path id="Path_1121" data-name="Path 1121" class="cls-7" d="M194.44,145l6.9,4-21.65-2.91,1.85-1.08a16.79,16.79,0,0,0,12.89,0Z"/></g><g id="Group_285" data-name="Group 285"><path id="Path_1122" data-name="Path 1122" class="cls-8" d="M204.53,148.83a.53.53,0,0,1,.34.68.51.51,0,0,1-.34.33,1.89,1.89,0,0,1-1.76,0l-1.43-.83-6.9-4a16.75,16.75,0,0,1-12.89,0l-1.85,1.07-3.77,2.2a1.9,1.9,0,0,1-.88.21,1.93,1.93,0,0,1-.88-.21,12.39,12.39,0,0,0-11.22,0,1.9,1.9,0,0,1-.88.21,1.79,1.79,0,0,1-.88-.21L152,143a.54.54,0,0,1,0-1,1.93,1.93,0,0,1,1.75,0l1.42.82,6.92,4a16.75,16.75,0,0,1,12.89,0l1.86-1.09,3.76-2.19a2,2,0,0,1,1.77,0,12.27,12.27,0,0,0,11.22,0,2,2,0,0,1,1.76,0Z"/></g><g id="Group_286" data-name="Group 286"><path id="Path_1123" data-name="Path 1123" class="cls-7" d="M181.27,159.9,171,157.44a14.34,14.34,0,0,0,4.07-1.14Z"/></g><g id="Group_287" data-name="Group 287"><path id="Path_1124" data-name="Path 1124" class="cls-8" d="M185.14,160.1a.54.54,0,0,1,0,1,2,2,0,0,1-1.76,0l-2.12-1.22-6.21-3.59a14.85,14.85,0,0,1-4.07,1.13,16.07,16.07,0,0,1-9.76-1.61.53.53,0,0,1-.34-.68.55.55,0,0,1,.34-.34,2,2,0,0,1,1.76,0,12.29,12.29,0,0,0,11.23,0,1.93,1.93,0,0,1,1.75,0Z"/></g></g><g id="Group_289" data-name="Group 289"><path id="Path_1125" data-name="Path 1125" class="cls-7" d="M168.94,151.34a.22.22,0,0,1,.14.28.22.22,0,0,1-.14.14l.88.51-.88-.51a.76.76,0,0,1-.72,0c-.2-.11-.2-.3,0-.42A.83.83,0,0,1,168.94,151.34Z"/></g><g id="Group_290" data-name="Group 290"><path id="Path_1126" data-name="Path 1126" class="cls-8" d="M170.7,150.32a1.31,1.31,0,0,1,.82,1.65,1.34,1.34,0,0,1-.81.82,4.74,4.74,0,0,1-4.25,0,1.31,1.31,0,0,1,0-2.47A4.68,4.68,0,0,1,170.7,150.32Zm-2.48,1.44a.76.76,0,0,0,.72,0,.22.22,0,0,0,.14-.28.32.32,0,0,0-.14-.14.83.83,0,0,0-.72,0,.23.23,0,0,0-.14.28.22.22,0,0,0,.14.14"/></g></g><g id="Group_304" data-name="Group 304"><g id="Group_292" data-name="Group 292"><path id="Path_1127" data-name="Path 1127" class="cls-7" d="M220.43,180.67l-6.92-4,21.67,2.92-1.86,1.08A16.75,16.75,0,0,0,220.43,180.67Z"/></g><g id="Group_301" data-name="Group 301"><g id="Group_293" data-name="Group 293"><path id="Path_1128" data-name="Path 1128" class="cls-7" d="M243.9,168.27a14.69,14.69,0,0,0-4.06,1.13l-6.22-3.58Z"/></g><g id="Group_294" data-name="Group 294"><path id="Path_1129" data-name="Path 1129" class="cls-8" d="M253.65,169.89a.53.53,0,0,1,.34.67.55.55,0,0,1-.34.34,2,2,0,0,1-1.76,0,12.41,12.41,0,0,0-11.22,0,1.89,1.89,0,0,1-1.76,0l-9.18-5.3a.54.54,0,0,1-.33-.69.57.57,0,0,1,.33-.33,2,2,0,0,1,1.76,0l2.12,1.22,6.21,3.59a14.85,14.85,0,0,1,4.07-1.13,16.09,16.09,0,0,1,9.76,1.62Z"/></g><g id="Group_295" data-name="Group 295"><path id="Path_1130" data-name="Path 1130" class="cls-7" d="M246.66,174a.22.22,0,0,1,0,.41.76.76,0,0,1-.72,0,.22.22,0,0,1,0-.41l-.89-.52.89.52a.76.76,0,0,1,.72,0Z"/></g><g id="Group_296" data-name="Group 296"><path id="Path_1131" data-name="Path 1131" class="cls-8" d="M248.42,172.92c1.16.69,1.18,1.79,0,2.47a4.68,4.68,0,0,1-4.25,0,1.31,1.31,0,0,1-.82-1.65,1.34,1.34,0,0,1,.81-.82l.88.51.89.52a.22.22,0,0,0,0,.41.77.77,0,0,0,.72,0,.22.22,0,0,0,0-.41.77.77,0,0,0-.72,0l-.89-.52-.88-.51a4.74,4.74,0,0,1,4.25,0Z"/></g><g id="Group_297" data-name="Group 297"><path id="Path_1132" data-name="Path 1132" class="cls-7" d="M252.77,178.91l6.9,4L238,180l1.85-1.07A16.75,16.75,0,0,0,252.77,178.91Z"/></g><g id="Group_298" data-name="Group 298"><path id="Path_1133" data-name="Path 1133" class="cls-8" d="M262.87,182.7a.54.54,0,0,1,0,1,2,2,0,0,1-1.77,0l-1.43-.83-6.9-4a16.72,16.72,0,0,1-12.88,0L238,180l-3.77,2.19a1.87,1.87,0,0,1-1.75,0,12.41,12.41,0,0,0-11.23,0,1.79,1.79,0,0,1-.88.21,1.65,1.65,0,0,1-.87-.21l-9.18-5.3a.53.53,0,0,1-.33-.68.5.5,0,0,1,.33-.33,1.89,1.89,0,0,1,1.76,0l1.41.81,6.91,4a16.75,16.75,0,0,1,12.89,0l1.86-1.08L239,177.4a2,2,0,0,1,1.76,0,12.29,12.29,0,0,0,11.23,0,1.93,1.93,0,0,1,1.75,0Z"/></g><g id="Group_299" data-name="Group 299"><path id="Path_1134" data-name="Path 1134" class="cls-7" d="M239.6,193.77l-10.29-2.46a14.66,14.66,0,0,0,4.07-1.13Z"/></g><g id="Group_300" data-name="Group 300"><path id="Path_1135" data-name="Path 1135" class="cls-8" d="M243.47,194a.55.55,0,0,1,.34.68.52.52,0,0,1-.34.34,1.93,1.93,0,0,1-1.75,0l-2.12-1.22-6.22-3.59a14.41,14.41,0,0,1-4.07,1.13,16,16,0,0,1-9.76-1.61.53.53,0,0,1-.33-.68.5.5,0,0,1,.33-.33,1.91,1.91,0,0,1,1.77,0,12.33,12.33,0,0,0,11.22,0,1.89,1.89,0,0,1,1.76,0Z"/></g></g><g id="Group_302" data-name="Group 302"><path id="Path_1136" data-name="Path 1136" class="cls-7" d="M227.26,185.22a.22.22,0,0,1,0,.41l.88.51-.88-.51a.76.76,0,0,1-.72,0c-.2-.11-.2-.29,0-.41A.76.76,0,0,1,227.26,185.22Z"/></g><g id="Group_303" data-name="Group 303"><path id="Path_1137" data-name="Path 1137" class="cls-8" d="M229,184.2a1.3,1.3,0,0,1,0,2.46,4.68,4.68,0,0,1-4.25,0,1.3,1.3,0,0,1,0-2.46A4.68,4.68,0,0,1,229,184.2Zm-2.48,1.44a.83.83,0,0,0,.72,0c.2-.12.2-.3,0-.42a.76.76,0,0,0-.72,0,.22.22,0,0,0-.14.28.32.32,0,0,0,.14.14"/></g></g><g id="Group_317" data-name="Group 317"><g id="Group_305" data-name="Group 305"><path id="Path_1138" data-name="Path 1138" class="cls-7" d="M148.58,86.82l-6.92-4,21.67,2.92-1.87,1.09A16.77,16.77,0,0,0,148.58,86.82Z"/></g><g id="Group_314" data-name="Group 314"><g id="Group_306" data-name="Group 306"><path id="Path_1139" data-name="Path 1139" class="cls-7" d="M172.05,74.42A14.66,14.66,0,0,0,168,75.55L161.77,72Z"/></g><g id="Group_307" data-name="Group 307"><path id="Path_1140" data-name="Path 1140" class="cls-8" d="M181.79,76a.53.53,0,0,1,.34.68.51.51,0,0,1-.34.33,1.93,1.93,0,0,1-1.75,0,12.41,12.41,0,0,0-11.22,0,1.91,1.91,0,0,1-1.77,0l-9.17-5.3a.54.54,0,0,1-.34-.69.58.58,0,0,1,.34-.33,1.93,1.93,0,0,1,1.75,0L161.75,72,168,75.55A14.37,14.37,0,0,1,172,74.41,16.05,16.05,0,0,1,181.8,76Z"/></g><g id="Group_308" data-name="Group 308"><path id="Path_1141" data-name="Path 1141" class="cls-7" d="M174.8,80.1a.22.22,0,0,1,0,.41.75.75,0,0,1-.71,0c-.2-.12-.2-.3,0-.41l-.89-.52.89.52A.75.75,0,0,1,174.8,80.1Z"/></g><g id="Group_309" data-name="Group 309"><path id="Path_1142" data-name="Path 1142" class="cls-8" d="M176.57,79.07c1.16.69,1.18,1.78,0,2.46a4.68,4.68,0,0,1-4.25,0,1.29,1.29,0,0,1-.82-1.64,1.32,1.32,0,0,1,.81-.82l.88.51.89.52c-.2.11-.2.29,0,.41a.76.76,0,0,0,.72,0,.22.22,0,0,0,0-.41.76.76,0,0,0-.72,0l-.89-.52-.88-.51A4.74,4.74,0,0,1,176.57,79.07Z"/></g><g id="Group_310" data-name="Group 310"><path id="Path_1143" data-name="Path 1143" class="cls-7" d="M180.91,85.06l6.9,4-21.64-2.92L168,85.06a16.81,16.81,0,0,0,12.88,0Z"/></g><g id="Group_311" data-name="Group 311"><path id="Path_1144" data-name="Path 1144" class="cls-8" d="M191,88.85c.49.28.5.74,0,1a2,2,0,0,1-1.76,0L187.82,89l-6.9-4a16.75,16.75,0,0,1-12.89,0l-1.85,1.08-3.77,2.19a1.89,1.89,0,0,1-1.76,0,12.45,12.45,0,0,0-11.22,0,1.85,1.85,0,0,1-1.75,0L138.5,83a.53.53,0,0,1-.33-.68.5.5,0,0,1,.33-.33,1.89,1.89,0,0,1,1.76,0l1.41.81,6.92,4a16.75,16.75,0,0,1,12.89,0l1.86-1.08,3.76-2.19a1.93,1.93,0,0,1,.88-.21,1.72,1.72,0,0,1,.89.21,12.35,12.35,0,0,0,11.23,0,1.87,1.87,0,0,1,1.75,0Z"/></g><g id="Group_312" data-name="Group 312"><path id="Path_1145" data-name="Path 1145" class="cls-7" d="M167.75,99.92l-10.29-2.46a14.75,14.75,0,0,0,4.07-1.13Z"/></g><g id="Group_313" data-name="Group 313"><path id="Path_1146" data-name="Path 1146" class="cls-8" d="M171.61,100.13a.54.54,0,0,1,.34.68.51.51,0,0,1-.34.33,1.87,1.87,0,0,1-1.75,0l-2.12-1.22-6.22-3.59a14.34,14.34,0,0,1-4.07,1.14,16.09,16.09,0,0,1-9.76-1.61.54.54,0,0,1,0-1,2,2,0,0,1,1.77,0,12.27,12.27,0,0,0,11.22,0,1.95,1.95,0,0,1,1.76,0Z"/></g></g><g id="Group_315" data-name="Group 315"><path id="Path_1147" data-name="Path 1147" class="cls-7" d="M155.41,91.37a.22.22,0,0,1,0,.41l.88.51-.88-.51a.76.76,0,0,1-.72,0,.22.22,0,0,1,0-.41A.76.76,0,0,1,155.41,91.37Z"/></g><g id="Group_316" data-name="Group 316"><path id="Path_1148" data-name="Path 1148" class="cls-8" d="M157.17,90.35A1.29,1.29,0,0,1,158,92a1.33,1.33,0,0,1-.8.82,4.7,4.7,0,0,1-4.26,0,1.3,1.3,0,0,1-.81-1.65,1.27,1.27,0,0,1,.8-.81,4.62,4.62,0,0,1,4.25,0Zm-2.47,1.43a.75.75,0,0,0,.71,0,.22.22,0,0,0,0-.41.76.76,0,0,0-.72,0,.21.21,0,0,0-.13.27.2.2,0,0,0,.13.14"/></g></g><g id="Group_330" data-name="Group 330"><g id="Group_318" data-name="Group 318"><path id="Path_1149" data-name="Path 1149" class="cls-7" d="M206.91,120.7l-6.92-4,21.67,2.92-1.86,1.08a16.74,16.74,0,0,0-12.89,0Z"/></g><g id="Group_327" data-name="Group 327"><g id="Group_319" data-name="Group 319"><path id="Path_1150" data-name="Path 1150" class="cls-7" d="M230.36,108.29a14.69,14.69,0,0,0-4.06,1.13l-6.22-3.59Z"/></g><g id="Group_320" data-name="Group 320"><path id="Path_1151" data-name="Path 1151" class="cls-8" d="M240.11,109.91a.54.54,0,0,1,0,1,1.93,1.93,0,0,1-1.75,0,11.48,11.48,0,0,0-5.62-1.34,11.29,11.29,0,0,0-5.61,1.34,1.78,1.78,0,0,1-.87.21,1.82,1.82,0,0,1-.89-.2l-9.18-5.3a.55.55,0,0,1-.33-.7.59.59,0,0,1,.33-.33,2,2,0,0,1,1.76,0l2.12,1.23,6.21,3.58a14.75,14.75,0,0,1,4.07-1.13,16,16,0,0,1,9.76,1.62Z"/></g><g id="Group_321" data-name="Group 321"><path id="Path_1152" data-name="Path 1152" class="cls-7" d="M233.14,114c.2.12.2.3,0,.42a.83.83,0,0,1-.72,0c-.2-.12-.2-.3,0-.42l-.89-.51.89.51A.76.76,0,0,1,233.14,114Z"/></g><g id="Group_322" data-name="Group 322"><path id="Path_1153" data-name="Path 1153" class="cls-8" d="M234.9,113a1.3,1.3,0,0,1,0,2.46,4.68,4.68,0,0,1-4.25,0,1.3,1.3,0,0,1,0-2.46l.88.51.89.51c-.2.12-.2.3,0,.41a.77.77,0,0,0,.72,0c.2-.11.2-.29,0-.41a.83.83,0,0,0-.72,0l-.89-.51-.88-.51A4.68,4.68,0,0,1,234.9,113Z"/></g><g id="Group_323" data-name="Group 323"><path id="Path_1154" data-name="Path 1154" class="cls-7" d="M239.23,118.94l6.9,4L224.49,120l1.85-1.07A16.79,16.79,0,0,0,239.23,118.94Z"/></g><g id="Group_324" data-name="Group 324"><path id="Path_1155" data-name="Path 1155" class="cls-8" d="M249.33,122.73a.54.54,0,0,1,.34.68.56.56,0,0,1-.34.33,2,2,0,0,1-1.76,0l-1.43-.83-6.9-4a16.84,16.84,0,0,1-12.89,0L224.5,120l-3.78,2.2a1.93,1.93,0,0,1-1.75,0,12.41,12.41,0,0,0-11.23,0,1.93,1.93,0,0,1-1.75,0l-9.17-5.3a.54.54,0,0,1-.34-.69.53.53,0,0,1,.34-.33,1.93,1.93,0,0,1,1.75,0l1.41.82,6.92,4a16.75,16.75,0,0,1,12.89,0l1.86-1.08,3.77-2.19a2,2,0,0,1,1.76,0,12.29,12.29,0,0,0,11.23,0,1.93,1.93,0,0,1,1.75,0Z"/></g><g id="Group_325" data-name="Group 325"><path id="Path_1156" data-name="Path 1156" class="cls-7" d="M226.08,133.79l-10.29-2.46a14.75,14.75,0,0,0,4.07-1.13Z"/></g><g id="Group_326" data-name="Group 326"><path id="Path_1157" data-name="Path 1157" class="cls-8" d="M229.93,134a.54.54,0,0,1,.34.68.53.53,0,0,1-.34.33,1.87,1.87,0,0,1-1.75,0l-2.12-1.22-6.22-3.59a14.34,14.34,0,0,1-4.07,1.14,16,16,0,0,1-9.76-1.62.52.52,0,0,1-.33-.67.51.51,0,0,1,.33-.34,2,2,0,0,1,1.77,0,12.33,12.33,0,0,0,11.22,0,1.89,1.89,0,0,1,1.76,0Z"/></g></g><g id="Group_328" data-name="Group 328"><path id="Path_1158" data-name="Path 1158" class="cls-7" d="M213.74,125.24c.2.12.2.3,0,.42l.88.5-.88-.5a.76.76,0,0,1-.72,0c-.2-.12-.2-.3,0-.42A.83.83,0,0,1,213.74,125.24Z"/></g><g id="Group_329" data-name="Group 329"><path id="Path_1159" data-name="Path 1159" class="cls-8" d="M215.5,124.22a1.3,1.3,0,0,1,0,2.46,4.68,4.68,0,0,1-4.25,0,1.3,1.3,0,0,1,0-2.46,4.68,4.68,0,0,1,4.25,0ZM213,125.66a.83.83,0,0,0,.72,0,.22.22,0,0,0,.14-.28.2.2,0,0,0-.14-.14.83.83,0,0,0-.72,0c-.2.12-.2.3,0,.42"/></g></g><g id="Group_343" data-name="Group 343"><g id="Group_331" data-name="Group 331"><path id="Path_1160" data-name="Path 1160" class="cls-7" d="M265.23,154.57l-6.92-4L280,153.5l-1.87,1.09a16.72,16.72,0,0,0-12.88,0Z"/></g><g id="Group_340" data-name="Group 340"><g id="Group_332" data-name="Group 332"><path id="Path_1161" data-name="Path 1161" class="cls-7" d="M288.7,142.17a14.66,14.66,0,0,0-4.07,1.13l-6.21-3.59Z"/></g><g id="Group_333" data-name="Group 333"><path id="Path_1162" data-name="Path 1162" class="cls-8" d="M298.45,143.78a.54.54,0,0,1,0,1,2,2,0,0,1-1.76,0,11.43,11.43,0,0,0-5.62-1.34,11.27,11.27,0,0,0-5.6,1.34,2,2,0,0,1-1.76,0l-9.18-5.3a.54.54,0,0,1,0-1,2,2,0,0,1,1.76,0l2.12,1.22,6.21,3.59a14.85,14.85,0,0,1,4.07-1.13A16.09,16.09,0,0,1,298.45,143.78Z"/></g><g id="Group_334" data-name="Group 334"><path id="Path_1163" data-name="Path 1163" class="cls-7" d="M291.47,147.84a.22.22,0,0,1,.14.28.2.2,0,0,1-.14.14.76.76,0,0,1-.72,0c-.2-.12-.2-.3,0-.42l-.89-.51.89.51A.83.83,0,0,1,291.47,147.84Z"/></g><g id="Group_335" data-name="Group 335"><path id="Path_1164" data-name="Path 1164" class="cls-8" d="M293.22,146.82c1.16.69,1.18,1.78,0,2.46a4.68,4.68,0,0,1-4.25,0,1.3,1.3,0,0,1,0-2.46l.88.51.89.51a.22.22,0,0,0-.14.28.2.2,0,0,0,.14.14.76.76,0,0,0,.72,0,.22.22,0,0,0,.14-.28.24.24,0,0,0-.14-.14.83.83,0,0,0-.72,0l-.89-.51-.88-.51a4.68,4.68,0,0,1,4.25,0Z"/></g><g id="Group_336" data-name="Group 336"><path id="Path_1165" data-name="Path 1165" class="cls-7" d="M297.57,152.81l6.9,4-21.64-2.91,1.86-1.07A16.77,16.77,0,0,0,297.57,152.81Z"/></g><g id="Group_337" data-name="Group 337"><path id="Path_1166" data-name="Path 1166" class="cls-8" d="M307.67,156.6a.54.54,0,0,1,0,1,2,2,0,0,1-1.77,0l-1.43-.84-6.9-4a16.75,16.75,0,0,1-12.89,0l-1.85,1.07-3.77,2.2a2,2,0,0,1-1.76,0,12.39,12.39,0,0,0-11.22,0,1.9,1.9,0,0,1-.88.21,1.79,1.79,0,0,1-.88-.21l-9.17-5.3c-.49-.28-.5-.73,0-1a1.89,1.89,0,0,1,1.76,0l1.41.81,6.92,4a16.75,16.75,0,0,1,12.89,0l1.86-1.08,3.76-2.19a1.8,1.8,0,0,1,.88-.22,2,2,0,0,1,.89.21,12.27,12.27,0,0,0,11.22,0,2,2,0,0,1,1.76,0Z"/></g><g id="Group_338" data-name="Group 338"><path id="Path_1167" data-name="Path 1167" class="cls-7" d="M284.4,167.67l-10.29-2.46a14.85,14.85,0,0,0,4.07-1.13Z"/></g><g id="Group_339" data-name="Group 339"><path id="Path_1168" data-name="Path 1168" class="cls-8" d="M288.27,167.87a.53.53,0,0,1,.33.68.56.56,0,0,1-.33.34,2,2,0,0,1-1.76,0l-2.12-1.22-6.21-3.59a14.85,14.85,0,0,1-4.07,1.13,16.07,16.07,0,0,1-9.76-1.61c-.49-.29-.5-.74,0-1a2,2,0,0,1,1.76,0,12.35,12.35,0,0,0,11.23,0,1.87,1.87,0,0,1,1.75,0Z"/></g></g><g id="Group_341" data-name="Group 341"><path id="Path_1169" data-name="Path 1169" class="cls-7" d="M272.07,159.12a.22.22,0,0,1,0,.41l.88.51-.88-.51a.76.76,0,0,1-.72,0,.22.22,0,0,1,0-.41A.76.76,0,0,1,272.07,159.12Z"/></g><g id="Group_342" data-name="Group 342"><path id="Path_1170" data-name="Path 1170" class="cls-8" d="M273.83,158.09a1.31,1.31,0,0,1,0,2.47,4.68,4.68,0,0,1-4.25,0,1.32,1.32,0,0,1-.83-1.65,1.34,1.34,0,0,1,.81-.82A4.68,4.68,0,0,1,273.83,158.09Zm-2.47,1.44a.75.75,0,0,0,.71,0,.22.22,0,0,0,.14-.28.24.24,0,0,0-.14-.14.81.81,0,0,0-.71,0,.22.22,0,0,0-.14.28.2.2,0,0,0,.14.14"/></g></g></g></g></g></svg>