<svg xmlns="http://www.w3.org/2000/svg" viewBox="0 0 400 391.5"><defs><style>.cls-1{fill:#ececec;}.cls-2,.cls-4,.cls-5{fill:none;}.cls-3,.cls-7{fill:#fff;}.cls-3,.cls-4,.cls-5,.cls-6{stroke:#292928;stroke-linecap:round;stroke-linejoin:round;}.cls-3,.cls-4,.cls-6{stroke-width:1.5px;}.cls-5{stroke-width:1.5px;}.cls-6,.cls-8{fill:#292928;}</style></defs><g id="Layer_2" data-name="Layer 2"><g id="Layer_1-2" data-name="Layer 1"><ellipse id="Ellipse_55" data-name="Ellipse 55" class="cls-1" cx="200" cy="286" rx="200" ry="105"/><rect id="Rectangle_354" data-name="Rectangle 354" class="cls-2" x="4.25" width="391.5" height="391.5"/><g id="icon_kipgryder" data-name="icon kipgryder"><g id="Group_363" data-name="Group 363"><g id="Group_345" data-name="Group 345"><path id="Path_1171" data-name="Path 1171" class="cls-3" d="M244.81,251.87v110.4l10.62-6.13V239.78Z"/><path id="Path_1172" data-name="Path 1172" class="cls-3" d="M340.4,184.69V307.07L351,300.94V178.56Z"/><path id="Path_1173" data-name="Path 1173" class="cls-3" d="M244.81,251.87l-10.63-6.13v110.4l10.63,6.13Z"/><path id="Path_1174" data-name="Path 1174" class="cls-3" d="M207.75,316.6v24.53L218.37,335V322.75Z"/><path id="Path_1175" data-name="Path 1175" class="cls-3" d="M207.75,341.13,197.13,335V224.59l10.62,6.13Z"/><path id="Path_1176" data-name="Path 1176" class="cls-3" d="M80.72,157v110.4l10.62-6.13V144.35Z"/><path id="Path_1177" data-name="Path 1177" class="cls-3" d="M80.72,267.39,70.1,261.26V150.86L80.72,157Z"/><path id="Path_1178" data-name="Path 1178" class="cls-3" d="M59.6,230.22v24.53l10.62-6.13V236.57Z"/><path id="Path_1179" data-name="Path 1179" class="cls-3" d="M59.6,254.75,49,248.62V138.22l10.63,6.13Z"/><path id="Path_1180" data-name="Path 1180" class="cls-3" d="M340.4,307.07l-10.62-6.13v-98l10.62-18.24Z"/></g><path id="Path_1181" data-name="Path 1181" class="cls-3" d="M255.43,239.78V331.6l85-49.06V184.69"/><path id="Path_1182" data-name="Path 1182" class="cls-3" d="M207.75,230.74V316.6l26.43,15V245.74Z"/><path id="Path_1183" data-name="Path 1183" class="cls-3" d="M59.6,144.35v85.87l10.5,6.51V150.86Z"/><path id="Path_1186" data-name="Path 1186" class="cls-3" d="M351,166.29l-84.86,49L244.8,239.75v12.12l21.26-24.5,85-48.81Z"/><path id="Path_1187" data-name="Path 1187" class="cls-3" d="M244.81,239.75l-47.68-27.42v12.26l47.67,27.27Z"/><path id="Path_1188" data-name="Path 1188" class="cls-3" d="M186.72,71.27l-84.85,49L80.5,144.73v12.12l21.26-24.5,85-48.81Z"/><path id="Path_1189" data-name="Path 1189" class="cls-3" d="M80.5,144.73,49,126v12.26L80.5,156.85Z"/><path id="Path_1190" data-name="Path 1190" class="cls-3" d="M49,126l21.37-24.46,85.23-49.35,31.15,19.13-84.85,49L80.5,144.73Z"/><path id="Path_1191" data-name="Path 1191" class="cls-3" d="M218.49,187.87,175.84,200,102.1,156.81l14.44-40.07,42.89-24.3,60-3.38,62.14,37.72L271,156.85Z"/><path id="Path_1192" data-name="Path 1192" class="cls-3" d="M175.84,200v98.17L102.1,254.93V156.81Z"/><path id="Path_1193" data-name="Path 1193" class="cls-3" d="M197.13,288.39l-21.29,9.74V200l42.65-12.1-21.36,24.46Z"/><line id="Line_75" data-name="Line 75" class="cls-4" x1="281.57" y1="126.78" x2="281.57" y2="150.86"/><g id="Group_348" data-name="Group 348"><g id="Group_346" data-name="Group 346"><ellipse id="Ellipse_45" data-name="Ellipse 45" class="cls-5" cx="192.22" cy="141.78" rx="34.06" ry="58.8" transform="translate(49.86 333.57) rotate(-89.83)"/></g><g id="Group_347" data-name="Group 347"><ellipse id="Ellipse_46" data-name="Ellipse 46" class="cls-5" cx="192.21" cy="141.28" rx="2.85" ry="4.92" transform="translate(50.36 333.07) rotate(-89.83)"/></g><line id="Line_76" data-name="Line 76" class="cls-4" x1="197.13" y1="141.28" x2="197.13" y2="175.4"/><line id="Line_77" data-name="Line 77" class="cls-4" x1="187.3" y1="141.28" x2="187.3" y2="175.4"/></g><path id="Path_1194" data-name="Path 1194" class="cls-3" d="M197.13,212.33l21.36-24.46,85.23-49.35L351,166.29l-84.86,49L244.8,239.75Z"/><path id="Path_1195" data-name="Path 1195" class="cls-6" d="M213.67,209.87l14.13-16.63,26.3,15.19L240,225.05Z"/><g id="Group_359" data-name="Group 359"><g id="Group_358" data-name="Group 358"><g id="Group_349" data-name="Group 349"><path id="Path_1196" data-name="Path 1196" class="cls-7" d="M335.5,155.88l-4.76-3.23L261.33,32.93l1.86-1.08Z"/></g><g id="Group_350" data-name="Group 350"><path id="Path_1197" data-name="Path 1197" class="cls-8" d="M337.53,157.44l-6.43-2.27a.86.86,0,0,1-.75.05,1.29,1.29,0,0,1-.66-.58L287.56,82l-3.68-6.36L265.49,43.89l-3.68-6.35-2.71-4.66a1.3,1.3,0,0,1-.18-.86.85.85,0,0,1,.42-.63l3.52-2a.85.85,0,0,1,.76-.05,1.33,1.33,0,0,1,.66.58l74.6,128C339,158.14,337.75,157.32,337.53,157.44ZM331,153.06l4.56,2.82-72.33-124-1.85,1.08,69.6,120.13"/></g><g id="Group_351" data-name="Group 351"><path id="Path_1198" data-name="Path 1198" class="cls-8" d="M268.56,84.51a66.52,66.52,0,0,0-18.39-31.72l1.76-1a69.68,69.68,0,0,1,18.39,31.72Z"/></g><g id="Group_352" data-name="Group 352"><path id="Path_1199" data-name="Path 1199" class="cls-7" d="M286.37,79.93,213.2,122.46l-1.32-2.28L285,77.66Z"/></g><g id="Group_353" data-name="Group 353"><path id="Path_1200" data-name="Path 1200" class="cls-7" d="M264.29,41.85,191.13,84.37l-1.32-2.28L263,39.57Z"/></g><g id="Group_354" data-name="Group 354"><path id="Path_1201" data-name="Path 1201" class="cls-8" d="M286.37,79.93l1.18,2L271.83,91.1,270,92.19,213.56,125a.88.88,0,0,1-.76.05,1.38,1.38,0,0,1-.66-.58l-2.5-4.33a1.43,1.43,0,0,1-.18-.86,1,1,0,0,1,.42-.63L268.57,84.5l1.75-1,13.55-7.87,1.19,2L211.9,120.17l1.32,2.28Z"/></g><g id="Group_355" data-name="Group 355"><path id="Path_1202" data-name="Path 1202" class="cls-8" d="M271.83,91.1c2.71,19.93-4.48,38.85-20.17,48-22.18,12.88-53,1.25-68.76-26s-10.61-59.77,11.58-72.67c15.68-9.11,35.66-6,51.6,6.26l-1.87,1.08a55.92,55.92,0,0,0-13.28-7.28c-11.93-4.5-24.63-4.19-35.27,2s-17.19,17.06-19.21,29.66A63.73,63.73,0,0,0,215.22,139c11.93,4.51,24.62,4.2,35.26-2s17.2-17.07,19.21-29.67A55.78,55.78,0,0,0,270,92.19Z"/></g><g id="Group_356" data-name="Group 356"><path id="Path_1203" data-name="Path 1203" class="cls-7" d="M261.59,67.35a65.84,65.84,0,0,1,7,17.16l-58.68,34.11a.89.89,0,0,0-.42.63,1.38,1.38,0,0,0,.18.86l2.5,4.32a1.38,1.38,0,0,0,.66.58.92.92,0,0,0,.76-.05L270,92.19a56.19,56.19,0,0,1-.26,15.16c-2,12.6-8.58,23.49-19.22,29.67s-23.32,6.49-35.25,2a63.73,63.73,0,0,1-38.77-66.87c2-12.6,8.56-23.48,19.2-29.66s23.34-6.49,35.27-2a55.92,55.92,0,0,1,13.28,7.28L187.8,80.54a.92.92,0,0,0-.42.63,1.43,1.43,0,0,0,.18.86l2.51,4.32a1.41,1.41,0,0,0,.65.58.88.88,0,0,0,.76-.05l58.69-34.1A65.81,65.81,0,0,1,261.59,67.35Z"/></g><g id="Group_357" data-name="Group 357"><path id="Path_1204" data-name="Path 1204" class="cls-8" d="M264.29,41.85l1.18,2-13.55,7.87-1.75,1L191.48,86.9a.92.92,0,0,1-.76,0,1.35,1.35,0,0,1-.65-.58L187.56,82a1.43,1.43,0,0,1-.18-.86.92.92,0,0,1,.42-.63l56.4-32.78,1.87-1.09,15.72-9.13,1.18,2L189.81,82.09l1.32,2.28Z"/></g></g></g><g id="Group_360" data-name="Group 360"><ellipse id="Ellipse_47" data-name="Ellipse 47" class="cls-5" cx="121.49" cy="81.94" rx="1.83" ry="3.16" transform="translate(39.19 203.19) rotate(-89.83)"/></g><g id="Group_361" data-name="Group 361"><path id="Path_1205" data-name="Path 1205" class="cls-4" d="M124.65,97.49a1.53,1.53,0,0,1-.91,1.35,5,5,0,0,1-4.48,0,1.59,1.59,0,0,1-.92-1.3"/></g><line id="Line_78" data-name="Line 78" class="cls-4" x1="118.33" y1="81.94" x2="118.33" y2="97.49"/><line id="Line_79" data-name="Line 79" class="cls-4" x1="124.65" y1="90.75" x2="124.65" y2="97.49"/><path id="Path_1206" data-name="Path 1206" class="cls-3" d="M123.74,83.23l9.52,5.82L130,94l-5.38-3.2"/><g id="Group_362" data-name="Group 362"><path id="Path_1207" data-name="Path 1207" class="cls-3" d="M131.6,89.06c1.16-.67,2.1-.14,2.1,1.19a4.59,4.59,0,0,1-2.08,3.62c-1.16.67-2.1.13-2.11-1.2A4.61,4.61,0,0,1,131.6,89.06Z"/></g></g><path id="Path_1208" data-name="Path 1208" class="cls-3" d="M255.43,239.78l10.63-12.42,74.35-42.67"/><path id="Path_1209" data-name="Path 1209" class="cls-3" d="M91.34,236.62l10.76-6.21v-73.6L112.88,126l-11.12,6.39-10.42,12Z"/></g></g></g></svg>