<svg id="Layer_1" data-name="Layer 1" xmlns="http://www.w3.org/2000/svg" viewBox="0 0 1156.89 865.56"><defs><style>.cls-1,.cls-2{isolation:isolate;}.cls-2{font-size:73.54px;fill:#292928;font-family:RobotoCondensed-Regular, Roboto Condensed;letter-spacing:0.05em;}.cls-3{letter-spacing:0.04em;}.cls-4{letter-spacing:0.05em;}.cls-5{letter-spacing:0.03em;}.cls-11,.cls-12,.cls-13,.cls-14,.cls-15,.cls-16,.cls-6,.cls-7{fill:none;}.cls-6{stroke:#292928;stroke-width:5px;}.cls-11,.cls-12,.cls-13,.cls-14,.cls-15,.cls-16,.cls-6,.cls-7,.cls-9{stroke-linecap:round;}.cls-11,.cls-14,.cls-16,.cls-17,.cls-6{stroke-miterlimit:10;}.cls-11,.cls-13,.cls-7,.cls-9{stroke:#62b039;}.cls-12,.cls-13,.cls-15,.cls-7,.cls-9{stroke-linejoin:round;}.cls-7{stroke-width:17px;}.cls-8{fill:#e9e6e2;}.cls-9{fill:#62b039;}.cls-11,.cls-12,.cls-13,.cls-14,.cls-15,.cls-16,.cls-9{stroke-width:3px;}.cls-10,.cls-17{fill:#e7ece6;}.cls-12,.cls-14{stroke:#737373;}.cls-15{stroke:#5fa539;}.cls-16{stroke:#616160;}.cls-17{stroke:#e7ece6;}</style></defs><g id="_00:00-3" data-name=" 00:00-3" class="cls-1"><text class="cls-2" transform="translate(196.76 135.59)">P<tspan class="cls-3" x="44.43" y="0">r</tspan><tspan class="cls-4" x="69.76" y="0">og</tspan><tspan class="cls-5" x="150.26" y="0">r</tspan><tspan x="174.88" y="0">am</tspan></text><text class="cls-1" x="-171.09" y="-186.76"/></g><path id="Path_236" data-name="Path 236" class="cls-6" d="M1207.65,272.69l55.79,55.06" transform="translate(-171.09 -186.76)"/><path id="Path_237" data-name="Path 237" class="cls-6" d="M1207.64,327.73l55.07-55.8" transform="translate(-171.09 -186.76)"/><rect id="Rectangle_377" data-name="Rectangle 377" class="cls-7" x="8.5" y="8.5" width="1139.89" height="848.56"/><rect class="cls-8" x="65.94" y="53.27" width="106.8" height="106.8" rx="24.55"/><path class="cls-9" d="M309.16,285.47H288.75V273.92l-20.24,20.32,19.92,19.12V301.41l20.73.1Z" transform="translate(-171.09 -186.76)"/><rect id="Rectangle_367" data-name="Rectangle 367" class="cls-10" x="642.08" y="58.02" width="101.82" height="101.82" rx="16.97"/><line id="Line_5" data-name="Line 5" class="cls-11" x1="691.57" y1="89.84" x2="691.57" y2="113.89"/><path id="Path_171" data-name="Path 171" class="cls-12" d="M849.94,284.38a17.67,17.67,0,0,0-4.25,18.39,17.9,17.9,0,0,0,17,11.31c.81,0,9.25-.2,14.15-7.07,4.52-6.34,4.07-15.62-1.42-22.63" transform="translate(-171.09 -186.76)"/><path id="Rectangle_369" data-name="Rectangle 369" class="cls-13" d="M262.88,414.64h443c11.65,0,21.09,8,21.09,17.81v66.79c0,9.83-9.44,17.81-21.09,17.81h-443c-11.65,0-21.1-8-21.1-17.81V432.45C241.78,422.61,251.23,414.64,262.88,414.64Z" transform="translate(-171.09 -186.76)"/><line class="cls-14" x1="125.41" y1="264.74" x2="131.91" y2="272.24"/><g id="Group_85" data-name="Group 85"><path id="Path_230" data-name="Path 230" class="cls-15" d="M290.91,457.47l7,7-16,15h-7.08l.08-7Z" transform="translate(-171.09 -186.76)"/><line id="Line_3" data-name="Line 3" class="cls-16" x1="102.74" y1="302.04" x2="130.02" y2="302.04"/></g><path id="Rectangle_369-2" data-name="Rectangle 369" class="cls-17" d="M262.88,538.64h443c11.65,0,21.09,8,21.09,17.81v66.79c0,9.83-9.44,17.81-21.09,17.81h-443c-11.65,0-21.1-8-21.1-17.81V556.45C241.78,546.61,251.23,538.64,262.88,538.64Z" transform="translate(-171.09 -186.76)"/><line class="cls-14" x1="125.41" y1="382.74" x2="131.91" y2="390.24"/><g id="Group_85-2" data-name="Group 85"><path id="Path_230-2" data-name="Path 230" class="cls-15" d="M290.91,575.47l7,7-16,15h-7.08l.08-7Z" transform="translate(-171.09 -186.76)"/><line id="Line_3-2" data-name="Line 3" class="cls-16" x1="102.74" y1="420.04" x2="130.02" y2="420.04"/></g><path id="Rectangle_369-3" data-name="Rectangle 369" class="cls-17" d="M262.88,657.64h443c11.65,0,21.09,8,21.09,17.81v66.79c0,9.83-9.44,17.81-21.09,17.81h-443c-11.65,0-21.1-8-21.1-17.81V675.45C241.78,665.61,251.23,657.64,262.88,657.64Z" transform="translate(-171.09 -186.76)"/><line class="cls-14" x1="125.41" y1="501.74" x2="131.91" y2="509.24"/><g id="Group_85-3" data-name="Group 85"><path id="Path_230-3" data-name="Path 230" class="cls-15" d="M290.91,694.47l7,7-16,15h-7.08l.08-7Z" transform="translate(-171.09 -186.76)"/><line id="Line_3-3" data-name="Line 3" class="cls-16" x1="102.74" y1="539.04" x2="130.02" y2="539.04"/></g><path id="Rectangle_369-4" data-name="Rectangle 369" class="cls-17" d="M262.88,776.64h443c11.65,0,21.09,8,21.09,17.81v66.79c0,9.83-9.44,17.81-21.09,17.81h-443c-11.65,0-21.1-8-21.1-17.81V794.45C241.78,784.61,251.23,776.64,262.88,776.64Z" transform="translate(-171.09 -186.76)"/><line class="cls-14" x1="125.41" y1="620.74" x2="131.91" y2="628.24"/><g id="Group_85-4" data-name="Group 85"><path id="Path_230-4" data-name="Path 230" class="cls-15" d="M290.91,813.47l7,7-16,15h-7.08l.08-7Z" transform="translate(-171.09 -186.76)"/><line id="Line_3-4" data-name="Line 3" class="cls-16" x1="102.74" y1="658.04" x2="130.02" y2="658.04"/></g><path id="Rectangle_369-5" data-name="Rectangle 369" class="cls-17" d="M262.88,895.64h443c11.65,0,21.09,8,21.09,17.81v66.79c0,9.83-9.44,17.81-21.09,17.81h-443c-11.65,0-21.1-8-21.1-17.81V913.45C241.78,903.61,251.23,895.64,262.88,895.64Z" transform="translate(-171.09 -186.76)"/><line class="cls-14" x1="125.41" y1="739.74" x2="131.91" y2="747.24"/><g id="Group_85-5" data-name="Group 85"><path id="Path_230-5" data-name="Path 230" class="cls-15" d="M290.91,932.47l7,7-16,15h-7.08l.08-7Z" transform="translate(-171.09 -186.76)"/><line id="Line_3-5" data-name="Line 3" class="cls-16" x1="102.74" y1="777.04" x2="130.02" y2="777.04"/></g><path id="Rectangle_369-6" data-name="Rectangle 369" class="cls-17" d="M798.88,538.64h443c11.65,0,21.09,8,21.09,17.81v66.79c0,9.83-9.44,17.81-21.09,17.81h-443c-11.65,0-21.1-8-21.1-17.81V556.45C777.78,546.61,787.23,538.64,798.88,538.64Z" transform="translate(-171.09 -186.76)"/><line class="cls-14" x1="661.41" y1="382.74" x2="667.91" y2="390.24"/><g id="Group_85-6" data-name="Group 85"><path id="Path_230-6" data-name="Path 230" class="cls-15" d="M826.91,575.47l7,7-16,15h-7.08l.08-7Z" transform="translate(-171.09 -186.76)"/><line id="Line_3-6" data-name="Line 3" class="cls-16" x1="638.74" y1="420.04" x2="666.02" y2="420.04"/></g><path id="Rectangle_369-7" data-name="Rectangle 369" class="cls-17" d="M798.88,657.64h443c11.65,0,21.09,8,21.09,17.81v66.79c0,9.83-9.44,17.81-21.09,17.81h-443c-11.65,0-21.1-8-21.1-17.81V675.45C777.78,665.61,787.23,657.64,798.88,657.64Z" transform="translate(-171.09 -186.76)"/><line class="cls-14" x1="661.41" y1="501.74" x2="667.91" y2="509.24"/><g id="Group_85-7" data-name="Group 85"><path id="Path_230-7" data-name="Path 230" class="cls-15" d="M826.91,694.47l7,7-16,15h-7.08l.08-7Z" transform="translate(-171.09 -186.76)"/><line id="Line_3-7" data-name="Line 3" class="cls-16" x1="638.74" y1="539.04" x2="666.02" y2="539.04"/></g><path id="Rectangle_369-8" data-name="Rectangle 369" class="cls-17" d="M798.88,776.64h443c11.65,0,21.09,8,21.09,17.81v66.79c0,9.83-9.44,17.81-21.09,17.81h-443c-11.65,0-21.1-8-21.1-17.81V794.45C777.78,784.61,787.23,776.64,798.88,776.64Z" transform="translate(-171.09 -186.76)"/><line class="cls-14" x1="661.41" y1="620.74" x2="667.91" y2="628.24"/><g id="Group_85-8" data-name="Group 85"><path id="Path_230-8" data-name="Path 230" class="cls-15" d="M826.91,813.47l7,7-16,15h-7.08l.08-7Z" transform="translate(-171.09 -186.76)"/><line id="Line_3-8" data-name="Line 3" class="cls-16" x1="638.74" y1="658.04" x2="666.02" y2="658.04"/></g><path id="Rectangle_369-9" data-name="Rectangle 369" class="cls-17" d="M798.88,895.64h443c11.65,0,21.09,8,21.09,17.81v66.79c0,9.83-9.44,17.81-21.09,17.81h-443c-11.65,0-21.1-8-21.1-17.81V913.45C777.78,903.61,787.23,895.64,798.88,895.64Z" transform="translate(-171.09 -186.76)"/><line class="cls-14" x1="661.41" y1="739.74" x2="667.91" y2="747.24"/><g id="Group_85-9" data-name="Group 85"><path id="Path_230-9" data-name="Path 230" class="cls-15" d="M826.91,932.47l7,7-16,15h-7.08l.08-7Z" transform="translate(-171.09 -186.76)"/><line id="Line_3-9" data-name="Line 3" class="cls-16" x1="638.74" y1="777.04" x2="666.02" y2="777.04"/></g><path id="Rectangle_369-10" data-name="Rectangle 369" class="cls-17" d="M798.88,417.64h443c11.65,0,21.09,8,21.09,17.81v66.79c0,9.83-9.44,17.81-21.09,17.81h-443c-11.65,0-21.1-8-21.1-17.81V435.45C777.78,425.61,787.23,417.64,798.88,417.64Z" transform="translate(-171.09 -186.76)"/><line class="cls-14" x1="661.41" y1="261.74" x2="667.91" y2="269.24"/><g id="Group_85-10" data-name="Group 85"><path id="Path_230-10" data-name="Path 230" class="cls-15" d="M826.91,454.47l7,7-16,15h-7.08l.08-7Z" transform="translate(-171.09 -186.76)"/><line id="Line_3-10" data-name="Line 3" class="cls-16" x1="638.74" y1="299.04" x2="666.02" y2="299.04"/></g></svg>