<svg xmlns="http://www.w3.org/2000/svg" viewBox="0 0 1156.89 866.63"><defs><style>.cls-1,.cls-10,.cls-12{fill:#737373;}.cls-2{fill:#eae6e1;}.cls-3{fill:#ececec;}.cls-18,.cls-19,.cls-20,.cls-21,.cls-4,.cls-5,.cls-6{fill:none;}.cls-13,.cls-20,.cls-4{stroke:#ececec;}.cls-10,.cls-11,.cls-12,.cls-18,.cls-19,.cls-20,.cls-21,.cls-4,.cls-5,.cls-6{stroke-linecap:round;}.cls-10,.cls-11,.cls-13,.cls-18,.cls-21,.cls-4,.cls-5{stroke-miterlimit:10;}.cls-18,.cls-4{stroke-width:5px;}.cls-18,.cls-5,.cls-6{stroke:#292928;}.cls-10,.cls-11,.cls-12,.cls-20,.cls-21,.cls-5,.cls-6{stroke-width:3px;}.cls-12,.cls-19,.cls-20,.cls-6{stroke-linejoin:round;}.cls-11,.cls-7{fill:#60b22f;}.cls-15,.cls-16,.cls-17,.cls-8,.cls-9{isolation:isolate;}.cls-17,.cls-9{font-size:73.54px;}.cls-15,.cls-16,.cls-17,.cls-9{fill:#292928;font-family:RobotoCondensed-Regular, Roboto Condensed;}.cls-9{letter-spacing:0.16em;}.cls-10,.cls-12{stroke:#737373;}.cls-11,.cls-19,.cls-21{stroke:#60b22f;}.cls-13{fill:#e7ece6;}.cls-14{fill:#f6f6f6;}.cls-15{font-size:53.15px;letter-spacing:0.16em;}.cls-16{font-size:31.88px;letter-spacing:0.16em;}.cls-17{letter-spacing:0.05em;}.cls-19{stroke-width:17px;}</style></defs><g id="Layer_2" data-name="Layer 2"><rect class="cls-1" x="61.01" y="259.53" width="106.8" height="106.8" rx="38.35"/><rect class="cls-2" x="175.79" y="259.53" width="106.8" height="106.8" rx="38.35"/><rect class="cls-2" x="288.17" y="259.53" width="106.8" height="106.8" rx="38.35"/><rect class="cls-2" x="175.79" y="387.06" width="106.8" height="106.8" rx="38.35"/><rect class="cls-2" x="288.17" y="387.06" width="106.8" height="106.8" rx="38.35"/><rect class="cls-3" x="61.01" y="387.38" width="106.8" height="106.8" rx="38.35"/><line id="Line_48" data-name="Line 48" class="cls-4" x1="8.9" y1="671.08" x2="1146.49" y2="671.08"/><line id="Line_48-2" data-name="Line 48" class="cls-4" x1="8.08" y1="203.22" x2="1148.08" y2="203.22"/><line id="Line_49" data-name="Line 49" class="cls-4" x1="288.52" y1="671.08" x2="288.52" y2="861.81"/><line id="Line_50" data-name="Line 50" class="cls-4" x1="579.86" y1="673.41" x2="579.43" y2="864.13"/><line id="Line_51" data-name="Line 51" class="cls-4" x1="869.78" y1="671.08" x2="869.78" y2="863.36"/><line id="Line_53" data-name="Line 53" class="cls-5" x1="110.33" y1="758.06" x2="110.33" y2="738.46"/><path id="Path_215" data-name="Path 215" class="cls-6" d="M321.43,1090.35H291l16.06-21.85Z" transform="translate(-196.25 -352.09)"/><circle id="Ellipse_41" data-name="Ellipse 41" class="cls-7" cx="396.01" cy="745.33" r="7.07"/><circle id="Ellipse_42" data-name="Ellipse 42" class="cls-7" cx="396.01" cy="772.2" r="7.07"/><circle id="Ellipse_43" data-name="Ellipse 43" class="cls-7" cx="396.01" cy="799.07" r="7.07"/><line id="Line_54" data-name="Line 54" class="cls-5" x1="411.56" y1="745.33" x2="462.1" y2="745.33"/><line id="Line_55" data-name="Line 55" class="cls-5" x1="411.56" y1="772.2" x2="451.55" y2="772.2"/><line id="Line_56" data-name="Line 56" class="cls-5" x1="411.56" y1="799.07" x2="445.36" y2="799.07"/><line id="Line_57" data-name="Line 57" class="cls-5" x1="966.8" y1="715.42" x2="966.8" y2="735.22"/><path id="Path_217" data-name="Path 217" class="cls-6" d="M1148.84,1087.6h30.41l-16,21.84Z" transform="translate(-196.25 -352.09)"/><g id="_00:00-3" data-name=" 00:00-3" class="cls-8"><text class="cls-9" transform="translate(623.7 793.41)">00:00</text><text class="cls-9" transform="translate(623.7 793.41)">00:00</text></g><line id="Line_35" data-name="Line 35" class="cls-10" x1="98.84" y1="441.48" x2="98.84" y2="455.83"/><line id="Line_36" data-name="Line 36" class="cls-10" x1="108.74" y1="434.41" x2="108.74" y2="455.83"/><line id="Line_37" data-name="Line 37" class="cls-11" x1="120.05" y1="428.05" x2="120.05" y2="455.83"/><line id="Line_38" data-name="Line 38" class="cls-10" x1="129.95" y1="420.97" x2="129.95" y2="455.83"/><rect class="cls-3" x="408.52" y="259.53" width="275.78" height="106.8" rx="33.94"/><g id="_00:00-3-2" data-name=" 00:00-3" class="cls-8"><text class="cls-9" transform="translate(462.07 340.33)">0</text><text class="cls-8" x="-196.25" y="-352.09"/></g><rect class="cls-3" x="408.52" y="383.87" width="275.78" height="106.8" rx="33.94"/><g id="_00:00-3-3" data-name=" 00:00-3" class="cls-8"><text class="cls-9" transform="translate(462.07 464.67)">0</text><text class="cls-8" x="-196.25" y="-352.09"/></g><path class="cls-12" d="M444.17,782.58H423.76V771l-20.24,20.31,19.93,19.13v-12l20.72.1Z" transform="translate(-196.25 -352.09)"/><path class="cls-12" d="M520.69,782.58h20.4V771l20.25,20.31-19.93,19.13v-12l-20.72.1Z" transform="translate(-196.25 -352.09)"/><path class="cls-12" d="M444.17,656.65H423.76V645.1l-20.24,20.32,19.93,19.13v-12l20.72.11Z" transform="translate(-196.25 -352.09)"/><path class="cls-12" d="M520.69,656.65h20.4V645.1l20.25,20.32-19.93,19.13v-12l-20.72.11Z" transform="translate(-196.25 -352.09)"/><rect class="cls-13" x="747.27" y="205.33" width="392.15" height="463.88"/><rect class="cls-14" x="794.29" y="490.67" width="90.07" height="75.72" rx="17.82"/><rect class="cls-14" x="793.1" y="580.34" width="143.47" height="66.95" rx="17.82"/><rect class="cls-14" x="949.32" y="580.34" width="143.47" height="66.95" rx="17.82"/><rect class="cls-14" x="898.31" y="491.07" width="90.07" height="75.72" rx="17.82"/><rect class="cls-14" x="1005.91" y="491.07" width="90.07" height="75.72" rx="17.82"/><rect class="cls-14" x="792.7" y="401.41" width="90.07" height="75.72" rx="17.82"/><rect class="cls-14" x="896.71" y="401.8" width="90.07" height="75.72" rx="17.82"/><rect class="cls-14" x="1004.31" y="401.8" width="90.07" height="75.72" rx="17.82"/><rect class="cls-14" x="794.29" y="312.93" width="90.07" height="75.72" rx="17.82"/><rect class="cls-14" x="898.31" y="313.33" width="90.07" height="75.72" rx="17.82"/><rect class="cls-14" x="1005.91" y="313.33" width="90.07" height="75.72" rx="17.82"/><rect class="cls-14" x="792.7" y="223.67" width="90.07" height="75.72" rx="17.82"/><rect class="cls-14" x="896.71" y="224.06" width="90.07" height="75.72" rx="17.82"/><rect class="cls-14" x="1004.31" y="224.06" width="90.07" height="75.72" rx="17.82"/><g id="_00:00-3-4" data-name=" 00:00-3" class="cls-8"><text class="cls-15" transform="translate(826.42 546.41)">0</text><text class="cls-8" x="-196.25" y="-352.09"/></g><g id="_00:00-3-5" data-name=" 00:00-3" class="cls-8"><text class="cls-16" transform="translate(833.18 626.91)">ESC</text><text class="cls-16" transform="translate(967.5 626.91)">ENTER</text><text class="cls-8" x="-196.25" y="-352.09"/></g><g id="_00:00-3-6" data-name=" 00:00-3" class="cls-8"><text class="cls-15" transform="translate(826.59 458.67)">1</text><text class="cls-15" transform="translate(932.6 458.67)">2</text><text class="cls-15" transform="translate(1039.4 458.67)">3</text><text class="cls-15" transform="translate(1035.42 547.14)">C</text><text class="cls-15" transform="translate(938.97 546.34)">,</text><text class="cls-15" transform="translate(826.59 366.21)">4</text><text class="cls-15" transform="translate(932.6 366.21)">5</text><text class="cls-15" transform="translate(1039.4 366.21)">6</text><text class="cls-15" transform="translate(826.59 283.32)">7</text><text class="cls-15" transform="translate(932.6 283.32)">8</text><text class="cls-15" transform="translate(1039.4 283.32)">9</text><text class="cls-8" x="-196.25" y="-352.09"/></g><g id="_00:00-3-7" data-name=" 00:00-3" class="cls-8"><text class="cls-17" transform="translate(175.41 145.02)">Rør</text><text class="cls-8" x="-196.25" y="-352.09"/></g><path id="Path_236" data-name="Path 236" class="cls-18" d="M1232.81,438l55.8,55.06" transform="translate(-196.25 -352.09)"/><path id="Path_237" data-name="Path 237" class="cls-18" d="M1232.81,493.05l55.06-55.8" transform="translate(-196.25 -352.09)"/><rect id="Rectangle_377" data-name="Rectangle 377" class="cls-19" x="8.5" y="8.5" width="1139.89" height="848.56"/><circle id="Ellipse_44" data-name="Ellipse 44" class="cls-6" cx="115.34" cy="121.03" r="22.64"/><path id="Path_220" data-name="Path 220" class="cls-6" d="M277.28,440.75a50.31,50.31,0,0,1,34.31-15,43,43,0,0,1,31.84,14.12L326.8,456.35" transform="translate(-196.25 -352.09)"/><path id="Path_221" data-name="Path 221" class="cls-6" d="M285.6,448.52a32.83,32.83,0,0,1,26-11.5,26.33,26.33,0,0,1,22.64,11.5" transform="translate(-196.25 -352.09)"/><path id="Path_222" data-name="Path 222" class="cls-6" d="M344.43,504.42a50.31,50.31,0,0,1-34.31,15,43,43,0,0,1-31.84-14.12l16.63-16.48" transform="translate(-196.25 -352.09)"/><path id="Path_223" data-name="Path 223" class="cls-6" d="M336.11,496.64a32.87,32.87,0,0,1-26,11.51,26.31,26.31,0,0,1-22.64-11.51" transform="translate(-196.25 -352.09)"/><circle id="Ellipse_45" data-name="Ellipse 45" class="cls-7" cx="115.34" cy="121.03" r="8.49"/><circle id="Ellipse_40" data-name="Ellipse 40" class="cls-20" cx="114.55" cy="312.72" r="16.27"/><line id="Line_52" data-name="Line 52" class="cls-21" x1="114.55" y1="312.72" x2="120.91" y2="306.35"/><path id="Path_192" data-name="Path 192" class="cls-7" d="M1167,1125l87.52-.28-43.45,44.9Z" transform="translate(-196.25 -352.09)"/><path class="cls-6" d="M288.48,1122.5l19,0,46.42,46.42,49-49-55.76-55.77" transform="translate(-196.25 -352.09)"/><path class="cls-6" d="M1145.41,1123.19l19,0,46.42,46.41,49-49-55.76-55.76" transform="translate(-196.25 -352.09)"/></g></svg>