<svg id="Layer_1" data-name="Layer 1" xmlns="http://www.w3.org/2000/svg" viewBox="0 0 1156.89 866.63"><defs><style>.cls-1,.cls-19,.cls-6{fill:#60b22f;}.cls-1,.cls-18,.cls-19,.cls-22{stroke:#60b22f;}.cls-1,.cls-12,.cls-17,.cls-22,.cls-7,.cls-8{stroke-miterlimit:10;}.cls-17,.cls-18,.cls-2,.cls-20,.cls-21,.cls-22,.cls-7,.cls-8{fill:none;}.cls-17,.cls-2,.cls-8{stroke:#292928;}.cls-11,.cls-17,.cls-18,.cls-19,.cls-2,.cls-20,.cls-21,.cls-22,.cls-7,.cls-8{stroke-linecap:round;}.cls-11,.cls-18,.cls-19,.cls-2,.cls-20,.cls-21{stroke-linejoin:round;}.cls-11,.cls-19,.cls-2,.cls-20,.cls-21,.cls-22,.cls-8{stroke-width:3px;}.cls-11,.cls-3{fill:#737373;}.cls-4{fill:#eae6e1;}.cls-5{fill:#ececec;}.cls-12,.cls-20,.cls-7{stroke:#ececec;}.cls-17,.cls-7{stroke-width:5px;}.cls-10,.cls-14,.cls-15,.cls-16,.cls-9{isolation:isolate;}.cls-10,.cls-16{font-size:73.54px;}.cls-10,.cls-14,.cls-15,.cls-16{fill:#292928;font-family:RobotoCondensed-Regular, Roboto Condensed;}.cls-10{letter-spacing:0.16em;}.cls-11,.cls-21{stroke:#737373;}.cls-12{fill:#e7ece6;}.cls-13{fill:#f6f6f6;}.cls-14{font-size:53.15px;letter-spacing:0.16em;}.cls-15{font-size:31.88px;letter-spacing:0.16em;}.cls-16{letter-spacing:0.05em;}.cls-18{stroke-width:17px;}</style></defs><path id="Path_168" data-name="Path 168" class="cls-1" d="M313.5,373.45v36.7L339,435.59a35.72,35.72,0,0,0,10.06-16c4.19-14.13-2.19-26-3.55-28.41A41.89,41.89,0,0,0,313.5,373.45Z" transform="translate(-199.5 -291.24)"/><circle id="Ellipse_33" data-name="Ellipse 33" class="cls-2" cx="113.4" cy="118.32" r="36.1"/><rect class="cls-3" x="61.01" y="259.53" width="106.8" height="106.8" rx="38.35"/><rect class="cls-4" x="175.79" y="259.53" width="106.8" height="106.8" rx="38.35"/><rect class="cls-4" x="288.17" y="259.53" width="106.8" height="106.8" rx="38.35"/><rect class="cls-4" x="175.79" y="387.06" width="106.8" height="106.8" rx="38.35"/><rect class="cls-4" x="288.17" y="387.06" width="106.8" height="106.8" rx="38.35"/><rect class="cls-5" x="61.01" y="383.87" width="106.8" height="106.8" rx="38.35"/><path id="Path_192" data-name="Path 192" class="cls-6" d="M1170.59,1069.37l87.51-.28-43.45,44.9Z" transform="translate(-199.5 -291.24)"/><line id="Line_48" data-name="Line 48" class="cls-7" x1="8.9" y1="671.08" x2="1146.49" y2="671.08"/><line id="Line_48-2" data-name="Line 48" class="cls-7" x1="8.08" y1="203.22" x2="1148.08" y2="203.22"/><line id="Line_49" data-name="Line 49" class="cls-7" x1="288.52" y1="671.08" x2="288.52" y2="861.81"/><line id="Line_50" data-name="Line 50" class="cls-7" x1="579.86" y1="673.41" x2="579.43" y2="864.13"/><line id="Line_51" data-name="Line 51" class="cls-7" x1="869.78" y1="671.08" x2="869.78" y2="863.36"/><line id="Line_53" data-name="Line 53" class="cls-8" x1="110.33" y1="758.06" x2="110.33" y2="738.46"/><path id="Path_215" data-name="Path 215" class="cls-2" d="M324.68,1029.5H294.27l16.06-21.84Z" transform="translate(-199.5 -291.24)"/><circle id="Ellipse_41" data-name="Ellipse 41" class="cls-6" cx="396.01" cy="745.33" r="7.07"/><circle id="Ellipse_42" data-name="Ellipse 42" class="cls-6" cx="396.01" cy="772.2" r="7.07"/><circle id="Ellipse_43" data-name="Ellipse 43" class="cls-6" cx="396.01" cy="799.07" r="7.07"/><line id="Line_54" data-name="Line 54" class="cls-8" x1="411.56" y1="745.33" x2="462.1" y2="745.33"/><line id="Line_55" data-name="Line 55" class="cls-8" x1="411.56" y1="772.2" x2="451.55" y2="772.2"/><line id="Line_56" data-name="Line 56" class="cls-8" x1="411.56" y1="799.07" x2="445.36" y2="799.07"/><line id="Line_57" data-name="Line 57" class="cls-8" x1="966.8" y1="715.42" x2="966.8" y2="735.22"/><path id="Path_217" data-name="Path 217" class="cls-2" d="M1152.09,1026.75h30.41l-16,21.84Z" transform="translate(-199.5 -291.24)"/><g id="_00:00-3" data-name=" 00:00-3" class="cls-9"><text class="cls-10" transform="translate(623.7 793.41)">00:00</text><text class="cls-10" transform="translate(623.7 793.41)">00:00</text></g><rect class="cls-5" x="408.52" y="259.53" width="275.78" height="106.8" rx="33.94"/><g id="_00:00-3-2" data-name=" 00:00-3" class="cls-9"><text class="cls-10" transform="translate(441.07 340.33)">00:00</text><text class="cls-9" x="-199.5" y="-291.24"/></g><rect class="cls-5" x="408.52" y="383.87" width="275.78" height="106.8" rx="33.94"/><path class="cls-11" d="M447.42,721.74H427V710.19L406.77,730.5l19.93,19.13v-12l20.72.1Z" transform="translate(-199.5 -291.24)"/><path class="cls-11" d="M523.94,721.74h20.4V710.19l20.25,20.31-19.93,19.13v-12l-20.72.1Z" transform="translate(-199.5 -291.24)"/><path class="cls-11" d="M447.42,595.8H427V584.25l-20.24,20.32L426.7,623.7v-12l20.72.11Z" transform="translate(-199.5 -291.24)"/><path class="cls-11" d="M523.94,595.8h20.4V584.25l20.25,20.32L544.66,623.7v-12l-20.72.11Z" transform="translate(-199.5 -291.24)"/><rect class="cls-12" x="747.27" y="205.33" width="392.15" height="463.88"/><rect class="cls-13" x="794.29" y="490.67" width="90.07" height="75.72" rx="17.82"/><rect class="cls-13" x="793.1" y="580.34" width="143.47" height="66.95" rx="17.82"/><rect class="cls-13" x="949.32" y="580.34" width="143.47" height="66.95" rx="17.82"/><rect class="cls-13" x="898.31" y="491.07" width="90.07" height="75.72" rx="17.82"/><rect class="cls-13" x="1005.91" y="491.07" width="90.07" height="75.72" rx="17.82"/><rect class="cls-13" x="792.7" y="401.41" width="90.07" height="75.72" rx="17.82"/><rect class="cls-13" x="896.71" y="401.8" width="90.07" height="75.72" rx="17.82"/><rect class="cls-13" x="1004.31" y="401.8" width="90.07" height="75.72" rx="17.82"/><rect class="cls-13" x="794.29" y="312.93" width="90.07" height="75.72" rx="17.82"/><rect class="cls-13" x="898.31" y="313.33" width="90.07" height="75.72" rx="17.82"/><rect class="cls-13" x="1005.91" y="313.33" width="90.07" height="75.72" rx="17.82"/><rect class="cls-13" x="792.7" y="223.67" width="90.07" height="75.72" rx="17.82"/><rect class="cls-13" x="896.71" y="224.06" width="90.07" height="75.72" rx="17.82"/><rect class="cls-13" x="1004.31" y="224.06" width="90.07" height="75.72" rx="17.82"/><g id="_00:00-3-3" data-name=" 00:00-3" class="cls-9"><text class="cls-14" transform="translate(826.42 546.41)">0</text><text class="cls-9" x="-199.5" y="-291.24"/></g><g id="_00:00-3-4" data-name=" 00:00-3" class="cls-9"><text class="cls-15" transform="translate(833.18 626.91)">ESC</text><text class="cls-15" transform="translate(967.5 626.91)">ENTER</text><text class="cls-9" x="-199.5" y="-291.24"/></g><g id="_00:00-3-5" data-name=" 00:00-3" class="cls-9"><text class="cls-14" transform="translate(826.59 458.67)">1</text><text class="cls-14" transform="translate(932.6 458.67)">2</text><text class="cls-14" transform="translate(1039.4 458.67)">3</text><text class="cls-14" transform="translate(1035.42 547.14)">C</text><text class="cls-14" transform="translate(938.97 546.34)">,</text><text class="cls-14" transform="translate(826.59 366.21)">4</text><text class="cls-14" transform="translate(932.6 366.21)">5</text><text class="cls-14" transform="translate(1039.4 366.21)">6</text><text class="cls-14" transform="translate(826.59 283.32)">7</text><text class="cls-14" transform="translate(932.6 283.32)">8</text><text class="cls-14" transform="translate(1039.4 283.32)">9</text><text class="cls-9" x="-199.5" y="-291.24"/></g><g id="_00:00-3-6" data-name=" 00:00-3" class="cls-9"><text class="cls-16" transform="translate(175.41 145.02)">Tid</text><text class="cls-9" x="-199.5" y="-291.24"/></g><path id="Path_236" data-name="Path 236" class="cls-17" d="M1236.06,377.16l55.8,55.07" transform="translate(-199.5 -291.24)"/><path id="Path_237" data-name="Path 237" class="cls-17" d="M1236.06,432.21l55.06-55.8" transform="translate(-199.5 -291.24)"/><rect id="Rectangle_377" data-name="Rectangle 377" class="cls-18" x="8.5" y="8.5" width="1139.89" height="848.56"/><path class="cls-2" d="M292.09,1066.87l19,0,46.42,46.42,49-49-55.76-55.76" transform="translate(-199.5 -291.24)"/><path class="cls-2" d="M1149,1067.57l19,0,46.41,46.42,49-49-55.76-55.76" transform="translate(-199.5 -291.24)"/><path id="Path_167" data-name="Path 167" class="cls-19" d="M308.82,622.3l5.45-6,5.16,6Z" transform="translate(-199.5 -291.24)"/><path id="Path_184" data-name="Path 184" class="cls-20" d="M297.51,585.53h32.35l-32.35,38,33.94.19Z" transform="translate(-199.5 -291.24)"/><circle id="Ellipse_34" data-name="Ellipse 34" class="cls-21" cx="115.27" cy="438.21" r="16.26"/><line id="Line_23" data-name="Line 23" class="cls-22" x1="115.27" y1="438.21" x2="121.64" y2="431.84"/><g id="_00:00-3-7" data-name=" 00:00-3" class="cls-9"><text class="cls-10" transform="translate(441.07 463.33)">00:00</text><text class="cls-9" x="-199.5" y="-291.24"/></g></svg>