<svg xmlns="http://www.w3.org/2000/svg" viewBox="0 0 15 15"><g id="Layer_2" data-name="Layer 2"><g id="Layer_1-2" data-name="Layer 1"><g id="Group_55" data-name="Group 55"><g id="Layer_2-2" data-name="Layer 2-2"><g id="Layer_1-2-2" data-name="Layer 1-2"><path id="Path_138" data-name="Path 138" d="M15,7.5h0a1.25,1.25,0,0,1-1.25,1.25h-5v5A1.25,1.25,0,0,1,7.5,15h0a1.25,1.25,0,0,1-1.25-1.25v-5h-5A1.25,1.25,0,0,1,0,7.5H0A1.25,1.25,0,0,1,1.25,6.25h5v-5A1.25,1.25,0,0,1,7.5,0h0A1.25,1.25,0,0,1,8.75,1.25v5h5A1.25,1.25,0,0,1,15,7.5Z"/></g></g></g></g></g></svg>