<svg id="Layer_2" data-name="Layer 2" xmlns="http://www.w3.org/2000/svg" viewBox="0 0 1156.89 866.63"><defs><style>.cls-1,.cls-20{fill:#60b22f;}.cls-10,.cls-18,.cls-19,.cls-2,.cls-21,.cls-22,.cls-6,.cls-7{fill:none;}.cls-18,.cls-2,.cls-7{stroke:#292928;}.cls-10,.cls-11,.cls-18,.cls-19,.cls-2,.cls-20,.cls-21,.cls-22,.cls-6,.cls-7{stroke-linecap:round;}.cls-10,.cls-11,.cls-19,.cls-2,.cls-20,.cls-21{stroke-linejoin:round;}.cls-10,.cls-11,.cls-2,.cls-20,.cls-21,.cls-22,.cls-7{stroke-width:3px;}.cls-3{fill:#ececec;}.cls-11,.cls-4{fill:#737373;}.cls-5{fill:#eae6e1;}.cls-12,.cls-6{stroke:#ececec;}.cls-12,.cls-18,.cls-22,.cls-6,.cls-7{stroke-miterlimit:10;}.cls-18,.cls-6{stroke-width:5px;}.cls-14,.cls-15,.cls-16,.cls-8,.cls-9{isolation:isolate;}.cls-16,.cls-9{font-size:73.54px;}.cls-14,.cls-15,.cls-16,.cls-9{fill:#292928;font-family:RobotoCondensed-Regular, Roboto Condensed;}.cls-9{letter-spacing:0.16em;}.cls-10,.cls-11{stroke:#737373;}.cls-12{fill:#e7ece6;}.cls-13{fill:#f6f6f6;}.cls-14{font-size:53.15px;letter-spacing:0.16em;}.cls-15{font-size:31.88px;letter-spacing:0.16em;}.cls-16{letter-spacing:0.03em;}.cls-17{letter-spacing:0.05em;}.cls-19,.cls-20,.cls-21,.cls-22{stroke:#60b22f;}.cls-19{stroke-width:17px;}</style></defs><path id="Path_192" data-name="Path 192" class="cls-1" d="M1142.13,892l87.52-.28-43.45,44.9Z" transform="translate(-171.27 -118.34)"/><path class="cls-2" d="M263.63,889.5l19,0,46.41,46.42,49-49-55.76-55.77" transform="translate(-171.27 -118.34)"/><path class="cls-2" d="M1120.56,890.19l19,0L1186,936.57l49-49q-27.87-27.89-55.76-55.76" transform="translate(-171.27 -118.34)"/><rect class="cls-3" x="175.52" y="257.53" width="219.21" height="106.8" rx="33.94"/><rect class="cls-4" x="61.01" y="259.53" width="106.8" height="106.8" rx="38.35"/><rect class="cls-5" x="175.79" y="387.06" width="106.8" height="106.8" rx="38.35"/><rect class="cls-5" x="288.17" y="387.06" width="106.8" height="106.8" rx="38.35"/><rect class="cls-3" x="61.01" y="383.87" width="106.8" height="106.8" rx="38.35"/><line id="Line_48" data-name="Line 48" class="cls-6" x1="8.9" y1="671.08" x2="1146.49" y2="671.08"/><line id="Line_48-2" data-name="Line 48" class="cls-6" x1="8.08" y1="203.22" x2="1148.08" y2="203.22"/><line id="Line_49" data-name="Line 49" class="cls-6" x1="288.52" y1="671.08" x2="288.52" y2="861.81"/><line id="Line_50" data-name="Line 50" class="cls-6" x1="579.86" y1="673.41" x2="579.43" y2="864.13"/><line id="Line_51" data-name="Line 51" class="cls-6" x1="869.78" y1="671.08" x2="869.78" y2="863.36"/><line id="Line_53" data-name="Line 53" class="cls-7" x1="110.33" y1="758.06" x2="110.33" y2="738.46"/><path id="Path_215" data-name="Path 215" class="cls-2" d="M296.44,856.6H266l16-21.84Z" transform="translate(-171.27 -118.34)"/><circle id="Ellipse_41" data-name="Ellipse 41" class="cls-1" cx="396.01" cy="745.33" r="7.07"/><circle id="Ellipse_42" data-name="Ellipse 42" class="cls-1" cx="396.01" cy="772.2" r="7.07"/><circle id="Ellipse_43" data-name="Ellipse 43" class="cls-1" cx="396.01" cy="799.07" r="7.07"/><line id="Line_54" data-name="Line 54" class="cls-7" x1="411.56" y1="745.33" x2="462.1" y2="745.33"/><line id="Line_55" data-name="Line 55" class="cls-7" x1="411.56" y1="772.2" x2="451.55" y2="772.2"/><line id="Line_56" data-name="Line 56" class="cls-7" x1="411.56" y1="799.07" x2="445.36" y2="799.07"/><line id="Line_57" data-name="Line 57" class="cls-7" x1="966.8" y1="715.42" x2="966.8" y2="735.22"/><path id="Path_217" data-name="Path 217" class="cls-2" d="M1123.85,853.85h30.41l-16,21.84Z" transform="translate(-171.27 -118.34)"/><g id="_00:00-3" data-name=" 00:00-3" class="cls-8"><text class="cls-9" transform="translate(623.7 793.41)">00:00</text><text class="cls-9" transform="translate(623.7 793.41)">00:00</text></g><path id="Path_200" data-name="Path 200" class="cls-10" d="M437.71,416v32.94H470.8V416" transform="translate(-171.27 -118.34)"/><rect class="cls-3" x="408.52" y="259.53" width="275.78" height="106.8" rx="33.94"/><g id="_00:00-3-2" data-name=" 00:00-3" class="cls-8"><text class="cls-9" transform="translate(462.07 340.33)">0.0</text><text class="cls-8" x="-171.27" y="-118.34"/></g><rect class="cls-3" x="408.52" y="383.87" width="275.78" height="106.8" rx="33.94"/><rect class="cls-3" x="60.52" y="526.87" width="624.21" height="106.8" rx="33.94"/><g id="_00:00-3-3" data-name=" 00:00-3" class="cls-8"><text class="cls-9" transform="translate(462.07 464.67)">0</text><text class="cls-8" x="-171.27" y="-118.34"/></g><path class="cls-11" d="M419.19,548.84H398.78V537.29l-20.24,20.32,19.92,19.13v-12l20.73.1Z" transform="translate(-171.27 -118.34)"/><path class="cls-11" d="M495.7,548.84h20.41V537.29l20.24,20.32-19.92,19.13v-12l-20.73.1Z" transform="translate(-171.27 -118.34)"/><rect class="cls-12" x="747.27" y="205.33" width="392.15" height="463.88"/><rect class="cls-13" x="794.29" y="490.67" width="90.07" height="75.72" rx="17.82"/><rect class="cls-13" x="793.1" y="580.34" width="143.47" height="66.95" rx="17.82"/><rect class="cls-13" x="949.32" y="580.34" width="143.47" height="66.95" rx="17.82"/><rect class="cls-13" x="898.31" y="491.07" width="90.07" height="75.72" rx="17.82"/><rect class="cls-13" x="1005.91" y="491.07" width="90.07" height="75.72" rx="17.82"/><rect class="cls-13" x="792.7" y="401.41" width="90.07" height="75.72" rx="17.82"/><rect class="cls-13" x="896.71" y="401.8" width="90.07" height="75.72" rx="17.82"/><rect class="cls-13" x="1004.31" y="401.8" width="90.07" height="75.72" rx="17.82"/><rect class="cls-13" x="794.29" y="312.93" width="90.07" height="75.72" rx="17.82"/><rect class="cls-13" x="898.31" y="313.33" width="90.07" height="75.72" rx="17.82"/><rect class="cls-13" x="1005.91" y="313.33" width="90.07" height="75.72" rx="17.82"/><rect class="cls-13" x="792.7" y="223.67" width="90.07" height="75.72" rx="17.82"/><rect class="cls-13" x="896.71" y="224.06" width="90.07" height="75.72" rx="17.82"/><rect class="cls-13" x="1004.31" y="224.06" width="90.07" height="75.72" rx="17.82"/><g id="_00:00-3-4" data-name=" 00:00-3" class="cls-8"><text class="cls-14" transform="translate(826.42 546.41)">0</text><text class="cls-8" x="-171.27" y="-118.34"/></g><g id="_00:00-3-5" data-name=" 00:00-3" class="cls-8"><text class="cls-15" transform="translate(833.18 626.91)">ESC</text><text class="cls-15" transform="translate(967.5 626.91)">ENTER</text><text class="cls-8" x="-171.27" y="-118.34"/></g><g id="_00:00-3-6" data-name=" 00:00-3" class="cls-8"><text class="cls-14" transform="translate(826.59 458.67)">1</text><text class="cls-14" transform="translate(932.6 458.67)">2</text><text class="cls-14" transform="translate(1039.4 458.67)">3</text><text class="cls-14" transform="translate(1035.42 547.14)">C</text><text class="cls-14" transform="translate(938.97 546.34)">,</text><text class="cls-14" transform="translate(826.59 366.21)">4</text><text class="cls-14" transform="translate(932.6 366.21)">5</text><text class="cls-14" transform="translate(1039.4 366.21)">6</text><text class="cls-14" transform="translate(826.59 283.32)">7</text><text class="cls-14" transform="translate(932.6 283.32)">8</text><text class="cls-14" transform="translate(1039.4 283.32)">9</text><text class="cls-8" x="-171.27" y="-118.34"/></g><g id="_00:00-3-7" data-name=" 00:00-3" class="cls-8"><text class="cls-16" transform="translate(175.41 145.02)">V<tspan class="cls-17" x="43.21" y="0">and</tspan></text><text class="cls-8" x="-171.27" y="-118.34"/></g><path id="Path_236" data-name="Path 236" class="cls-18" d="M1207.83,204.26l55.79,55.07" transform="translate(-171.27 -118.34)"/><path id="Path_237" data-name="Path 237" class="cls-18" d="M1207.82,259.31l55.07-55.8" transform="translate(-171.27 -118.34)"/><rect id="Rectangle_377" data-name="Rectangle 377" class="cls-19" x="8.5" y="8.5" width="1139.89" height="848.56"/><path id="Path_202" data-name="Path 202" class="cls-2" d="M285.66,200l-23.55,29.16a24.43,24.43,0,0,0-2.9,27.56,29.12,29.12,0,0,0,26.45,17.11,31.3,31.3,0,0,0,26.92-15.5,26.36,26.36,0,0,0-2.24-29.17Z" transform="translate(-171.27 -118.34)"/><path id="Path_204" data-name="Path 204" class="cls-20" d="M286.25,222.43,273.9,237.72a12.81,12.81,0,0,0-1.52,14.44,15.26,15.26,0,0,0,13.87,9A16.41,16.41,0,0,0,300.36,253a13.84,13.84,0,0,0-1.18-15.29Z" transform="translate(-171.27 -118.34)"/><path id="Path_206" data-name="Path 206" class="cls-21" d="M290.29,533.8l-5.57,6.89a5.79,5.79,0,0,0-.69,6.52,6.87,6.87,0,0,0,6.26,4,7.39,7.39,0,0,0,6.36-3.66,6.22,6.22,0,0,0-.53-6.9Z" transform="translate(-171.27 -118.34)"/><path id="Path_207" data-name="Path 207" class="cls-21" d="M291.86,560.54l-5.57,6.9a5.75,5.75,0,0,0-.68,6.51,6.88,6.88,0,0,0,6.25,4,7.38,7.38,0,0,0,6.36-3.67,6.22,6.22,0,0,0,.8-3.18,6.31,6.31,0,0,0-1.33-3.71Z" transform="translate(-171.27 -118.34)"/><path id="Path_208" data-name="Path 208" class="cls-21" d="M273,548l-5.57,6.89a5.78,5.78,0,0,0-.68,6.52,6.87,6.87,0,0,0,6.25,4,7.42,7.42,0,0,0,6.37-3.66,6.31,6.31,0,0,0,.79-3.18,6.42,6.42,0,0,0-1.32-3.72Z" transform="translate(-171.27 -118.34)"/><path id="Path_206-2" data-name="Path 206" class="cls-21" d="M454,417.57l-4.29,5.3a4.47,4.47,0,0,0-.52,5A5.29,5.29,0,0,0,454,431a5.71,5.71,0,0,0,4.9-2.82,4.77,4.77,0,0,0,.61-2.45,4.93,4.93,0,0,0-1-2.86Z" transform="translate(-171.27 -118.34)"/><path id="Path_200-2" data-name="Path 200" class="cls-10" d="M527.28,682.52v32.94h33.09V682.52" transform="translate(-171.27 -118.34)"/><path id="Path_236-2" data-name="Path 236" class="cls-22" d="M521.49,685.83,565.66,711" transform="translate(-171.27 -118.34)"/><path id="Path_206-3" data-name="Path 206" class="cls-21" d="M284.55,414.94l-9.69,12a10,10,0,0,0-1.19,11.33,12,12,0,0,0,10.88,7,12.88,12.88,0,0,0,11.06-6.37,10.94,10.94,0,0,0,1.39-5.54,11.08,11.08,0,0,0-2.31-6.46Z" transform="translate(-171.27 -118.34)"/></svg>