<svg id="Layer_2" data-name="Layer 2" xmlns="http://www.w3.org/2000/svg" viewBox="0 0 1156.89 866.63"><defs><style>.cls-1,.cls-14,.cls-15{fill:#737373;}.cls-2{fill:#eae6e1;}.cls-3{fill:#ececec;}.cls-10,.cls-13,.cls-4{fill:#60b22f;}.cls-11,.cls-12,.cls-22,.cls-23,.cls-5,.cls-6,.cls-7{fill:none;}.cls-11,.cls-16,.cls-5{stroke:#ececec;}.cls-10,.cls-11,.cls-12,.cls-13,.cls-14,.cls-15,.cls-22,.cls-23,.cls-5,.cls-6,.cls-7{stroke-linecap:round;}.cls-13,.cls-14,.cls-16,.cls-22,.cls-5,.cls-6{stroke-miterlimit:10;}.cls-22,.cls-5{stroke-width:5px;}.cls-10,.cls-22,.cls-6,.cls-7{stroke:#292928;}.cls-10,.cls-11,.cls-12,.cls-13,.cls-14,.cls-15,.cls-6,.cls-7{stroke-width:3px;}.cls-10,.cls-11,.cls-12,.cls-15,.cls-23,.cls-7{stroke-linejoin:round;}.cls-18,.cls-19,.cls-20,.cls-8,.cls-9{isolation:isolate;}.cls-20,.cls-9{font-size:73.54px;}.cls-18,.cls-19,.cls-20,.cls-9{fill:#292928;font-family:RobotoCondensed-Regular, Roboto Condensed;}.cls-9{letter-spacing:0.16em;}.cls-12,.cls-14,.cls-15{stroke:#737373;}.cls-13,.cls-23{stroke:#60b22f;}.cls-16{fill:#e7ece6;}.cls-17{fill:#f6f6f6;}.cls-18{font-size:53.15px;letter-spacing:0.16em;}.cls-19{font-size:31.88px;letter-spacing:0.16em;}.cls-20{letter-spacing:0.03em;}.cls-21{letter-spacing:0.05em;}.cls-23{stroke-width:17px;}</style></defs><rect class="cls-1" x="61.01" y="259.53" width="106.8" height="106.8" rx="38.35"/><rect class="cls-2" x="175.79" y="259.53" width="106.8" height="106.8" rx="38.35"/><rect class="cls-2" x="288.17" y="259.53" width="106.8" height="106.8" rx="38.35"/><rect class="cls-2" x="175.79" y="387.06" width="106.8" height="106.8" rx="38.35"/><rect class="cls-2" x="288.17" y="387.06" width="106.8" height="106.8" rx="38.35"/><rect class="cls-2" x="175.79" y="514.59" width="106.8" height="106.8" rx="38.35"/><rect class="cls-2" x="288.17" y="514.59" width="106.8" height="106.8" rx="38.35"/><rect class="cls-3" x="61.01" y="383.87" width="106.8" height="106.8" rx="38.35"/><rect class="cls-3" x="61.01" y="515.38" width="106.8" height="106.8" rx="38.35"/><path id="Path_192" data-name="Path 192" class="cls-4" d="M1333,1081l87.51-.28-43.45,44.9Z" transform="translate(-361.92 -302.87)"/><line id="Line_48" data-name="Line 48" class="cls-5" x1="8.9" y1="671.08" x2="1146.49" y2="671.08"/><line id="Line_48-2" data-name="Line 48" class="cls-5" x1="8.08" y1="203.22" x2="1148.08" y2="203.22"/><line id="Line_49" data-name="Line 49" class="cls-5" x1="288.52" y1="671.08" x2="288.52" y2="861.81"/><line id="Line_50" data-name="Line 50" class="cls-5" x1="579.86" y1="673.41" x2="579.43" y2="864.13"/><line id="Line_51" data-name="Line 51" class="cls-5" x1="869.78" y1="671.08" x2="869.78" y2="863.36"/><line id="Line_53" data-name="Line 53" class="cls-6" x1="110.33" y1="758.06" x2="110.33" y2="738.46"/><path id="Path_215" data-name="Path 215" class="cls-7" d="M487.09,1041.13h-30.4l16.05-21.85Z" transform="translate(-361.92 -302.87)"/><circle id="Ellipse_41" data-name="Ellipse 41" class="cls-4" cx="396.01" cy="745.33" r="7.07"/><circle id="Ellipse_42" data-name="Ellipse 42" class="cls-4" cx="396.01" cy="772.2" r="7.07"/><circle id="Ellipse_43" data-name="Ellipse 43" class="cls-4" cx="396.01" cy="799.07" r="7.07"/><line id="Line_54" data-name="Line 54" class="cls-6" x1="411.56" y1="745.33" x2="462.1" y2="745.33"/><line id="Line_55" data-name="Line 55" class="cls-6" x1="411.56" y1="772.2" x2="451.55" y2="772.2"/><line id="Line_56" data-name="Line 56" class="cls-6" x1="411.56" y1="799.07" x2="445.36" y2="799.07"/><line id="Line_57" data-name="Line 57" class="cls-6" x1="966.8" y1="715.42" x2="966.8" y2="735.22"/><path id="Path_217" data-name="Path 217" class="cls-7" d="M1314.5,1038.38h30.41l-16.05,21.84Z" transform="translate(-361.92 -302.87)"/><g id="_00:00-3" data-name=" 00:00-3" class="cls-8"><text class="cls-9" transform="translate(623.7 793.41)">00:00</text><text class="cls-9" transform="translate(623.7 793.41)">00:00</text></g><circle id="Ellipse_38" data-name="Ellipse 38" class="cls-10" cx="114.32" cy="133.87" r="21.21"/><path id="Path_199" data-name="Path 199" class="cls-7" d="M476.94,384.41a9.22,9.22,0,0,1,9.19,9.19v23.34a29.33,29.33,0,0,0-11.31-1.42,28.81,28.81,0,0,0-7.07,1.42V393.6A9.22,9.22,0,0,1,476.94,384.41Z" transform="translate(-361.92 -302.87)"/><rect id="Rectangle_390" data-name="Rectangle 390" class="cls-4" x="107.24" y="103.68" width="15.5" height="15.13"/><path id="Path_200" data-name="Path 200" class="cls-11" d="M460.36,602.46v24h33.09v-24" transform="translate(-361.92 -302.87)"/><path id="Path_201" data-name="Path 201" class="cls-12" d="M460,722.46v36h33.08v-36" transform="translate(-361.92 -302.87)"/><line id="Line_34" data-name="Line 34" class="cls-13" x1="98.44" y1="332.12" x2="131.52" y2="332.12"/><line id="Line_35" data-name="Line 35" class="cls-14" x1="98.84" y1="569.48" x2="98.84" y2="583.83"/><line id="Line_36" data-name="Line 36" class="cls-14" x1="108.74" y1="562.41" x2="108.74" y2="583.83"/><line id="Line_37" data-name="Line 37" class="cls-13" x1="120.05" y1="556.05" x2="120.05" y2="583.83"/><line id="Line_38" data-name="Line 38" class="cls-14" x1="129.95" y1="548.97" x2="129.95" y2="583.83"/><line id="Line_61" data-name="Line 61" class="cls-13" x1="123.28" y1="432.32" x2="123.28" y2="449.25"/><rect class="cls-3" x="408.52" y="259.53" width="275.78" height="106.8" rx="33.94"/><g id="_00:00-3-2" data-name=" 00:00-3" class="cls-8"><text class="cls-9" transform="translate(462.07 340.33)">0</text><text class="cls-8" x="-361.92" y="-302.87"/></g><rect class="cls-3" x="408.52" y="383.87" width="275.78" height="106.8" rx="33.94"/><g id="_00:00-3-3" data-name=" 00:00-3" class="cls-8"><text class="cls-9" transform="translate(462.07 464.67)">0</text><text class="cls-8" x="-361.92" y="-302.87"/></g><rect class="cls-3" x="408.52" y="512.99" width="275.78" height="106.8" rx="33.94"/><g id="_00:00-3-4" data-name=" 00:00-3" class="cls-8"><text class="cls-9" transform="translate(462.07 593.79)">0</text><text class="cls-8" x="-361.92" y="-302.87"/></g><path class="cls-15" d="M609.83,733.37h-20.4V721.82l-20.25,20.31,19.93,19.13v-12l20.72.1Z" transform="translate(-361.92 -302.87)"/><path class="cls-15" d="M609.83,860.89h-20.4V849.34l-20.25,20.32,19.93,19.13v-12l20.72.11Z" transform="translate(-361.92 -302.87)"/><path class="cls-15" d="M686.35,733.37h20.41V721.82L727,742.13q-10,9.57-19.93,19.13v-12l-20.72.1Z" transform="translate(-361.92 -302.87)"/><path class="cls-15" d="M609.83,607.43h-20.4V595.88L569.18,616.2l19.93,19.13v-12l20.72.11Z" transform="translate(-361.92 -302.87)"/><path class="cls-15" d="M686.35,607.43h20.41V595.88L727,616.2l-19.93,19.13v-12l-20.72.11Z" transform="translate(-361.92 -302.87)"/><path class="cls-15" d="M686.35,860.89h20.41V849.34L727,869.66l-19.93,19.13v-12l-20.72.11Z" transform="translate(-361.92 -302.87)"/><rect class="cls-16" x="747.27" y="205.33" width="392.15" height="463.88"/><rect class="cls-17" x="794.29" y="490.67" width="90.07" height="75.72" rx="17.82"/><rect class="cls-17" x="793.1" y="580.34" width="143.47" height="66.95" rx="17.82"/><rect class="cls-17" x="949.32" y="580.34" width="143.47" height="66.95" rx="17.82"/><rect class="cls-17" x="898.31" y="491.07" width="90.07" height="75.72" rx="17.82"/><rect class="cls-17" x="1005.91" y="491.07" width="90.07" height="75.72" rx="17.82"/><rect class="cls-17" x="792.7" y="401.41" width="90.07" height="75.72" rx="17.82"/><rect class="cls-17" x="896.71" y="401.8" width="90.07" height="75.72" rx="17.82"/><rect class="cls-17" x="1004.31" y="401.8" width="90.07" height="75.72" rx="17.82"/><rect class="cls-17" x="794.29" y="312.93" width="90.07" height="75.72" rx="17.82"/><rect class="cls-17" x="898.31" y="313.33" width="90.07" height="75.72" rx="17.82"/><rect class="cls-17" x="1005.91" y="313.33" width="90.07" height="75.72" rx="17.82"/><rect class="cls-17" x="792.7" y="223.67" width="90.07" height="75.72" rx="17.82"/><rect class="cls-17" x="896.71" y="224.06" width="90.07" height="75.72" rx="17.82"/><rect class="cls-17" x="1004.31" y="224.06" width="90.07" height="75.72" rx="17.82"/><g id="_00:00-3-5" data-name=" 00:00-3" class="cls-8"><text class="cls-18" transform="translate(826.42 546.41)">0</text><text class="cls-8" x="-361.92" y="-302.87"/></g><g id="_00:00-3-6" data-name=" 00:00-3" class="cls-8"><text class="cls-19" transform="translate(833.18 626.91)">ESC</text><text class="cls-19" transform="translate(967.5 626.91)">ENTER</text><text class="cls-8" x="-361.92" y="-302.87"/></g><g id="_00:00-3-7" data-name=" 00:00-3" class="cls-8"><text class="cls-18" transform="translate(826.59 458.67)">1</text><text class="cls-18" transform="translate(932.6 458.67)">2</text><text class="cls-18" transform="translate(1039.4 458.67)">3</text><text class="cls-18" transform="translate(1035.42 547.14)">C</text><text class="cls-18" transform="translate(938.97 546.34)">,</text><text class="cls-18" transform="translate(826.59 366.21)">4</text><text class="cls-18" transform="translate(932.6 366.21)">5</text><text class="cls-18" transform="translate(1039.4 366.21)">6</text><text class="cls-18" transform="translate(826.59 283.32)">7</text><text class="cls-18" transform="translate(932.6 283.32)">8</text><text class="cls-18" transform="translate(1039.4 283.32)">9</text><text class="cls-8" x="-361.92" y="-302.87"/></g><g id="_00:00-3-8" data-name=" 00:00-3" class="cls-8"><text class="cls-20" transform="translate(175.41 145.02)">V<tspan class="cls-21" x="43.21" y="0">arme</tspan></text><text class="cls-8" x="-361.92" y="-302.87"/></g><path id="Path_236" data-name="Path 236" class="cls-22" d="M1398.48,388.79l55.79,55.06" transform="translate(-361.92 -302.87)"/><path id="Path_237" data-name="Path 237" class="cls-22" d="M1398.47,443.83l55.06-55.8" transform="translate(-361.92 -302.87)"/><rect id="Rectangle_377" data-name="Rectangle 377" class="cls-23" x="8.5" y="8.5" width="1139.89" height="848.56"/><path class="cls-7" d="M454.5,1078.5l19,0,46.42,46.42,49-49-55.77-55.77" transform="translate(-361.92 -302.87)"/><path class="cls-7" d="M1311.42,1079.19l19,0,46.42,46.41,49-49-55.76-55.76" transform="translate(-361.92 -302.87)"/></svg>